<svg width="74" height="74" viewBox="0 0 74 74" fill="none" xmlns="http://www.w3.org/2000/svg">
<g filter="url(#filter0_d_3_3)">
<path d="M37 0C18.7763 0 4 14.7763 4 33C4 51.2237 18.7763 66 37 66C55.2237 66 70 51.2237 70 33C70 14.7763 55.2237 0 37 0ZM53.721 28.3815C53.6473 28.6908 53.4632 29.1475 53.2054 29.6926H53.2127L53.1833 29.7442C51.6879 32.919 47.7987 39.1507 47.7987 39.1507C47.7987 39.1507 47.7913 39.1359 47.7766 39.1138L46.6348 41.0879H52.1225L41.648 54.9509L44.0272 45.5223H39.7107L41.2134 39.2833C39.998 39.5705 38.569 39.9757 36.8674 40.5208C36.8674 40.5208 34.5692 41.8614 30.2453 37.9426C30.2453 37.9426 27.3284 35.3866 29.0225 34.7458C29.7444 34.4732 32.5141 34.127 34.6944 33.8397C37.6409 33.442 39.4529 33.2357 39.4529 33.2357C39.4529 33.2357 30.3705 33.3683 28.2123 33.0368C26.054 32.698 23.3212 29.1254 22.7393 25.9801C22.7393 25.9801 21.8406 24.2565 24.6766 25.0741C27.5125 25.8917 39.254 28.2563 39.254 28.2563C39.254 28.2563 23.9768 23.5935 22.9603 22.4592C21.9438 21.3248 19.9696 16.2569 20.2275 13.1411C20.2275 13.1411 20.3379 12.3676 21.1409 12.5739C21.1409 12.5739 32.433 17.708 40.1527 20.5219C47.8723 23.3136 54.5828 24.7426 53.721 28.3815Z" fill="#8409D1"/>
<path d="M54.2074 28.4973L54.2075 28.4967C54.4668 27.4021 54.1416 26.4658 53.4196 25.674C52.7214 24.9083 51.6469 24.2675 50.3631 23.6794C48.6998 22.9176 46.5656 22.1953 44.2284 21.4044C42.9715 20.979 41.6559 20.5338 40.3232 20.0519C36.4777 18.6501 31.7359 16.668 27.9501 15.0336C26.0582 14.2169 24.4072 13.488 23.2293 12.9633C22.6404 12.701 22.1698 12.4897 21.8465 12.3441C21.6849 12.2713 21.5601 12.2149 21.4757 12.1767L21.3801 12.1334L21.3558 12.1224L21.3498 12.1196L21.3483 12.1189L21.3479 12.1188C21.3478 12.1187 21.3478 12.1187 21.1409 12.5739L21.3478 12.1187L21.3078 12.1005L21.2653 12.0896C20.987 12.0181 20.7263 12.0217 20.493 12.104C20.2604 12.1861 20.0962 12.332 19.9857 12.4767C19.8777 12.618 19.8167 12.7632 19.7825 12.8665C19.765 12.9196 19.7532 12.9656 19.7456 13.0002C19.7417 13.0177 19.7388 13.0325 19.7367 13.0443L19.7341 13.0597L19.7332 13.0657L19.7328 13.0682L19.7326 13.0693L19.7326 13.0698C19.7325 13.0701 19.7325 13.0704 20.2275 13.1411L19.7325 13.0704L19.7304 13.0851L19.7292 13.0998C19.592 14.758 20.0458 16.8801 20.6408 18.6986C20.9408 19.6156 21.2824 20.4727 21.6164 21.177C21.9442 21.8683 22.2832 22.4528 22.5879 22.7928C22.7086 22.9275 22.8886 23.0452 23.0615 23.1446C23.2478 23.2518 23.4793 23.3672 23.7439 23.4885C24.274 23.7314 24.9662 24.0112 25.7579 24.3111C26.9869 24.7766 28.473 25.2971 29.9994 25.8125C27.7731 25.3277 25.7716 24.8694 24.8151 24.5937C24.0809 24.382 23.5237 24.314 23.1042 24.3761C22.6545 24.4428 22.3241 24.6705 22.1794 25.0368C22.0552 25.3514 22.111 25.6694 22.1603 25.8532C22.1874 25.9541 22.2195 26.0398 22.2449 26.1005C22.2501 26.1129 22.2551 26.1245 22.2597 26.135C22.5781 27.7816 23.4384 29.5058 24.4889 30.8665C25.0227 31.5579 25.6152 32.1681 26.2262 32.6319C26.8326 33.0922 27.4845 33.4287 28.1347 33.5308L28.1364 33.531C28.8366 33.6386 30.207 33.698 31.7502 33.7295C31.5759 33.7542 31.4048 33.779 31.2382 33.8037C30.7078 33.8824 30.2181 33.9613 29.8132 34.0384C29.4191 34.1135 29.0716 34.1928 28.8459 34.278L28.8456 34.2781C28.5605 34.3859 28.32 34.5547 28.1652 34.8013C28.0096 35.0491 27.9752 35.3206 28.0017 35.5687C28.0515 36.035 28.3248 36.5041 28.5928 36.8766C28.8729 37.2658 29.2045 37.6261 29.4606 37.8849C29.5897 38.0154 29.7021 38.1226 29.7827 38.1976C29.823 38.2351 29.8555 38.2647 29.8783 38.2852L29.905 38.3091L29.9095 38.3131C29.9104 38.3139 29.9113 38.3147 29.9121 38.3154C32.1254 40.3207 33.8693 41.0245 35.1091 41.1965C35.7284 41.2824 36.2117 41.234 36.5518 41.1565C36.7212 41.1179 36.8538 41.0724 36.9486 41.0338C36.9948 41.0151 37.0319 40.998 37.0601 40.9841C38.377 40.5628 39.5256 40.2274 40.5345 39.9666L39.2246 45.4052L39.076 46.0223H39.7107H43.3854L41.1632 54.8286L42.0469 55.2523L52.5215 41.3894L53.127 40.5879H52.1225H47.5016L47.7464 40.1646L47.7503 40.1725L48.2228 39.4154L48.1912 39.3956L48.1912 39.3956C48.2229 39.4153 48.2229 39.4153 48.2229 39.4153L48.223 39.4151L48.2236 39.4142L48.2258 39.4107L48.2343 39.397L48.2674 39.3439L48.3939 39.1398C48.5035 38.9626 48.6617 38.7061 48.8562 38.3884C49.245 37.7532 49.7792 36.8729 50.3603 35.893C51.5145 33.9466 52.8665 31.5864 53.6271 29.9752L53.6469 29.9407L54.0743 29.1926H53.9732C54.0791 28.9305 54.1605 28.6944 54.2074 28.4973ZM4.5 33C4.5 15.0525 19.0525 0.5 37 0.5C54.9475 0.5 69.5 15.0525 69.5 33C69.5 50.9475 54.9475 65.5 37 65.5C19.0525 65.5 4.5 50.9475 4.5 33Z" stroke="#574100" stroke-opacity="0.68"/>
</g>
<defs>
<filter id="filter0_d_3_3" x="0" y="0" width="74" height="74" filterUnits="userSpaceOnUse" color-interpolation-filters="sRGB">
<feFlood flood-opacity="0" result="BackgroundImageFix"/>
<feColorMatrix in="SourceAlpha" type="matrix" values="0 0 0 0 0 0 0 0 0 0 0 0 0 0 0 0 0 0 127 0" result="hardAlpha"/>
<feOffset dy="4"/>
<feGaussianBlur stdDeviation="2"/>
<feComposite in2="hardAlpha" operator="out"/>
<feColorMatrix type="matrix" values="0 0 0 0 0 0 0 0 0 0 0 0 0 0 0 0 0 0 0.25 0"/>
<feBlend mode="normal" in2="BackgroundImageFix" result="effect1_dropShadow_3_3"/>
<feBlend mode="normal" in="SourceGraphic" in2="effect1_dropShadow_3_3" result="shape"/>
</filter>
</defs>
</svg>
