<svg width="81" height="77" viewBox="0 0 81 77" fill="none" xmlns="http://www.w3.org/2000/svg">
<g clip-path="url(#clip0_70_1296)">
<path d="M16 20.3752C16 17.9602 17.96 16.0002 20.375 16.0002H51.625C54.04 16.0002 56 17.9602 56 20.3752V44.1252C56 45.2856 55.5391 46.3984 54.7186 47.2188C53.8981 48.0393 52.7853 48.5002 51.625 48.5002H36.15L29.7175 54.9327C29.2076 55.4407 28.5588 55.7863 27.8528 55.9261C27.1468 56.0658 26.4152 55.9934 25.7503 55.7181C25.0854 55.4427 24.5168 54.9766 24.1164 54.3786C23.7159 53.7806 23.5014 53.0774 23.5 52.3577V48.5002H20.375C19.2147 48.5002 18.1019 48.0393 17.2814 47.2188C16.4609 46.3984 16 45.2856 16 44.1252V20.3752ZM20.375 19.7502C20.2092 19.7502 20.0503 19.8161 19.9331 19.9333C19.8158 20.0505 19.75 20.2095 19.75 20.3752V44.1252C19.75 44.4702 20.03 44.7502 20.375 44.7502H25.375C25.8723 44.7502 26.3492 44.9478 26.7008 45.2994C27.0525 45.6511 27.25 46.128 27.25 46.6252V52.1002L34.05 45.3002C34.2239 45.126 34.4304 44.9877 34.6577 44.8933C34.8851 44.7989 35.1288 44.7503 35.375 44.7502H51.625C51.7908 44.7502 51.9497 44.6844 52.0669 44.5672C52.1842 44.45 52.25 44.291 52.25 44.1252V20.3752C52.25 20.2095 52.1842 20.0505 52.0669 19.9333C51.9497 19.8161 51.7908 19.7502 51.625 19.7502H20.375ZM37.875 25.3752V31.6252C37.875 32.1225 37.6775 32.5994 37.3258 32.9511C36.9742 33.3027 36.4973 33.5002 36 33.5002C35.5027 33.5002 35.0258 33.3027 34.6742 32.9511C34.3225 32.5994 34.125 32.1225 34.125 31.6252V25.3752C34.125 24.878 34.3225 24.401 34.6742 24.0494C35.0258 23.6978 35.5027 23.5002 36 23.5002C36.4973 23.5002 36.9742 23.6978 37.3258 24.0494C37.6775 24.401 37.875 24.878 37.875 25.3752ZM38.5 38.5002C38.5 39.1633 38.2366 39.7992 37.7678 40.268C37.2989 40.7369 36.663 41.0002 36 41.0002C35.337 41.0002 34.7011 40.7369 34.2322 40.268C33.7634 39.7992 33.5 39.1633 33.5 38.5002C33.5 37.8372 33.7634 37.2013 34.2322 36.7325C34.7011 36.2636 35.337 36.0002 36 36.0002C36.663 36.0002 37.2989 36.2636 37.7678 36.7325C38.2366 37.2013 38.5 37.8372 38.5 38.5002Z" fill="#4E9AA5"/>
</g>
<rect x="2" y="2.00024" width="68" height="68" rx="34" stroke="#4E9AA5" stroke-width="4"/>
<circle opacity="0.25" cx="45" cy="41.0002" r="36" fill="#4E9AA5"/>
<defs>
<clipPath id="clip0_70_1296">
<rect width="40" height="40" fill="white" transform="translate(16 16.0002)"/>
</clipPath>
</defs>
</svg>
