<svg width="81" height="77" viewBox="0 0 81 77" fill="none" xmlns="http://www.w3.org/2000/svg">
<g clip-path="url(#clip0_164_3526)">
<path d="M16 20.375C16 17.96 17.96 16 20.375 16H51.625C54.04 16 56 17.96 56 20.375V44.125C56 45.2853 55.5391 46.3981 54.7186 47.2186C53.8981 48.0391 52.7853 48.5 51.625 48.5H36.15L29.7175 54.9325C29.2076 55.4404 28.5588 55.7861 27.8528 55.9258C27.1468 56.0656 26.4152 55.9932 25.7503 55.7178C25.0854 55.4424 24.5168 54.9764 24.1164 54.3784C23.7159 53.7804 23.5014 53.0772 23.5 52.3575V48.5H20.375C19.2147 48.5 18.1019 48.0391 17.2814 47.2186C16.4609 46.3981 16 45.2853 16 44.125V20.375ZM20.375 19.75C20.2092 19.75 20.0503 19.8158 19.9331 19.9331C19.8158 20.0503 19.75 20.2092 19.75 20.375V44.125C19.75 44.47 20.03 44.75 20.375 44.75H25.375C25.8723 44.75 26.3492 44.9475 26.7008 45.2992C27.0525 45.6508 27.25 46.1277 27.25 46.625V52.1L34.05 45.3C34.2239 45.1257 34.4304 44.9874 34.6577 44.8931C34.8851 44.7987 35.1288 44.7501 35.375 44.75H51.625C51.7908 44.75 51.9497 44.6842 52.0669 44.5669C52.1842 44.4497 52.25 44.2908 52.25 44.125V20.375C52.25 20.2092 52.1842 20.0503 52.0669 19.9331C51.9497 19.8158 51.7908 19.75 51.625 19.75H20.375ZM37.875 25.375V31.625C37.875 32.1223 37.6775 32.5992 37.3258 32.9508C36.9742 33.3025 36.4973 33.5 36 33.5C35.5027 33.5 35.0258 33.3025 34.6742 32.9508C34.3225 32.5992 34.125 32.1223 34.125 31.625V25.375C34.125 24.8777 34.3225 24.4008 34.6742 24.0492C35.0258 23.6975 35.5027 23.5 36 23.5C36.4973 23.5 36.9742 23.6975 37.3258 24.0492C37.6775 24.4008 37.875 24.8777 37.875 25.375ZM38.5 38.5C38.5 39.163 38.2366 39.7989 37.7678 40.2678C37.2989 40.7366 36.663 41 36 41C35.337 41 34.7011 40.7366 34.2322 40.2678C33.7634 39.7989 33.5 39.163 33.5 38.5C33.5 37.837 33.7634 37.2011 34.2322 36.7322C34.7011 36.2634 35.337 36 36 36C36.663 36 37.2989 36.2634 37.7678 36.7322C38.2366 37.2011 38.5 37.837 38.5 38.5Z" fill="#4E9AA5"/>
</g>
<rect x="2" y="2" width="68" height="68" rx="34" stroke="#4E9AA5" stroke-width="4"/>
<circle opacity="0.25" cx="45" cy="41" r="36" fill="#4E9AA5"/>
<defs>
<clipPath id="clip0_164_3526">
<rect width="40" height="40" fill="white" transform="translate(16 16)"/>
</clipPath>
</defs>
</svg>
