<svg width="15" height="9" viewBox="0 0 15 9" fill="none" xmlns="http://www.w3.org/2000/svg">
<path d="M7.99979 1.00021C8.23344 0.999756 8.45987 1.08113 8.63979 1.23021L14.6398 6.23021C14.844 6.39995 14.9724 6.64386 14.9968 6.90829C15.0212 7.17272 14.9395 7.436 14.7698 7.64021C14.6 7.84443 14.3561 7.97285 14.0917 7.99723C13.8273 8.02161 13.564 7.93995 13.3598 7.77021L7.99979 3.29021L2.63978 7.61021C2.5375 7.69328 2.4198 7.75531 2.29346 7.79274C2.16712 7.83017 2.03463 7.84227 1.9036 7.82833C1.77258 7.81439 1.64559 7.77469 1.52996 7.71152C1.41432 7.64834 1.31231 7.56294 1.22978 7.46021C1.13821 7.35739 1.06885 7.23676 1.02605 7.10589C0.983261 6.97502 0.967958 6.83672 0.981101 6.69965C0.994244 6.56259 1.03555 6.42972 1.10243 6.30936C1.16932 6.189 1.26034 6.08376 1.36979 6.00021L7.36979 1.17021C7.55487 1.0447 7.77668 0.984842 7.99979 1.00021Z" fill="white"/>
</svg>
