<svg width="160" height="160" viewBox="0 0 160 160" fill="none" xmlns="http://www.w3.org/2000/svg">
<path d="M95.7327 86.2299C93.8888 85.3059 89.7813 84.0616 84.8922 83.7378C80.001 83.4147 73.7273 83.7378 73.7273 83.7378V104.914C73.7273 104.914 80.2783 105.053 84.663 104.73C89.0435 104.407 93.5657 103.3 95.8265 102.053C98.0859 100.807 100.809 98.8698 100.809 94.0266C100.809 89.1813 97.5787 87.1526 95.7327 86.2299ZM81.9387 73.9104C85.5391 73.7714 89.3679 72.9419 92.1338 71.4189C94.9025 69.8967 96.4705 67.4991 96.3802 63.8995C96.2857 60.3006 93.8888 57.2562 89.8293 56.0091C85.7683 54.7634 83.0483 54.6709 79.9552 54.6251C76.8642 54.58 73.7266 54.8565 73.7266 54.8565V73.9104C73.7273 73.9104 78.3405 74.0493 81.9387 73.9104Z" fill="#F7931A"/>
<path d="M80.0007 0.000610352C35.8177 0.000610352 0 35.8173 0 80.0006C0 124.183 35.8177 160.001 80.0007 160.001C124.184 160.001 160 124.183 160 80.0006C160 35.8173 124.184 0.000610352 80.0007 0.000610352ZM112.574 110.589C106.621 114.742 100.255 115.481 97.4401 115.848C96.0512 116.031 93.6719 116.224 91.1205 116.373V132.412H81.2464V116.633H73.7269V132.412H63.8536V116.633H44.4306L46.46 104.774H52.3648C54.3498 104.774 55.1786 104.59 56.0089 103.806C56.8391 103.021 57.0239 101.822 57.0239 100.852V59.9987C57.0239 57.4395 56.8159 56.7468 55.6393 55.4327C54.4627 54.1157 51.6954 53.9429 50.1372 53.9429H44.4299V43.6915H63.8529V27.8669H73.7255V43.6915H81.245V27.8669H91.1191V43.8813C98.4799 44.3377 103.959 45.74 108.742 49.274C114.925 53.8414 114.601 61.7762 114.463 63.6681C114.325 65.5599 113.495 69.2054 111.832 71.5564C110.173 73.9103 106.113 76.2635 106.113 76.2635C106.113 76.2635 110.91 77.2778 114.28 79.8158C117.645 82.3538 120.14 86.8281 119.998 93.3797C119.862 99.9313 118.525 106.437 112.574 110.589Z" fill="#F7931A"/>
</svg>
