<svg width="15" height="9" viewBox="0 0 15 9" fill="none" xmlns="http://www.w3.org/2000/svg">
<path d="M7.00028 1.00098C6.76662 1.00052 6.54019 1.08189 6.36028 1.23098L0.360276 6.23098C0.156059 6.40071 0.0276347 6.64463 0.00325494 6.90905C-0.0211248 7.17348 0.0605371 7.43676 0.230276 7.64098C0.400014 7.84519 0.643926 7.97362 0.908352 7.998C1.17278 8.02238 1.43606 7.94071 1.64028 7.77098L7.00028 3.29098L12.3603 7.61098C12.4626 7.69404 12.5803 7.75607 12.7066 7.7935C12.8329 7.83094 12.9654 7.84303 13.0965 7.82909C13.2275 7.81515 13.3545 7.77546 13.4701 7.71228C13.5857 7.64911 13.6878 7.5637 13.7703 7.46098C13.8619 7.35815 13.9312 7.23753 13.974 7.10665C14.0168 6.97578 14.0321 6.83748 14.019 6.70042C14.0058 6.56335 13.9645 6.43048 13.8976 6.31012C13.8307 6.18977 13.7397 6.08452 13.6303 6.00098L7.63028 1.17098C7.44519 1.04546 7.22338 0.985605 7.00028 1.00098Z" fill="#231F20"/>
</svg>
