<svg width="81" height="77" viewBox="0 0 81 77" fill="none" xmlns="http://www.w3.org/2000/svg">
<path d="M38.0925 34.5549H27M31.0375 22.9099V18.9999M37.5825 22.9099V18.9999M31.0375 52.9999V48.3249M37.5825 52.9999V48.3249M38.0075 34.5549C38.7792 34.5662 39.5455 34.4239 40.2618 34.1364C40.978 33.8488 41.63 33.4217 42.1797 32.8799C42.7294 32.3381 43.1659 31.6924 43.4638 30.9804C43.7617 30.2684 43.9151 29.5043 43.915 28.7324C43.915 27.1882 43.3016 25.7072 42.2096 24.6153C41.1177 23.5234 39.6367 22.9099 38.0925 22.9099H29.125C28.5614 22.9099 28.0209 23.1338 27.6224 23.5323C27.2239 23.9309 27 24.4714 27 25.0349V46.2849C27 46.8485 27.2239 47.389 27.6224 47.7875C28.0209 48.1861 28.5614 48.4099 29.125 48.4099H38.0075C39.8335 48.4099 41.5847 47.6846 42.8759 46.3934C44.1671 45.1022 44.8925 43.351 44.8925 41.5249C44.8925 39.6989 44.1671 37.9477 42.8759 36.6565C41.5847 35.3653 39.8335 34.6399 38.0075 34.6399V34.5549Z" stroke="#4E9AA5" stroke-width="4" stroke-linecap="round" stroke-linejoin="round"/>
<rect x="2" y="2" width="68" height="68" rx="34" stroke="#4E9AA5" stroke-width="4"/>
<circle opacity="0.25" cx="45" cy="41" r="36" fill="#4E9AA5"/>
</svg>
