<svg width="81" height="77" viewBox="0 0 81 77" fill="none" xmlns="http://www.w3.org/2000/svg">
<path d="M55.106 42.9622L50 22.2362C49 19.0582 47.21 18.0002 45 18.0002H27C24.79 18.0002 23 19.0602 22 22.2362L16.894 42.9602C18.092 40.7022 20.378 39.1742 23 39.1742H49C51.622 39.1742 53.906 40.7002 55.106 42.9602C55.6966 44.0781 56.0036 45.324 56 46.5882C56 50.6822 52.866 54.0002 49 54.0002H23C19.134 54.0002 16 50.6802 16 46.5882C16 45.2722 16.324 44.0342 16.894 42.9622" stroke="#4E9AA5" stroke-width="4"/>
<path opacity="0.5" d="M48 46.0002V48.0002M43 46.0002V48.0002M38 46.0002V48.0002M33 46.0002V48.0002" stroke="#4E9AA5" stroke-width="4" stroke-linecap="round"/>
<rect x="2" y="2.00024" width="68" height="68" rx="34" stroke="#4E9AA5" stroke-width="4"/>
<circle opacity="0.25" cx="45" cy="41.0002" r="36" fill="#4E9AA5"/>
</svg>
