<svg width="161" height="160" viewBox="0 0 161 160" fill="none" xmlns="http://www.w3.org/2000/svg">
<path d="M80.6665 0.000610352C36.5042 0.000610352 0.666504 35.8384 0.666504 80.0006C0.666504 124.163 36.5042 160.001 80.6665 160.001C124.829 160.001 160.667 124.163 160.667 80.0006C160.667 35.8384 124.829 0.000610352 80.6665 0.000610352ZM80.8781 26.9495L111.213 74.7802L80.8781 61.2352L49.6259 74.4274L80.8781 26.9495ZM81.0898 67.7255L112.765 81.8348L81.0898 99.5421L48.4972 81.4821L81.0898 67.7255ZM81.2309 133.052L49.6965 89.1011L80.9487 107.161L112.765 89.1011L81.2309 133.052Z" fill="url(#paint0_linear_70_1686)"/>
<defs>
<linearGradient id="paint0_linear_70_1686" x1="80.6665" y1="0.000610352" x2="80.6665" y2="160.001" gradientUnits="userSpaceOnUse">
<stop stop-color="#9FA8DA"/>
<stop offset="0.557292" stop-color="#5C6BC0"/>
<stop offset="1" stop-color="#7986CB"/>
</linearGradient>
</defs>
</svg>
