<svg width="28" height="23" viewBox="0 0 28 23" fill="none" xmlns="http://www.w3.org/2000/svg">
<path d="M1 6.5H27M5 14.5H13M5 17.5H9M4 21.5H24C24.7956 21.5 25.5587 21.1839 26.1213 20.6213C26.6839 20.0587 27 19.2956 27 18.5V4.5C27 3.70435 26.6839 2.94129 26.1213 2.37868C25.5587 1.81607 24.7956 1.5 24 1.5H4C3.20435 1.5 2.44129 1.81607 1.87868 2.37868C1.31607 2.94129 1 3.70435 1 4.5V18.5C1 19.2956 1.31607 20.0587 1.87868 20.6213C2.44129 21.1839 3.20435 21.5 4 21.5Z" stroke="#4E9AA5" stroke-width="2" stroke-linecap="round" stroke-linejoin="round"/>
</svg>
