<svg width="36" height="36" viewBox="0 0 36 36" fill="none" xmlns="http://www.w3.org/2000/svg">
<g clip-path="url(#clip0_1186_6679)">
<path d="M35.5391 0.730454C37.4387 2.65898 32.1727 11.137 31.2824 12.0419C30.3922 12.9449 28.1311 12.114 26.2326 10.1848C24.333 8.25626 23.5147 5.95875 24.405 5.05434C25.2947 4.14965 33.64 -1.19921 35.5391 0.730454ZM8.90221 2.77097C6.00224 1.09959 1.87574 -0.759794 0.56315 0.573887C-0.766881 1.92442 1.13043 6.2106 2.79318 9.16181C4.27414 6.5482 6.37397 4.35151 8.90221 2.77097Z" fill="#B5010F"/>
<path d="M32.6413 11.3767C32.9084 12.2967 32.8604 13.0567 32.4273 13.4958C31.4158 14.5238 28.6833 13.4295 26.2201 11.0482C26.0457 10.8898 25.8756 10.7265 25.7101 10.5584C24.8194 9.65333 24.1264 8.68993 23.6831 7.80266C22.8204 6.23042 22.6045 4.84188 23.2566 4.17933C23.612 3.81876 24.1805 3.72048 24.8741 3.84719C25.3263 3.55663 25.8603 3.23292 26.4457 2.90136C24.065 1.63996 21.3584 0.927551 18.4873 0.927551C8.96431 0.927551 1.24414 8.76878 1.24414 18.4435C1.24414 28.1166 8.96445 35.9588 18.4873 35.9588C28.0104 35.9588 35.7302 28.1166 35.7302 18.4435C35.7302 15.3193 34.923 12.3898 33.5129 9.85004C33.2082 10.415 32.9119 10.9326 32.6413 11.3767Z" fill="#B5010F"/>
</g>
<defs>
<clipPath id="clip0_1186_6679">
<rect width="36" height="36" fill="white"/>
</clipPath>
</defs>
</svg>
