<svg width="31" height="36" viewBox="0 0 31 36" fill="none" xmlns="http://www.w3.org/2000/svg">
<g clip-path="url(#clip0_1186_6688)">
<path d="M14.8464 9.14759C14.8464 9.26297 14.731 9.26297 14.731 9.26297H14.6156C14.5003 9.26297 14.5003 9.14759 14.3849 9.0322C14.3849 9.0322 14.2695 8.91682 14.2695 8.80143C14.2695 8.68605 14.2695 8.68605 14.3849 8.68605L14.6156 8.80143C14.731 8.91682 14.8464 9.0322 14.8464 9.14759ZM12.7695 7.99374C12.7695 7.41682 12.5387 7.07066 12.1926 7.07066C12.1926 7.07066 12.1926 7.18605 12.0772 7.18605V7.41682H12.4233C12.4233 7.64759 12.5387 7.76297 12.5387 7.99374H12.7695ZM16.8079 7.41682C17.0387 7.41682 17.1541 7.64759 17.2695 7.99374H17.5003C17.3849 7.87836 17.3849 7.76297 17.3849 7.64759C17.3849 7.5322 17.3849 7.41682 17.2695 7.30143C17.1541 7.18605 17.0387 7.07066 16.9233 7.07066C16.9233 7.07066 16.8079 7.18605 16.6926 7.18605C16.6926 7.30143 16.8079 7.30143 16.8079 7.41682ZM13.3464 9.26297C13.231 9.26297 13.231 9.26297 13.231 9.14759C13.231 9.0322 13.231 8.91682 13.3464 8.80143C13.5772 8.80143 13.6926 8.68605 13.6926 8.68605C13.8079 8.68605 13.8079 8.80143 13.8079 8.80143C13.8079 8.91682 13.6926 9.0322 13.4618 9.26297H13.3464ZM12.0772 9.14759C11.6156 8.91682 11.5003 8.57066 11.5003 7.99374C11.5003 7.64759 11.5003 7.41682 11.731 7.18605C11.8464 6.95528 12.0772 6.83989 12.3079 6.83989C12.5387 6.83989 12.6541 6.95528 12.8849 7.18605C13.0003 7.5322 13.1156 7.87836 13.1156 8.22451V8.45528H13.231V8.33989C13.3464 8.33989 13.3464 8.10913 13.3464 7.64759C13.3464 7.30143 13.3464 6.95528 13.1156 6.60913C12.8849 6.26297 12.6541 6.0322 12.1926 6.0322C11.8464 6.0322 11.5003 6.26297 11.3849 6.60913C11.1541 7.07066 11.1079 7.41682 11.1079 7.99374C11.1079 8.45528 11.2695 8.91682 11.731 9.37836C11.8464 9.26297 11.9618 9.26297 12.0772 9.14759ZM26.5003 25.4168C26.6156 25.4168 26.6156 25.3707 26.6156 25.2668C26.6156 25.013 26.5003 24.713 26.1541 24.3784C25.8079 24.0322 25.231 23.813 24.5387 23.7207C24.4233 23.7091 24.3079 23.7091 24.3079 23.7091C24.1926 23.6861 24.1926 23.6861 24.0772 23.6861C23.9618 23.6745 23.731 23.6514 23.6156 23.6284C23.9618 22.5553 24.0772 21.6091 24.0772 20.7784C24.0772 19.6245 23.8464 18.8168 23.3849 18.1245C22.9233 17.4322 22.4618 17.0861 21.8849 16.9707C21.7695 17.0861 21.7695 17.0861 21.7695 17.2014C22.3464 17.4322 22.9233 17.8937 23.2695 18.5861C23.6156 19.3937 23.731 20.0861 23.731 20.8937C23.731 21.5399 23.6156 22.4976 23.1541 23.7207C22.6926 23.9053 22.231 24.3322 21.8849 25.0014C21.8849 25.1053 21.8849 25.163 22.0003 25.163C22.0003 25.163 22.1156 25.0591 22.231 24.863C22.4618 24.6668 22.5772 24.4707 22.8079 24.2745C23.1541 24.0784 23.3849 23.9745 23.731 23.9745C24.3079 23.9745 24.8849 24.0553 25.231 24.2168C25.6926 24.3668 25.9233 24.5284 26.0387 24.713C26.1541 24.8861 26.2695 25.0476 26.3849 25.1976C26.3849 25.3476 26.5003 25.4168 26.5003 25.4168ZM15.8849 8.68605C15.7695 8.57066 15.7695 8.33989 15.7695 8.10913C15.7695 7.64759 15.7695 7.41682 16.0003 7.07066C16.231 6.83989 16.4618 6.72451 16.6926 6.72451C17.0387 6.72451 17.2695 6.95528 17.5003 7.18605C17.6156 7.5322 17.731 7.76297 17.731 8.10913C17.731 8.68605 17.5003 9.0322 17.0387 9.14759C17.0387 9.14759 17.1541 9.26297 17.2695 9.26297C17.5003 9.26297 17.6156 9.37836 17.8464 9.49374C17.9618 8.80143 18.0772 8.33989 18.0772 7.76297C18.0772 7.07066 17.9618 6.60913 17.731 6.26297C17.3849 5.91682 17.0387 5.80143 16.5772 5.80143C16.231 5.80143 15.8849 5.91682 15.5387 6.14759C15.3079 6.49374 15.1926 6.72451 15.1926 7.07066C15.1926 7.64759 15.3079 8.10913 15.5387 8.57066C15.6541 8.57066 15.7695 8.68605 15.8849 8.68605ZM17.2695 10.5322C15.7695 11.5707 14.6156 12.0322 13.6926 12.0322C12.8849 12.0322 12.0772 11.686 11.3849 11.1091C11.5003 11.3399 11.6156 11.5707 11.731 11.686L12.4233 12.3784C12.8849 12.8399 13.4618 13.0707 14.0387 13.0707C14.8464 13.0707 15.7695 12.6091 16.9233 11.8014L17.9618 11.1091C18.1926 10.8784 18.4233 10.6476 18.4233 10.3014C18.4233 10.186 18.4233 10.0707 18.3079 10.0707C18.1926 9.83989 17.6156 9.49374 16.4618 9.14759C15.4233 8.68605 14.6156 8.45528 14.1541 8.45528C13.8079 8.45528 13.231 8.68605 12.4233 9.14759C11.731 9.60913 11.2695 10.0707 11.2695 10.5322C11.2695 10.5322 11.3849 10.6476 11.5003 10.8784C12.1926 11.4553 12.8849 11.8014 13.5772 11.8014C14.5003 11.8014 15.6541 11.3399 17.1541 10.186V10.4168C17.2695 10.4168 17.2695 10.5322 17.2695 10.5322ZM19.9233 33.8399C20.3849 34.7076 21.1926 35.1437 22.1156 35.1437C22.3464 35.1437 22.5772 35.1091 22.8079 35.0399C23.0387 34.9937 23.2695 34.913 23.3849 34.8207C23.5003 34.7399 23.6156 34.6591 23.731 34.5668C23.9618 34.486 23.9618 34.4284 24.0772 34.3707L26.0387 32.6745C26.5003 32.3064 26.9618 31.9845 27.5387 31.7053C28.0003 31.4284 28.4618 31.2437 28.6926 31.1399C29.0387 31.0476 29.2695 30.9091 29.5003 30.7245C29.6156 30.5514 29.731 30.3322 29.731 30.0553C29.731 29.7207 29.5003 29.4668 29.2695 29.2822C29.0387 29.0976 28.8079 28.9707 28.5772 28.8899C28.3464 28.8091 28.1156 28.6245 27.7695 28.313C27.5387 28.013 27.3079 27.5976 27.1926 27.0553L27.0772 26.3861C26.9618 26.0745 26.9618 25.8437 26.8464 25.7168C26.8464 25.6822 26.8464 25.6707 26.731 25.6707C26.6156 25.6707 26.3849 25.7745 26.2695 25.9707C26.0387 26.1668 25.8079 26.3861 25.5772 26.6168C25.4618 26.8476 25.1156 27.0553 24.8849 27.2514C24.5387 27.4476 24.1926 27.5514 23.9618 27.5514C23.0387 27.5514 22.5772 27.2976 22.231 26.8014C22.0003 26.4322 21.8849 26.0053 21.7695 25.5207C21.5387 25.3245 21.4233 25.2207 21.1926 25.2207C20.6156 25.2207 20.3849 25.8207 20.3849 27.0322V30.6207C20.3849 30.7245 20.2695 30.9553 20.2695 31.313C20.1541 31.6707 20.1541 32.0768 20.1541 32.5361L19.9233 33.8168V33.8364M3.19256 33.226C4.26564 33.383 5.50025 33.7187 6.89641 34.2311C8.29256 34.7387 9.14641 35.0041 9.45795 35.0041C10.2656 35.0041 10.9349 34.6464 11.4887 33.9553C11.6041 33.7314 11.6041 33.4684 11.6041 33.166C11.6041 32.0757 10.9464 30.6968 9.63102 29.0237L8.84641 27.9737C8.68487 27.7545 8.48871 27.4199 8.23487 26.9699C7.99256 26.5199 7.77333 26.1737 7.60025 25.9314C7.45025 25.6661 7.20794 25.4007 6.89641 25.1353C6.59641 24.8699 6.25025 24.6968 5.86948 24.6045C5.38487 24.6968 5.05025 24.8584 4.88871 25.0776C4.72718 25.2968 4.63487 25.5391 4.61179 25.793C4.57718 26.0353 4.50795 26.1968 4.39256 26.2776C4.27718 26.3468 4.08102 26.4045 3.81564 26.4622C3.75794 26.4622 3.6541 26.4622 3.5041 26.4737H3.19256C2.58102 26.4737 2.16564 26.543 1.94641 26.6584C1.65794 26.993 1.50794 27.3737 1.50794 27.7776C1.50794 27.9622 1.5541 28.2737 1.64641 28.7122C1.73871 29.1391 1.78487 29.4853 1.78487 29.7276C1.78487 30.2007 1.64641 30.6737 1.35794 31.1468C1.06948 31.643 0.919483 32.0122 0.919483 32.2753C1.03487 32.723 1.79641 33.038 3.19256 33.2226M7.03487 22.7341C7.03487 21.938 7.24256 21.0611 7.66948 20.0226C8.08487 18.9841 8.50025 18.2918 8.9041 17.8303C8.88102 17.7149 8.82333 17.7149 8.73102 17.7149L8.61564 17.5995C8.28102 17.9457 7.87718 18.7534 7.39256 19.9072C6.90795 20.9457 6.6541 21.9034 6.6541 22.6072C6.6541 23.1264 6.78102 23.5764 7.01179 23.9687C7.26564 24.3495 7.87718 24.9034 8.84641 25.6072L10.0695 26.4034C11.3733 27.5341 12.0656 28.3187 12.0656 28.7803C12.0656 29.0226 11.9503 29.2649 11.6041 29.5303C11.3733 29.8072 11.0618 29.9457 10.7964 29.9457C10.7733 29.9457 10.7618 29.9687 10.7618 30.0264C10.7618 30.038 10.8772 30.2687 11.1195 30.7187C11.6041 31.3764 12.6426 31.6995 14.0272 31.6995C16.5656 31.6995 18.5272 30.6611 20.0272 28.5841C20.0272 28.0072 20.0272 27.6495 19.9118 27.4995V27.0726C19.9118 26.3226 20.0272 25.7572 20.2579 25.388C20.4887 25.0187 20.7195 24.8457 21.0656 24.8457C21.2964 24.8457 21.5272 24.9264 21.7579 25.0995C21.8733 24.2111 21.8733 23.438 21.8733 22.7457C21.8733 21.6957 21.8733 20.8303 21.6426 20.0226C21.5272 19.3303 21.2964 18.7534 21.0656 18.2918L20.3733 17.2534C20.1426 16.9072 20.0272 16.561 19.7964 16.2149C19.681 15.7534 19.5656 15.4072 19.5656 14.8303C19.2195 14.2534 18.9887 13.6764 18.6426 13.0995C18.4118 12.5226 18.181 11.9457 17.9503 11.4841L16.9118 12.2918C15.7579 13.0995 14.8349 13.4457 14.0272 13.4457C13.3349 13.4457 12.7579 13.3303 12.4118 12.8687L11.7195 12.2918C11.7195 12.638 11.6041 13.0995 11.3733 13.561L10.6464 14.9457C10.3233 15.7534 10.1503 16.2149 10.1156 16.561C10.0695 16.7918 10.0349 17.0226 10.0118 17.0226L9.14641 18.7534C8.21179 20.4841 7.73871 22.088 7.73871 23.4149C7.73871 23.6803 7.76179 23.9572 7.80794 24.2341C7.28871 23.8764 7.03487 23.3803 7.03487 22.7341ZM15.2964 33.6495C13.7964 33.6495 12.6426 33.8526 11.8349 34.2553V34.2207C11.2579 34.913 10.6118 35.2707 9.71179 35.2707C9.14641 35.2707 8.25795 35.0514 7.05794 34.613C5.84641 34.1976 4.77333 33.8791 3.83871 33.6691C3.74641 33.6426 3.53871 33.6034 3.2041 33.5503C2.88102 33.4984 2.58102 33.4453 2.31564 33.3922C2.07333 33.3403 1.79641 33.2618 1.49641 33.1557C1.20794 33.0645 0.977176 32.9457 0.804099 32.8014C0.644868 32.656 0.566406 32.4922 0.566406 32.3087C0.566406 32.1241 0.605637 31.9268 0.684099 31.7168C0.757945 31.5899 0.838714 31.463 0.919483 31.3476C1.00025 31.2207 1.06948 31.1053 1.11564 30.9899C1.18487 30.8861 1.23102 30.7822 1.27718 30.6668C1.32333 30.563 1.36948 30.4591 1.39256 30.3322C1.41564 30.2168 1.43871 30.1014 1.43871 29.9861C1.43871 29.8707 1.39256 29.5245 1.30025 28.913C1.20794 28.313 1.16179 27.9322 1.16179 27.7707C1.16179 27.263 1.27718 26.8591 1.53102 26.5707C1.78487 26.2822 2.02718 26.1322 2.28102 26.1322H3.60794C3.71179 26.1322 3.87333 26.0745 4.11564 25.9361C4.19641 25.7514 4.26564 25.6014 4.31179 25.463C4.36948 25.3245 4.39256 25.2207 4.41564 25.1745C4.43871 25.1053 4.46179 25.0361 4.48487 24.9784C4.53102 24.8976 4.58871 24.8053 4.66948 24.713C4.57718 24.5976 4.53102 24.4476 4.53102 24.263C4.53102 24.1361 4.53102 24.0207 4.5541 23.9514C4.5541 23.5361 4.75025 22.9476 5.16564 22.1745L5.56948 21.4476C5.9041 20.8245 6.15794 20.363 6.34256 19.9014C6.53871 19.4399 6.74641 18.7476 6.97718 17.8245C7.16179 17.0168 7.60025 16.2091 8.29256 15.4014L9.15794 14.363C9.75795 13.6707 10.1503 13.0937 10.3695 12.6322C10.5887 12.1707 10.7041 11.5937 10.7041 11.1322C10.7041 10.9014 10.6464 10.2091 10.5195 9.05528C10.4041 7.90143 10.3464 6.74759 10.3464 5.70913C10.3464 4.90143 10.4156 4.32451 10.5656 3.74759C10.7156 3.17066 10.981 2.59374 11.3733 2.1322C11.7195 1.67066 12.181 1.20913 12.8733 0.978356C13.5656 0.747587 14.3733 0.632202 15.2964 0.632202C15.6426 0.632202 15.9887 0.632202 16.3349 0.747587C16.681 0.747587 17.1426 0.862971 17.7195 1.09374C18.181 1.32451 18.6426 1.55528 18.9887 1.90143C19.4503 2.24759 19.7964 2.82451 20.1426 3.40143C20.3733 4.09374 20.6041 4.78605 20.7195 5.70913C20.8349 6.28605 20.8349 6.86297 20.9503 7.67066C20.9503 8.36297 21.0656 8.82451 21.0656 9.17066C21.181 9.51682 21.181 9.97836 21.2964 10.5553C21.4118 11.0168 21.5272 11.4784 21.7579 11.8245C21.9887 12.286 22.2195 12.7476 22.5656 13.2091C22.9118 13.786 23.3733 14.363 23.8349 15.0553C24.8733 16.2091 25.681 17.4784 26.1426 18.7476C26.7195 19.9014 27.0656 21.4014 27.0656 23.0053C27.0656 23.8014 26.9503 24.5745 26.7195 25.3245C26.9503 25.3245 27.0656 25.4168 27.181 25.5784C27.2964 25.7399 27.4118 26.0861 27.5272 26.6284L27.6426 27.4822C27.7579 27.7361 27.8733 27.9784 28.2195 28.1861C28.4503 28.3937 28.681 28.5668 29.0272 28.7053C29.2579 28.8207 29.6041 28.9822 29.8349 29.1899C30.0656 29.4207 30.181 29.663 30.181 29.9168C30.181 30.3091 30.0656 30.5976 29.8349 30.8053C29.6041 31.0361 29.3733 31.1976 29.0272 31.3014C28.7964 31.4168 28.3349 31.6476 27.6426 31.973C27.0656 32.3145 26.4887 32.7287 25.9118 33.2191L24.7579 34.201C24.2964 34.6511 23.8349 34.9741 23.4887 35.1703C23.1426 35.378 22.681 35.4818 22.2195 35.4818L21.4118 35.3895C20.4887 35.1472 19.9118 34.6857 19.5656 33.9818C17.7195 33.758 16.2195 33.6472 15.2964 33.6472" fill="black"/>
</g>
<defs>
<clipPath id="clip0_1186_6688">
<rect width="30.6923" height="36" fill="white"/>
</clipPath>
</defs>
</svg>
