<svg width="160" height="160" viewBox="0 0 160 160" fill="none" xmlns="http://www.w3.org/2000/svg">
<rect y="0.000610352" width="160" height="160" rx="80" fill="url(#paint0_linear_70_1706)"/>
<g clip-path="url(#clip0_70_1706)">
<path fill-rule="evenodd" clip-rule="evenodd" d="M77.9092 53.4141C70.0265 59.7341 65.0025 69.2967 65.0025 80.0007C65.0025 90.7047 70.0265 100.267 77.9092 106.587C72.4575 110.136 66.0889 112.018 59.5838 112.001C41.4025 112.001 26.6665 97.6754 26.6665 80.0007C26.6665 62.3261 41.4025 48.0007 59.5838 48.0007C66.3678 48.0007 72.6718 49.9954 77.9092 53.4141ZM82.0905 106.587C89.9732 100.267 94.9972 90.7047 94.9972 80.0007C94.9972 69.2967 89.9732 59.7341 82.0905 53.4141C87.5421 49.8651 93.9108 47.9838 100.416 48.0007C118.597 48.0007 133.333 62.3261 133.333 80.0007C133.333 97.6754 118.597 112.001 100.416 112.001C93.9108 112.018 87.5421 110.136 82.0905 106.587ZM79.9998 54.8967C87.6158 60.7634 92.5012 69.8301 92.5012 80.0007C92.5012 90.1767 87.6158 99.2434 79.9998 105.105C72.3838 99.2381 67.4985 90.1714 67.4985 80.0007C67.4985 69.8247 72.3838 60.7581 79.9998 54.8967Z" fill="white"/>
</g>
<defs>
<linearGradient id="paint0_linear_70_1706" x1="-3.51369e-07" y1="77.2006" x2="160" y2="80.0006" gradientUnits="userSpaceOnUse">
<stop stop-color="#EB001B"/>
<stop offset="0.498325" stop-color="#FF5F00"/>
<stop offset="1" stop-color="#F79E1B"/>
</linearGradient>
<clipPath id="clip0_70_1706">
<rect width="106.667" height="64" fill="white" transform="translate(26.6665 48.0006)"/>
</clipPath>
</defs>
</svg>
