<svg width="26" height="25" viewBox="0 0 26 25" fill="none" xmlns="http://www.w3.org/2000/svg">
<path d="M18.3333 7.16658C18.3333 4.22107 15.9455 1.83325 13 1.83325C10.0545 1.83325 7.66667 4.22107 7.66667 7.16658M25 11.4332V18.8999C25 20.3933 25.0003 21.1402 24.7096 21.7106C24.454 22.2124 24.0455 22.6202 23.5437 22.8759C22.9733 23.1665 22.2271 23.1666 20.7336 23.1666H5.26693C3.77345 23.1666 3.02616 23.1665 2.45573 22.8759C1.95396 22.6202 1.54631 22.2124 1.29065 21.7106C1 21.1402 1 20.3933 1 18.8999V11.4332C1 9.93971 1 9.19307 1.29065 8.62264C1.54631 8.12087 1.95396 7.7129 2.45573 7.45723C3.02616 7.16659 3.77345 7.16658 5.26693 7.16658H20.7336C22.2271 7.16658 22.9733 7.16659 23.5437 7.45723C24.0455 7.7129 24.454 8.12087 24.7096 8.62264C25.0003 9.19307 25 9.93971 25 11.4332Z" stroke="#4E9AA5" stroke-width="2" stroke-linecap="round" stroke-linejoin="round"/>
</svg>
