<svg width="161" height="150" viewBox="0 0 161 150" fill="none" xmlns="http://www.w3.org/2000/svg">
<rect x="-27.9541" y="0.000610352" width="217.241" height="150" rx="4" fill="#F59C00"/>
<path d="M100.756 95.6845C101.735 95.6845 102.958 96.1738 104.181 97.1522C106.138 98.8646 106.872 100.822 105.893 102.289C105.404 103.023 104.181 103.512 103.203 103.512C101.979 103.512 100.756 103.023 100.023 102.289C98.0656 100.577 97.5763 98.1307 98.7994 96.663C99.044 96.1738 99.7779 95.6845 100.756 95.6845Z" fill="white"/>
<path d="M110.786 88.1012C112.498 88.8351 113.232 91.2813 113.232 92.5044C113.477 94.4614 112.987 95.4398 112.254 95.4398C111.52 95.4398 110.541 94.706 109.563 92.9936C108.584 91.2813 108.095 89.5689 108.584 88.5904C109.318 88.1012 110.052 87.8566 110.786 88.1012Z" fill="white"/>
<path d="M77.5176 115.01C52.077 115.01 31.5288 94.4613 31.5288 69.2653C31.5288 44.0693 52.077 23.2765 77.5176 23.2765C102.958 23.2765 123.506 43.8247 123.506 69.2653C123.506 77.8271 121.06 85.8996 117.146 92.749C116.902 92.9936 116.657 92.9936 116.657 92.5043C114.945 81.2518 108.095 75.1362 98.3104 73.1793C97.332 72.9346 97.332 72.4454 98.5551 72.4454C101.735 72.2008 105.894 72.2008 108.34 72.69C108.585 71.4669 108.585 70.2438 108.585 69.2653C108.585 52.6311 94.8857 38.9323 78.2515 38.9323C61.6172 38.9323 47.9184 52.6311 47.9184 69.2653C47.9184 85.8996 61.6172 99.5984 78.2515 99.5984H79.7192C79.23 96.9075 78.9854 94.2167 79.23 91.2812C79.23 89.3243 79.7192 89.0796 80.4531 90.5474C84.6116 97.886 90.7272 104.246 102.469 106.937C112.009 109.139 121.549 111.585 132.068 124.55C133.047 125.773 131.579 126.996 130.6 126.017C120.082 116.722 110.542 113.542 101.735 113.542C90.7272 113.786 84.1224 115.01 77.5176 115.01Z" fill="white"/>
</svg>
