<svg width="69" height="21" viewBox="0 0 69 21" fill="none" xmlns="http://www.w3.org/2000/svg">
<path fill-rule="evenodd" clip-rule="evenodd" d="M12.1668 2.16762C12.1668 1.98443 12.1066 1.80631 11.9953 1.66081C11.8839 1.51532 11.7278 1.41057 11.5509 1.36275C11.3741 1.31493 11.1864 1.32672 11.0169 1.39629C10.8475 1.46587 10.7057 1.58934 10.6134 1.74762L4.78008 11.7476C4.70618 11.8743 4.66701 12.0182 4.66651 12.1648C4.66601 12.3114 4.70421 12.4556 4.77725 12.5827C4.85029 12.7099 4.95558 12.8155 5.0825 12.8889C5.20941 12.9624 5.35346 13.001 5.50008 13.001H8.83342V18.8343C8.83332 19.0175 8.8936 19.1956 9.00492 19.3411C9.11624 19.4866 9.2724 19.5913 9.44924 19.6392C9.62608 19.687 9.81375 19.6752 9.98322 19.6056C10.1527 19.536 10.2945 19.4126 10.3868 19.2543L16.2201 9.25429C16.294 9.12764 16.3332 8.98374 16.3337 8.83712C16.3342 8.69049 16.296 8.54633 16.2229 8.41918C16.1499 8.29204 16.0446 8.18642 15.9177 8.11299C15.7908 8.03956 15.6467 8.00091 15.5001 8.00095H12.1668V2.16762Z" fill="#6CD3E3"/>
<path fill-rule="evenodd" clip-rule="evenodd" d="M36.1668 2.16762C36.1668 1.98443 36.1066 1.80631 35.9953 1.66081C35.8839 1.51532 35.7278 1.41057 35.5509 1.36275C35.3741 1.31493 35.1864 1.32672 35.0169 1.39629C34.8475 1.46587 34.7057 1.58934 34.6134 1.74762L28.7801 11.7476C28.7062 11.8743 28.667 12.0182 28.6665 12.1648C28.666 12.3114 28.7042 12.4556 28.7772 12.5827C28.8503 12.7099 28.9556 12.8155 29.0825 12.8889C29.2094 12.9624 29.3535 13.001 29.5001 13.001H32.8334V18.8343C32.8333 19.0175 32.8936 19.1956 33.0049 19.3411C33.1162 19.4866 33.2724 19.5913 33.4492 19.6392C33.6261 19.687 33.8138 19.6752 33.9832 19.6056C34.1527 19.536 34.2945 19.4126 34.3868 19.2543L40.2201 9.25429C40.294 9.12764 40.3332 8.98374 40.3337 8.83712C40.3342 8.69049 40.296 8.54633 40.2229 8.41918C40.1499 8.29204 40.0446 8.18642 39.9177 8.11299C39.7908 8.03956 39.6467 8.00091 39.5001 8.00095H36.1668V2.16762Z" fill="#6CD3E3"/>
<path fill-rule="evenodd" clip-rule="evenodd" d="M60.1668 2.16762C60.1668 1.98443 60.1066 1.80631 59.9953 1.66081C59.8839 1.51532 59.7278 1.41057 59.5509 1.36275C59.3741 1.31493 59.1864 1.32672 59.0169 1.39629C58.8475 1.46587 58.7057 1.58934 58.6134 1.74762L52.7801 11.7476C52.7062 11.8743 52.667 12.0182 52.6665 12.1648C52.666 12.3114 52.7042 12.4556 52.7772 12.5827C52.8503 12.7099 52.9556 12.8155 53.0825 12.8889C53.2094 12.9624 53.3535 13.001 53.5001 13.001H56.8334V18.8343C56.8333 19.0175 56.8936 19.1956 57.0049 19.3411C57.1162 19.4866 57.2724 19.5913 57.4492 19.6392C57.6261 19.687 57.8138 19.6752 57.9832 19.6056C58.1527 19.536 58.2945 19.4126 58.3868 19.2543L64.2201 9.25429C64.294 9.12764 64.3332 8.98374 64.3337 8.83712C64.3342 8.69049 64.296 8.54633 64.2229 8.41918C64.1499 8.29204 64.0446 8.18642 63.9177 8.11299C63.7908 8.03956 63.6467 8.00091 63.5001 8.00095H60.1668V2.16762Z" fill="#6CD3E3"/>
</svg>
