<svg width="68" height="21" viewBox="0 0 68 21" fill="none" xmlns="http://www.w3.org/2000/svg">
<path d="M5.93631 16.0853L5.31161 15.3045L5.93631 16.0853ZM4.66634 17.1013L4.04165 16.3204L4.04165 16.3204L4.66634 17.1013ZM2.68166 4.74438L3.57266 5.19838L2.68166 4.74438ZM3.40983 4.01601L3.86382 4.90701L3.40983 4.01601ZM3.33415 17.9338L3.33307 16.9338L3.33415 17.9338ZM2.68205 17.6204L3.46359 16.9965H3.46359L2.68205 17.6204ZM6.9161 15.535L7.11714 16.5146L7.11714 16.5146L6.9161 15.535ZM6.4931 15.6835L6.03815 14.793L6.4931 15.6835ZM17.3185 14.591L16.4275 14.1371L17.3185 14.591ZM16.5898 15.3193L16.1358 14.4283L16.5898 15.3193ZM17.3185 4.74438L16.4275 5.19838L17.3185 4.74438ZM16.5898 4.01601L17.0438 3.125L16.5898 4.01601ZM7.5 8.66768C6.94772 8.66768 6.5 9.1154 6.5 9.66768C6.5 10.22 6.94772 10.6677 7.5 10.6677V8.66768ZM12.5 10.6677C13.0523 10.6677 13.5 10.22 13.5 9.66768C13.5 9.1154 13.0523 8.66768 12.5 8.66768V10.6677ZM16.5 6.50098V12.8343H18.5V6.50098H16.5ZM14.8334 14.501H7.60213V16.501H14.8334V14.501ZM5.31161 15.3045L4.04165 16.3204L5.29104 17.8822L6.561 16.8662L5.31161 15.3045ZM3.5 16.0601V6.50098H1.5V16.0601H3.5ZM5.16683 4.83435H14.8335V2.83435H5.16683V4.83435ZM3.5 6.50098C3.5 6.01776 3.50078 5.71551 3.51939 5.48778C3.53704 5.27173 3.56563 5.21218 3.57266 5.19838L1.79065 4.29039C1.61603 4.63311 1.55379 4.98515 1.52603 5.32491C1.49922 5.65298 1.5 6.05077 1.5 6.50098H3.5ZM5.16683 2.83435C4.71661 2.83435 4.31874 2.83357 3.99059 2.86038C3.65082 2.88813 3.29863 2.95034 2.95584 3.125L3.86382 4.90701C3.87755 4.90002 3.93715 4.8714 4.1534 4.85374C4.38126 4.83513 4.68363 4.83435 5.16683 4.83435V2.83435ZM3.57266 5.19838C3.63671 5.07268 3.73864 4.9708 3.86382 4.90701L2.95584 3.125C2.45382 3.38079 2.04618 3.78889 1.79065 4.29039L3.57266 5.19838ZM4.04165 16.3204C3.67937 16.6103 3.46106 16.7836 3.29816 16.8913C3.11977 17.0092 3.16954 16.934 3.33307 16.9338L3.33523 18.9338C3.79056 18.9334 4.1597 18.7193 4.40108 18.5597C4.65795 18.3899 4.95984 18.1471 5.29104 17.8822L4.04165 16.3204ZM1.5 16.0601C1.5 16.4842 1.49901 16.8716 1.52686 17.1782C1.55303 17.4664 1.61643 17.8884 1.9005 18.2442L3.46359 16.9965C3.56562 17.1244 3.538 17.2103 3.51866 16.9973C3.50099 16.8029 3.5 16.5241 3.5 16.0601H1.5ZM3.33307 16.9338C3.38394 16.9338 3.432 16.957 3.46359 16.9965L1.9005 18.2442C2.24875 18.6805 2.77679 18.9344 3.33523 18.9338L3.33307 16.9338ZM7.60213 14.501C7.29553 14.501 7.00334 14.4963 6.71505 14.5555L7.11714 16.5146C7.16047 16.5057 7.21534 16.501 7.60213 16.501V14.501ZM6.561 16.8662C6.86288 16.6247 6.90862 16.5942 6.94805 16.574L6.03815 14.793C5.77612 14.9269 5.55118 15.1128 5.31161 15.3045L6.561 16.8662ZM6.71505 14.5555C6.47933 14.6038 6.25179 14.6838 6.03815 14.793L6.94805 16.574C7.00187 16.5465 7.05865 16.5266 7.11714 16.5146L6.71505 14.5555ZM16.5 12.8343C16.5 13.3176 16.4993 13.6199 16.4807 13.8477C16.4631 14.0639 16.4345 14.1234 16.4275 14.1371L18.2095 15.045C18.3842 14.7022 18.4464 14.35 18.4741 14.0103C18.5008 13.6822 18.5 13.2844 18.5 12.8343H16.5ZM14.8334 16.501C15.2836 16.501 15.6814 16.5018 16.0094 16.475C16.3492 16.4472 16.7011 16.3849 17.0438 16.2103L16.1358 14.4283C16.122 14.4354 16.0624 14.464 15.8465 14.4816C15.6188 14.5002 15.3166 14.501 14.8334 14.501V16.501ZM16.4275 14.1371C16.3639 14.262 16.2618 14.3642 16.1358 14.4283L17.0438 16.2103C17.5451 15.9549 17.9536 15.5473 18.2095 15.045L16.4275 14.1371ZM18.5 6.50098C18.5 6.05087 18.5008 5.65307 18.4741 5.32506C18.4464 4.98536 18.3842 4.63322 18.2095 4.29039L16.4275 5.19838C16.4345 5.21206 16.4631 5.27152 16.4807 5.48762C16.4993 5.71542 16.5 6.01766 16.5 6.50098H18.5ZM14.8335 4.83435C15.3167 4.83435 15.6189 4.83513 15.8465 4.85373C16.0625 4.87138 16.122 4.89996 16.1358 4.90701L17.0438 3.125C16.7011 2.9504 16.3492 2.88815 16.0095 2.86038C15.6814 2.83357 15.2837 2.83435 14.8335 2.83435V4.83435ZM18.2095 4.29039C17.9537 3.78822 17.5452 3.38045 17.0438 3.125L16.1358 4.90701C16.2617 4.97114 16.3638 5.07334 16.4275 5.19838L18.2095 4.29039ZM7.5 10.6677H12.5V8.66768H7.5V10.6677Z" fill="#6CD3E3"/>
<path d="M29.9363 16.0853L29.3116 15.3045L29.9363 16.0853ZM28.6663 17.1013L28.0416 16.3204L28.0416 16.3204L28.6663 17.1013ZM26.6817 4.74438L27.5727 5.19838L26.6817 4.74438ZM27.4098 4.01601L27.8638 4.90701L27.4098 4.01601ZM27.3341 17.9338L27.3331 16.9338L27.3341 17.9338ZM26.682 17.6204L27.4636 16.9965H27.4636L26.682 17.6204ZM30.9161 15.535L31.1171 16.5146L31.1171 16.5146L30.9161 15.535ZM30.4931 15.6835L30.0381 14.793L30.4931 15.6835ZM41.3185 14.591L40.4275 14.1371L41.3185 14.591ZM40.5898 15.3193L40.1358 14.4283L40.5898 15.3193ZM41.3185 4.74438L40.4275 5.19838L41.3185 4.74438ZM40.5898 4.01601L41.0438 3.125L40.5898 4.01601ZM31.5 8.66768C30.9477 8.66768 30.5 9.1154 30.5 9.66768C30.5 10.22 30.9477 10.6677 31.5 10.6677V8.66768ZM36.5 10.6677C37.0523 10.6677 37.5 10.22 37.5 9.66768C37.5 9.1154 37.0523 8.66768 36.5 8.66768V10.6677ZM40.5 6.50098V12.8343H42.5V6.50098H40.5ZM38.8334 14.501H31.6021V16.501H38.8334V14.501ZM29.3116 15.3045L28.0416 16.3204L29.291 17.8822L30.561 16.8662L29.3116 15.3045ZM27.5 16.0601V6.50098H25.5V16.0601H27.5ZM29.1668 4.83435H38.8335V2.83435H29.1668V4.83435ZM27.5 6.50098C27.5 6.01776 27.5008 5.71551 27.5194 5.48778C27.537 5.27173 27.5656 5.21218 27.5727 5.19838L25.7906 4.29039C25.616 4.63311 25.5538 4.98515 25.526 5.32491C25.4992 5.65298 25.5 6.05077 25.5 6.50098H27.5ZM29.1668 2.83435C28.7166 2.83435 28.3187 2.83357 27.9906 2.86038C27.6508 2.88813 27.2986 2.95034 26.9558 3.125L27.8638 4.90701C27.8776 4.90002 27.9372 4.8714 28.1534 4.85374C28.3813 4.83513 28.6836 4.83435 29.1668 4.83435V2.83435ZM27.5727 5.19838C27.6367 5.07268 27.7386 4.9708 27.8638 4.90701L26.9558 3.125C26.4538 3.38079 26.0462 3.78889 25.7906 4.29039L27.5727 5.19838ZM28.0416 16.3204C27.6794 16.6103 27.4611 16.7836 27.2982 16.8913C27.1198 17.0092 27.1695 16.934 27.3331 16.9338L27.3352 18.9338C27.7906 18.9334 28.1597 18.7193 28.4011 18.5597C28.658 18.3899 28.9598 18.1471 29.291 17.8822L28.0416 16.3204ZM25.5 16.0601C25.5 16.4842 25.499 16.8716 25.5269 17.1782C25.553 17.4664 25.6164 17.8884 25.9005 18.2442L27.4636 16.9965C27.5656 17.1244 27.538 17.2103 27.5187 16.9973C27.501 16.8029 27.5 16.5241 27.5 16.0601H25.5ZM27.3331 16.9338C27.3839 16.9338 27.432 16.957 27.4636 16.9965L25.9005 18.2442C26.2487 18.6805 26.7768 18.9344 27.3352 18.9338L27.3331 16.9338ZM31.6021 14.501C31.2955 14.501 31.0033 14.4963 30.7151 14.5555L31.1171 16.5146C31.1605 16.5057 31.2153 16.501 31.6021 16.501V14.501ZM30.561 16.8662C30.8629 16.6247 30.9086 16.5942 30.9481 16.574L30.0381 14.793C29.7761 14.9269 29.5512 15.1128 29.3116 15.3045L30.561 16.8662ZM30.7151 14.5555C30.4793 14.6038 30.2518 14.6838 30.0381 14.793L30.9481 16.574C31.0019 16.5465 31.0587 16.5266 31.1171 16.5146L30.7151 14.5555ZM40.5 12.8343C40.5 13.3176 40.4993 13.6199 40.4807 13.8477C40.4631 14.0639 40.4345 14.1234 40.4275 14.1371L42.2095 15.045C42.3842 14.7022 42.4464 14.35 42.4741 14.0103C42.5008 13.6822 42.5 13.2844 42.5 12.8343H40.5ZM38.8334 16.501C39.2836 16.501 39.6814 16.5018 40.0094 16.475C40.3492 16.4472 40.7011 16.3849 41.0438 16.2103L40.1358 14.4283C40.122 14.4354 40.0624 14.464 39.8465 14.4816C39.6188 14.5002 39.3166 14.501 38.8334 14.501V16.501ZM40.4275 14.1371C40.3639 14.262 40.2618 14.3642 40.1358 14.4283L41.0438 16.2103C41.5451 15.9549 41.9536 15.5473 42.2095 15.045L40.4275 14.1371ZM42.5 6.50098C42.5 6.05087 42.5008 5.65307 42.4741 5.32506C42.4464 4.98536 42.3842 4.63322 42.2095 4.29039L40.4275 5.19838C40.4345 5.21206 40.4631 5.27152 40.4807 5.48762C40.4993 5.71542 40.5 6.01766 40.5 6.50098H42.5ZM38.8335 4.83435C39.3167 4.83435 39.6189 4.83513 39.8465 4.85373C40.0625 4.87138 40.122 4.89996 40.1358 4.90701L41.0438 3.125C40.7011 2.9504 40.3492 2.88815 40.0095 2.86038C39.6814 2.83357 39.2837 2.83435 38.8335 2.83435V4.83435ZM42.2095 4.29039C41.9537 3.78822 41.5452 3.38045 41.0438 3.125L40.1358 4.90701C40.2617 4.97114 40.3638 5.07334 40.4275 5.19838L42.2095 4.29039ZM31.5 10.6677H36.5V8.66768H31.5V10.6677Z" fill="#6CD3E3"/>
<path d="M53.9363 16.0853L53.3116 15.3045L53.9363 16.0853ZM52.6663 17.1013L52.0416 16.3204L52.0416 16.3204L52.6663 17.1013ZM50.6817 4.74438L51.5727 5.19838L50.6817 4.74438ZM51.4098 4.01601L51.8638 4.90701L51.4098 4.01601ZM51.3341 17.9338L51.3331 16.9338L51.3341 17.9338ZM50.682 17.6204L51.4636 16.9965H51.4636L50.682 17.6204ZM54.9161 15.535L55.1171 16.5146L55.1171 16.5146L54.9161 15.535ZM54.4931 15.6835L54.0381 14.793L54.4931 15.6835ZM65.3185 14.591L64.4275 14.1371L65.3185 14.591ZM64.5898 15.3193L64.1358 14.4283L64.5898 15.3193ZM65.3185 4.74438L64.4275 5.19838L65.3185 4.74438ZM64.5898 4.01601L65.0438 3.125L64.5898 4.01601ZM55.5 8.66768C54.9477 8.66768 54.5 9.1154 54.5 9.66768C54.5 10.22 54.9477 10.6677 55.5 10.6677V8.66768ZM60.5 10.6677C61.0523 10.6677 61.5 10.22 61.5 9.66768C61.5 9.1154 61.0523 8.66768 60.5 8.66768V10.6677ZM64.5 6.50098V12.8343H66.5V6.50098H64.5ZM62.8334 14.501H55.6021V16.501H62.8334V14.501ZM53.3116 15.3045L52.0416 16.3204L53.291 17.8822L54.561 16.8662L53.3116 15.3045ZM51.5 16.0601V6.50098H49.5V16.0601H51.5ZM53.1668 4.83435H62.8335V2.83435H53.1668V4.83435ZM51.5 6.50098C51.5 6.01776 51.5008 5.71551 51.5194 5.48778C51.537 5.27173 51.5656 5.21218 51.5727 5.19838L49.7906 4.29039C49.616 4.63311 49.5538 4.98515 49.526 5.32491C49.4992 5.65298 49.5 6.05077 49.5 6.50098H51.5ZM53.1668 2.83435C52.7166 2.83435 52.3187 2.83357 51.9906 2.86038C51.6508 2.88813 51.2986 2.95034 50.9558 3.125L51.8638 4.90701C51.8776 4.90002 51.9372 4.8714 52.1534 4.85374C52.3813 4.83513 52.6836 4.83435 53.1668 4.83435V2.83435ZM51.5727 5.19838C51.6367 5.07268 51.7386 4.9708 51.8638 4.90701L50.9558 3.125C50.4538 3.38079 50.0462 3.78889 49.7906 4.29039L51.5727 5.19838ZM52.0416 16.3204C51.6794 16.6103 51.4611 16.7836 51.2982 16.8913C51.1198 17.0092 51.1695 16.934 51.3331 16.9338L51.3352 18.9338C51.7906 18.9334 52.1597 18.7193 52.4011 18.5597C52.658 18.3899 52.9598 18.1471 53.291 17.8822L52.0416 16.3204ZM49.5 16.0601C49.5 16.4842 49.499 16.8716 49.5269 17.1782C49.553 17.4664 49.6164 17.8884 49.9005 18.2442L51.4636 16.9965C51.5656 17.1244 51.538 17.2103 51.5187 16.9973C51.501 16.8029 51.5 16.5241 51.5 16.0601H49.5ZM51.3331 16.9338C51.3839 16.9338 51.432 16.957 51.4636 16.9965L49.9005 18.2442C50.2487 18.6805 50.7768 18.9344 51.3352 18.9338L51.3331 16.9338ZM55.6021 14.501C55.2955 14.501 55.0033 14.4963 54.7151 14.5555L55.1171 16.5146C55.1605 16.5057 55.2153 16.501 55.6021 16.501V14.501ZM54.561 16.8662C54.8629 16.6247 54.9086 16.5942 54.9481 16.574L54.0381 14.793C53.7761 14.9269 53.5512 15.1128 53.3116 15.3045L54.561 16.8662ZM54.7151 14.5555C54.4793 14.6038 54.2518 14.6838 54.0381 14.793L54.9481 16.574C55.0019 16.5465 55.0587 16.5266 55.1171 16.5146L54.7151 14.5555ZM64.5 12.8343C64.5 13.3176 64.4993 13.6199 64.4807 13.8477C64.4631 14.0639 64.4345 14.1234 64.4275 14.1371L66.2095 15.045C66.3842 14.7022 66.4464 14.35 66.4741 14.0103C66.5008 13.6822 66.5 13.2844 66.5 12.8343H64.5ZM62.8334 16.501C63.2836 16.501 63.6814 16.5018 64.0094 16.475C64.3492 16.4472 64.7011 16.3849 65.0438 16.2103L64.1358 14.4283C64.122 14.4354 64.0624 14.464 63.8465 14.4816C63.6188 14.5002 63.3166 14.501 62.8334 14.501V16.501ZM64.4275 14.1371C64.3639 14.262 64.2618 14.3642 64.1358 14.4283L65.0438 16.2103C65.5451 15.9549 65.9536 15.5473 66.2095 15.045L64.4275 14.1371ZM66.5 6.50098C66.5 6.05087 66.5008 5.65307 66.4741 5.32506C66.4464 4.98536 66.3842 4.63322 66.2095 4.29039L64.4275 5.19838C64.4345 5.21206 64.4631 5.27152 64.4807 5.48762C64.4993 5.71542 64.5 6.01766 64.5 6.50098H66.5ZM62.8335 4.83435C63.3167 4.83435 63.6189 4.83513 63.8465 4.85373C64.0625 4.87138 64.122 4.89996 64.1358 4.90701L65.0438 3.125C64.7011 2.9504 64.3492 2.88815 64.0095 2.86038C63.6814 2.83357 63.2837 2.83435 62.8335 2.83435V4.83435ZM66.2095 4.29039C65.9537 3.78822 65.5452 3.38045 65.0438 3.125L64.1358 4.90701C64.2617 4.97114 64.3638 5.07334 64.4275 5.19838L66.2095 4.29039ZM55.5 10.6677H60.5V8.66768H55.5V10.6677Z" fill="#6CD3E3"/>
</svg>
