<svg width="69" height="21" viewBox="0 0 69 21" fill="none" xmlns="http://www.w3.org/2000/svg">
<path d="M8.96726 2.33223L10.4985 4.8491L12.0298 2.33223C12.2423 1.96973 12.6235 1.75098 13.0423 1.75098H17.161C18.0673 1.75098 18.636 2.72598 18.1985 3.51348C17.3755 4.97394 16.211 6.21342 14.8048 7.12598C14.5805 7.29817 14.3311 7.43497 14.0654 7.5316C15.6991 8.69285 16.7685 10.6279 16.7685 12.8197C16.7685 16.3716 13.9591 19.251 10.4935 19.251C7.02789 19.251 4.21851 16.3716 4.21851 12.8197C4.21851 10.626 5.29038 8.68848 6.92601 7.52848C6.66416 7.43272 6.41875 7.29694 6.19851 7.12598C4.7936 6.21178 3.62953 4.97268 2.80476 3.51348C2.36101 2.72598 2.92976 1.75098 3.83601 1.75098H7.95476C8.37351 1.75098 8.75476 1.96973 8.96726 2.33223ZM10.2916 6.3916C11.334 6.35612 12.3681 6.58739 13.296 7.06348C13.7065 7.03197 14.0988 6.88121 14.4248 6.62973L14.4435 6.61473L14.4648 6.60223C15.7857 5.74478 16.8796 4.58039 17.6529 3.20848C17.6997 3.12293 17.7235 3.02669 17.7218 2.92919C17.7202 2.8317 17.6933 2.73629 17.6437 2.65234C17.5941 2.56839 17.5235 2.49877 17.4389 2.45032C17.3543 2.40187 17.2585 2.37625 17.161 2.37598H13.0423C12.9462 2.37541 12.8518 2.40034 12.7686 2.44821C12.6853 2.49609 12.6163 2.56519 12.5685 2.64848L12.566 2.65285L10.2916 6.3916ZM6.59976 16.8197C7.10453 17.3445 7.71026 17.7618 8.38049 18.0464C9.05072 18.3311 9.7716 18.4772 10.4998 18.476C11.9685 18.476 13.356 17.8885 14.406 16.8197C16.556 14.6135 16.556 11.026 14.406 8.81973C13.8996 8.29635 13.2931 7.88018 12.6225 7.59595C11.952 7.31173 11.2312 7.16526 10.5029 7.16526C9.77461 7.16526 9.05376 7.31173 8.38324 7.59595C7.71271 7.88018 7.10619 8.29635 6.59976 8.81973C5.55557 9.88858 4.97407 11.3255 4.98101 12.8197C4.98101 14.3322 5.55601 15.751 6.59976 16.8197Z" fill="#6CD3E3"/>
<ellipse cx="10.5" cy="12.6885" rx="5.625" ry="5.9375" fill="#6CD3E3"/>
<path d="M32.9673 2.33223L34.4985 4.8491L36.0298 2.33223C36.2423 1.96973 36.6235 1.75098 37.0423 1.75098H41.161C42.0673 1.75098 42.636 2.72598 42.1985 3.51348C41.3755 4.97394 40.211 6.21342 38.8048 7.12598C38.5805 7.29817 38.3311 7.43497 38.0654 7.5316C39.6991 8.69285 40.7685 10.6279 40.7685 12.8197C40.7685 16.3716 37.9591 19.251 34.4935 19.251C31.0279 19.251 28.2185 16.3716 28.2185 12.8197C28.2185 10.626 29.2904 8.68848 30.926 7.52848C30.6642 7.43272 30.4187 7.29694 30.1985 7.12598C28.7936 6.21178 27.6295 4.97268 26.8048 3.51348C26.361 2.72598 26.9298 1.75098 27.836 1.75098H31.9548C32.3735 1.75098 32.7548 1.96973 32.9673 2.33223ZM34.2916 6.3916C35.334 6.35612 36.3681 6.58739 37.296 7.06348C37.7065 7.03197 38.0988 6.88121 38.4248 6.62973L38.4435 6.61473L38.4648 6.60223C39.7857 5.74478 40.8796 4.58039 41.6529 3.20848C41.6997 3.12293 41.7235 3.02669 41.7218 2.92919C41.7202 2.8317 41.6933 2.73629 41.6437 2.65234C41.5941 2.56839 41.5235 2.49877 41.4389 2.45032C41.3543 2.40187 41.2585 2.37625 41.161 2.37598H37.0423C36.9462 2.37541 36.8518 2.40034 36.7686 2.44821C36.6853 2.49609 36.6163 2.56519 36.5685 2.64848L36.566 2.65285L34.2916 6.3916ZM30.5998 16.8197C31.1045 17.3445 31.7103 17.7618 32.3805 18.0464C33.0507 18.3311 33.7716 18.4772 34.4998 18.476C35.9685 18.476 37.356 17.8885 38.406 16.8197C40.556 14.6135 40.556 11.026 38.406 8.81973C37.8996 8.29635 37.2931 7.88018 36.6225 7.59595C35.952 7.31173 35.2312 7.16526 34.5029 7.16526C33.7746 7.16526 33.0538 7.31173 32.3832 7.59595C31.7127 7.88018 31.1062 8.29635 30.5998 8.81973C29.5556 9.88858 28.9741 11.3255 28.981 12.8197C28.981 14.3322 29.556 15.751 30.5998 16.8197Z" fill="#6CD3E3"/>
<ellipse cx="34.5" cy="12.6885" rx="5.625" ry="5.9375" fill="#6CD3E3"/>
<path d="M56.9673 2.33223L58.4985 4.8491L60.0298 2.33223C60.2423 1.96973 60.6235 1.75098 61.0423 1.75098H65.161C66.0673 1.75098 66.636 2.72598 66.1985 3.51348C65.3755 4.97394 64.211 6.21342 62.8048 7.12598C62.5805 7.29817 62.3311 7.43497 62.0654 7.5316C63.6991 8.69285 64.7685 10.6279 64.7685 12.8197C64.7685 16.3716 61.9591 19.251 58.4935 19.251C55.0279 19.251 52.2185 16.3716 52.2185 12.8197C52.2185 10.626 53.2904 8.68848 54.926 7.52848C54.6642 7.43272 54.4187 7.29694 54.1985 7.12598C52.7936 6.21178 51.6295 4.97268 50.8048 3.51348C50.361 2.72598 50.9298 1.75098 51.836 1.75098H55.9548C56.3735 1.75098 56.7548 1.96973 56.9673 2.33223ZM58.2916 6.3916C59.334 6.35612 60.3681 6.58739 61.296 7.06348C61.7065 7.03197 62.0988 6.88121 62.4248 6.62973L62.4435 6.61473L62.4648 6.60223C63.7857 5.74478 64.8796 4.58039 65.6529 3.20848C65.6997 3.12293 65.7235 3.02669 65.7218 2.92919C65.7202 2.8317 65.6933 2.73629 65.6437 2.65234C65.5941 2.56839 65.5235 2.49877 65.4389 2.45032C65.3543 2.40187 65.2585 2.37625 65.161 2.37598H61.0423C60.9462 2.37541 60.8518 2.40034 60.7686 2.44821C60.6853 2.49609 60.6163 2.56519 60.5685 2.64848L60.566 2.65285L58.2916 6.3916ZM54.5998 16.8197C55.1045 17.3445 55.7103 17.7618 56.3805 18.0464C57.0507 18.3311 57.7716 18.4772 58.4998 18.476C59.9685 18.476 61.356 17.8885 62.406 16.8197C64.556 14.6135 64.556 11.026 62.406 8.81973C61.8996 8.29635 61.2931 7.88018 60.6225 7.59595C59.952 7.31173 59.2312 7.16526 58.5029 7.16526C57.7746 7.16526 57.0538 7.31173 56.3832 7.59595C55.7127 7.88018 55.1062 8.29635 54.5998 8.81973C53.5556 9.88858 52.9741 11.3255 52.981 12.8197C52.981 14.3322 53.556 15.751 54.5998 16.8197Z" fill="#6CD3E3"/>
<ellipse cx="58.5" cy="12.6885" rx="5.625" ry="5.9375" fill="#6CD3E3"/>
</svg>
