<svg width="128" height="20" viewBox="0 0 128 20" fill="none" xmlns="http://www.w3.org/2000/svg">
<path d="M19.5003 9.11114L15.4762 12.756L16.6817 18.1826C16.7455 18.4663 16.7273 18.7632 16.6293 19.0362C16.5314 19.3092 16.3581 19.5462 16.1312 19.7175C15.9042 19.8889 15.6335 19.987 15.3531 19.9996C15.0727 20.0122 14.7949 19.9387 14.5545 19.7883L9.9942 16.9176L5.44368 19.7883C5.20328 19.9387 4.92551 20.0122 4.64509 19.9996C4.36467 19.987 4.09405 19.8889 3.86706 19.7175C3.64007 19.5462 3.46679 19.3092 3.36887 19.0362C3.27096 18.7632 3.25275 18.4663 3.31654 18.1826L4.5202 12.7616L0.495223 9.11114C0.282338 8.92058 0.1284 8.66903 0.052713 8.38804C-0.022974 8.10705 -0.0170404 7.80911 0.0697694 7.53161C0.156579 7.2541 0.320401 7.00937 0.540691 6.8281C0.760981 6.64684 1.02793 6.53711 1.30807 6.51268L6.61344 6.03577L8.68437 0.909234C8.79251 0.640235 8.97493 0.410459 9.20864 0.248838C9.44236 0.0872166 9.71692 0.000976562 9.99777 0.000976562C10.2786 0.000976562 10.5532 0.0872166 10.7869 0.248838C11.0206 0.410459 11.203 0.640235 11.3112 0.909234L13.3883 6.03577L18.6919 6.51268C18.9721 6.53711 19.239 6.64684 19.4593 6.8281C19.6796 7.00937 19.8434 7.2541 19.9302 7.53161C20.017 7.80911 20.023 8.10705 19.9473 8.38804C19.8716 8.66903 19.7177 8.92058 19.5048 9.11114H19.5003Z" fill="#6CD3E3"/>
<path d="M46.5003 9.11114L42.4762 12.756L43.6817 18.1826C43.7455 18.4663 43.7273 18.7632 43.6293 19.0362C43.5314 19.3092 43.3581 19.5462 43.1312 19.7175C42.9042 19.8889 42.6335 19.987 42.3531 19.9996C42.0727 20.0122 41.7949 19.9387 41.5545 19.7883L36.9942 16.9176L32.4437 19.7883C32.2033 19.9387 31.9255 20.0122 31.6451 19.9996C31.3647 19.987 31.094 19.8889 30.8671 19.7175C30.6401 19.5462 30.4668 19.3092 30.3689 19.0362C30.271 18.7632 30.2528 18.4663 30.3165 18.1826L31.5202 12.7616L27.4952 9.11114C27.2823 8.92058 27.1284 8.66903 27.0527 8.38804C26.977 8.10705 26.983 7.80911 27.0698 7.53161C27.1566 7.2541 27.3204 7.00937 27.5407 6.8281C27.761 6.64684 28.0279 6.53711 28.3081 6.51268L33.6134 6.03577L35.6844 0.909234C35.7925 0.640235 35.9749 0.410459 36.2086 0.248838C36.4424 0.0872166 36.7169 0.000976562 36.9978 0.000976562C37.2786 0.000976562 37.5532 0.0872166 37.7869 0.248838C38.0206 0.410459 38.203 0.640235 38.3112 0.909234L40.3883 6.03577L45.6919 6.51268C45.9721 6.53711 46.239 6.64684 46.4593 6.8281C46.6796 7.00937 46.8434 7.2541 46.9302 7.53161C47.017 7.80911 47.023 8.10705 46.9473 8.38804C46.8716 8.66903 46.7177 8.92058 46.5048 9.11114H46.5003Z" fill="#6CD3E3"/>
<path d="M73.5003 9.11114L69.4762 12.756L70.6817 18.1826C70.7455 18.4663 70.7273 18.7632 70.6293 19.0362C70.5314 19.3092 70.3581 19.5462 70.1312 19.7175C69.9042 19.8889 69.6335 19.987 69.3531 19.9996C69.0727 20.0122 68.7949 19.9387 68.5545 19.7883L63.9942 16.9176L59.4437 19.7883C59.2033 19.9387 58.9255 20.0122 58.6451 19.9996C58.3647 19.987 58.094 19.8889 57.8671 19.7175C57.6401 19.5462 57.4668 19.3092 57.3689 19.0362C57.271 18.7632 57.2528 18.4663 57.3165 18.1826L58.5202 12.7616L54.4952 9.11114C54.2823 8.92058 54.1284 8.66903 54.0527 8.38804C53.977 8.10705 53.983 7.80911 54.0698 7.53161C54.1566 7.2541 54.3204 7.00937 54.5407 6.8281C54.761 6.64684 55.0279 6.53711 55.3081 6.51268L60.6134 6.03577L62.6844 0.909234C62.7925 0.640235 62.9749 0.410459 63.2086 0.248838C63.4424 0.0872166 63.7169 0.000976562 63.9978 0.000976562C64.2786 0.000976562 64.5532 0.0872166 64.7869 0.248838C65.0206 0.410459 65.203 0.640235 65.3112 0.909234L67.3883 6.03577L72.6919 6.51268C72.9721 6.53711 73.239 6.64684 73.4593 6.8281C73.6796 7.00937 73.8434 7.2541 73.9302 7.53161C74.017 7.80911 74.023 8.10705 73.9473 8.38804C73.8716 8.66903 73.7177 8.92058 73.5048 9.11114H73.5003Z" fill="#6CD3E3"/>
<path d="M100.5 9.11114L96.4762 12.756L97.6817 18.1826C97.7455 18.4663 97.7273 18.7632 97.6293 19.0362C97.5314 19.3092 97.3581 19.5462 97.1312 19.7175C96.9042 19.8889 96.6335 19.987 96.3531 19.9996C96.0727 20.0122 95.7949 19.9387 95.5545 19.7883L90.9942 16.9176L86.4437 19.7883C86.2033 19.9387 85.9255 20.0122 85.6451 19.9996C85.3647 19.987 85.094 19.8889 84.8671 19.7175C84.6401 19.5462 84.4668 19.3092 84.3689 19.0362C84.271 18.7632 84.2528 18.4663 84.3165 18.1826L85.5202 12.7616L81.4952 9.11114C81.2823 8.92058 81.1284 8.66904 81.0527 8.38804C80.977 8.10705 80.983 7.80912 81.0698 7.53161C81.1566 7.2541 81.3204 7.00937 81.5407 6.8281C81.761 6.64684 82.0279 6.53711 82.3081 6.51268L87.6134 6.03577L89.6844 0.909234C89.7925 0.640235 89.9749 0.410459 90.2086 0.248838C90.4424 0.0872166 90.7169 0.000976562 90.9978 0.000976562C91.2786 0.000976562 91.5532 0.0872166 91.7869 0.248838C92.0206 0.410459 92.203 0.640235 92.3112 0.909234L94.3883 6.03577L99.6919 6.51268C99.9721 6.53711 100.239 6.64684 100.459 6.8281C100.68 7.00937 100.843 7.2541 100.93 7.53161C101.017 7.80912 101.023 8.10705 100.947 8.38804C100.872 8.66904 100.718 8.92058 100.505 9.11114H100.5Z" fill="#6CD3E3"/>
<path d="M108.5 9.11114L112.524 12.756L111.318 18.1826C111.255 18.4663 111.273 18.7632 111.371 19.0362C111.469 19.3092 111.642 19.5462 111.869 19.7175C112.096 19.8889 112.366 19.987 112.647 19.9996C112.927 20.0122 113.205 19.9387 113.445 19.7883L118.006 16.9176L122.556 19.7883C122.797 19.9387 123.074 20.0122 123.355 19.9996C123.635 19.987 123.906 19.8889 124.133 19.7175C124.36 19.5462 124.533 19.3092 124.631 19.0362C124.729 18.7632 124.747 18.4663 124.683 18.1826L123.48 12.7616L127.505 9.11114C127.718 8.92058 127.872 8.66903 127.947 8.38804C128.023 8.10705 128.017 7.80911 127.93 7.53161C127.843 7.2541 127.68 7.00937 127.459 6.8281C127.239 6.64684 126.972 6.53711 126.692 6.51268L121.387 6.03577L119.316 0.909234C119.207 0.640235 119.025 0.410459 118.791 0.248838C118.558 0.0872166 118.283 0.000976562 118.002 0.000976562C117.721 0.000976562 117.447 0.0872166 117.213 0.248838C116.979 0.410459 116.797 0.640235 116.689 0.909234L114.612 6.03577L109.308 6.51268C109.028 6.53711 108.761 6.64684 108.541 6.8281C108.32 7.00937 108.157 7.2541 108.07 7.53161C107.983 7.80911 107.977 8.10705 108.053 8.38804C108.128 8.66903 108.282 8.92058 108.495 9.11114H108.5Z" fill="url(#paint0_linear_70_1728)"/>
<defs>
<linearGradient id="paint0_linear_70_1728" x1="108.013" y1="10.3726" x2="128" y2="10.3726" gradientUnits="userSpaceOnUse">
<stop offset="0.493897" stop-color="#6CD3E3"/>
<stop offset="0.503026" stop-color="#D8D8D8"/>
</linearGradient>
</defs>
</svg>
