<svg width="46" height="45" viewBox="0 0 46 45" fill="none" xmlns="http://www.w3.org/2000/svg">
<g id="Group">
<g id="Group_2">
<g id="Group_3" opacity="0.4">
<path id="Vector" d="M43.3516 28.7281C46.1836 30.3601 46.1836 33.0001 43.3996 34.6321L28.1836 43.4641C25.3996 45.0961 20.8396 45.0961 18.0076 43.4641L2.64762 34.6321C-0.184383 33.0001 -0.184383 30.3601 2.59962 28.7281L17.8156 19.8961C20.5996 18.2641 25.1596 18.2641 27.9916 19.8961L43.3516 28.7281Z" fill="#00357C" fill-opacity="0.4"/>
</g>
<g id="Group_4">
<path id="Vector_2" d="M45.4632 27.1921H0.535156V28.7761C0.535156 29.8321 1.25516 30.8881 2.64716 31.7041L17.9592 40.5361C20.7912 42.1681 25.3512 42.1681 28.1352 40.5361L43.3512 31.7041C44.7432 30.8881 45.4632 29.8321 45.4632 28.7761V27.1921Z" fill="url(#paint0_linear_2103_7680)"/>
<g id="Group_5">
<path id="Vector_3" d="M43.3516 24.2162C46.1836 25.8482 46.1836 28.4882 43.3996 30.1202L28.1836 38.9522C25.3996 40.5842 20.8396 40.5842 18.0076 38.9522L2.64762 30.1202C-0.184383 28.4882 -0.184383 25.8482 2.59962 24.2162L17.8156 15.3842C20.5996 13.7522 25.1596 13.7522 27.9916 15.3842L43.3516 24.2162Z" fill="#F3F8FE"/>
</g>
</g>
</g>
<g id="Group_6">
<path id="Vector_4" d="M37.9754 21.5281H8.02344V27.3841C8.02344 28.1041 8.50344 28.8241 9.46344 29.3521L19.6394 35.2561C21.5114 36.3601 24.5834 36.3601 26.4554 35.2561L36.6314 29.3521C37.5434 28.8241 38.0234 28.1041 38.0234 27.3841V21.5281H37.9754Z" fill="url(#paint1_linear_2103_7680)"/>
<path id="Vector_5" d="M32.5039 20.1842C33.7999 20.9522 33.8479 22.2002 32.5039 22.9202L25.3999 27.0482C24.1039 27.8162 21.9439 27.8162 20.6479 27.0482L13.4959 22.9202C12.1999 22.1522 12.1519 20.9522 13.4959 20.1842L20.5999 16.0562C21.8959 15.2882 24.0559 15.2882 25.3519 16.0562L32.5039 20.1842Z" fill="url(#paint2_linear_2103_7680)"/>
<path id="Vector_6" d="M39.0801 19.2241C41.2881 20.5201 41.3361 22.5841 39.1281 23.8801L27.0801 30.8881C24.8721 32.1841 21.2721 32.1841 19.0161 30.8881L6.92014 23.8801C4.71214 22.5841 4.66414 20.5201 6.92014 19.2241L18.9681 12.2161C21.1761 10.9201 24.7761 10.9201 27.0321 12.2161L39.0801 19.2241Z" stroke="#0CFFFC" stroke-width="0.5" stroke-miterlimit="10"/>
<path id="Vector_7" d="M32.5039 21.1442C33.7999 21.9122 33.8479 23.1602 32.5039 23.8802L25.3999 28.0082C24.1039 28.7762 21.9439 28.7762 20.6479 28.0082L13.4959 23.8802C12.1999 23.1122 12.1519 21.9122 13.4959 21.1442L20.5999 17.0162C21.8959 16.2482 24.0559 16.2482 25.3519 17.0162L32.5039 21.1442Z" fill="#0CFFFC"/>
<path id="Vector_8" d="M36.5837 19.608L26.3597 13.704C24.4877 12.6 21.4157 12.6 19.5917 13.704L9.41572 19.608C7.54372 20.712 7.54372 22.44 9.41572 23.544L19.6397 29.4C21.5117 30.504 24.5837 30.504 26.4557 29.4L36.6317 23.496C38.4557 22.44 38.4557 20.664 36.5837 19.608ZM32.5037 22.92L25.3997 27.048C24.1037 27.816 21.9437 27.816 20.6477 27.048L13.4957 22.92C12.1997 22.152 12.1517 20.952 13.4957 20.184L20.5997 16.056C21.8957 15.288 24.0557 15.288 25.3517 16.056L32.5037 20.184C33.7997 20.952 33.7997 22.152 32.5037 22.92Z" fill="#2185F8"/>
<g id="Group_7">
<path id="Vector_9" d="M22.9528 12.8882V13.1282C24.2008 13.1282 25.3528 13.4162 26.2168 13.8962L36.4408 19.8002C37.2568 20.2802 37.7368 20.9042 37.7368 21.5762C37.7368 22.2482 37.3048 22.8722 36.4408 23.3042L26.2648 29.2082C25.4008 29.7362 24.2488 29.9762 23.0008 29.9762C21.7528 29.9762 20.6008 29.6882 19.7368 29.2082L9.56084 23.3042C8.74484 22.8242 8.26484 22.2002 8.26484 21.5282C8.26484 20.8562 8.69684 20.2322 9.56084 19.7522L19.7368 13.8482C20.6008 13.3202 21.7528 13.0802 23.0008 13.0802V12.8882M22.9528 12.8882C21.7048 12.8882 20.5048 13.1762 19.5448 13.7042L9.36884 19.6082C7.49684 20.7122 7.49684 22.4402 9.36884 23.5442L19.6408 29.4002C20.6008 29.9282 21.8008 30.2162 23.0488 30.2162C24.2968 30.2162 25.4968 29.9282 26.4568 29.4002L36.6328 23.4962C38.5048 22.3922 38.5048 20.6642 36.5848 19.5602L26.3608 13.7042C25.4008 13.1282 24.2008 12.8882 22.9528 12.8882Z" fill="url(#paint3_linear_2103_7680)"/>
</g>
<path id="Vector_10" d="M35.0954 6.36011L25.9754 1.08011C24.2954 0.120107 21.6074 0.120107 19.9274 1.08011L10.8554 6.36011C10.0394 6.84011 9.60742 7.46411 9.60742 8.13611L12.4874 21.5281C12.4874 22.0081 12.8234 22.5361 13.4954 22.9201L20.6474 27.0481C21.9434 27.8161 24.1034 27.8161 25.3994 27.0481L32.5034 22.9201C33.1754 22.5361 33.4634 22.0561 33.4634 21.5281L36.3434 8.13611C36.3434 7.51211 35.9594 6.84011 35.0954 6.36011Z" fill="url(#paint4_linear_2103_7680)"/>
<g id="Group_8">
<g id="Group_9">
<path id="Vector_11" d="M14.2631 16.536C14.3427 16.536 14.4071 16.4716 14.4071 16.392C14.4071 16.3125 14.3427 16.248 14.2631 16.248C14.1836 16.248 14.1191 16.3125 14.1191 16.392C14.1191 16.4716 14.1836 16.536 14.2631 16.536Z" fill="white"/>
<path id="Vector_12" d="M27.7514 17.5441C27.831 17.5441 27.8954 17.4796 27.8954 17.4001C27.8954 17.3206 27.831 17.2561 27.7514 17.2561C27.6719 17.2561 27.6074 17.3206 27.6074 17.4001C27.6074 17.4796 27.6719 17.5441 27.7514 17.5441Z" fill="white"/>
<path id="Vector_13" d="M30.728 15.8639C30.8075 15.8639 30.872 15.7995 30.872 15.7199C30.872 15.6404 30.8075 15.5759 30.728 15.5759C30.6485 15.5759 30.584 15.6404 30.584 15.7199C30.584 15.7995 30.6485 15.8639 30.728 15.8639Z" fill="white"/>
<path id="Vector_14" d="M18.6303 21.864C18.7099 21.864 18.7743 21.7996 18.7743 21.7201C18.7743 21.6405 18.7099 21.576 18.6303 21.576C18.5508 21.576 18.4863 21.6405 18.4863 21.7201C18.4863 21.7996 18.5508 21.864 18.6303 21.864Z" fill="white"/>
<path id="Vector_15" d="M28.1831 11.112C28.2626 11.112 28.3271 11.0475 28.3271 10.968C28.3271 10.8884 28.2626 10.824 28.1831 10.824C28.1035 10.824 28.0391 10.8884 28.0391 10.968C28.0391 11.0475 28.1035 11.112 28.1831 11.112Z" fill="white"/>
<path id="Vector_16" d="M15.8471 11.256C15.9267 11.256 15.9911 11.1915 15.9911 11.112C15.9911 11.0325 15.9267 10.968 15.8471 10.968C15.7676 10.968 15.7031 11.0325 15.7031 11.112C15.7031 11.1915 15.7676 11.256 15.8471 11.256Z" fill="white"/>
<path id="Vector_17" d="M20.3588 8.08804C20.4384 8.08804 20.5028 8.02357 20.5028 7.94404C20.5028 7.86451 20.4384 7.80005 20.3588 7.80005C20.2793 7.80005 20.2148 7.86451 20.2148 7.94404C20.2148 8.02357 20.2793 8.08804 20.3588 8.08804Z" fill="white"/>
</g>
<g id="Group_10">
<path id="&#231;&#159;&#169;&#229;&#189;&#162;_32_8_" opacity="0.4" d="M13.5921 15.24H13.7841C13.8321 15.24 13.8801 15.288 13.8801 15.336V21.048C13.8801 21.096 13.8321 21.144 13.7841 21.144H13.5921C13.5441 21.144 13.4961 21.096 13.4961 21.048V15.336C13.5441 15.288 13.5441 15.24 13.5921 15.24Z" fill="url(#paint5_linear_2103_7680)"/>
<path id="&#231;&#159;&#169;&#229;&#189;&#162;_32_7_" opacity="0.4" d="M32.2151 13.272H32.4071C32.4551 13.272 32.5031 13.32 32.5031 13.368V19.08C32.5031 19.128 32.4551 19.176 32.4071 19.176H32.2151C32.1671 19.176 32.1191 19.128 32.1191 19.08V13.368C32.1191 13.32 32.1671 13.272 32.2151 13.272Z" fill="url(#paint6_linear_2103_7680)"/>
<path id="&#231;&#159;&#169;&#229;&#189;&#162;_32_6_" opacity="0.4" d="M19.2073 17.1121H19.3993C19.4473 17.1121 19.4953 17.1601 19.4953 17.2081V22.9201C19.4953 22.9681 19.4473 23.0161 19.3993 23.0161H19.2073C19.1593 23.0161 19.1113 22.9681 19.1113 22.9201V17.2081C19.1113 17.1601 19.1593 17.1121 19.2073 17.1121Z" fill="url(#paint7_linear_2103_7680)"/>
<path id="&#231;&#159;&#169;&#229;&#189;&#162;_32_5_" opacity="0.4" d="M19.2073 9.38403H19.3993C19.4473 9.38403 19.4953 9.43204 19.4953 9.48004V15.192C19.4953 15.24 19.4473 15.288 19.3993 15.288H19.2073C19.1593 15.288 19.1113 15.24 19.1113 15.192V9.48004C19.1113 9.43204 19.1593 9.38403 19.2073 9.38403Z" fill="url(#paint8_linear_2103_7680)"/>
</g>
</g>
</g>
<g id="Group_11">
<path id="&#232;&#183;&#175;&#229;&#190;&#132;_1684_26_" d="M2.98438 6.55217C2.98438 6.93617 3.12837 7.22417 3.32037 7.32017L3.84838 7.60816C3.84838 7.60816 9.12838 3.67217 9.12838 3.00017C9.12838 3.00017 9.12838 2.76017 9.08038 2.61617C9.17638 2.56817 9.32037 2.52017 9.32037 2.52017C9.22438 2.47217 8.93638 2.28017 8.79238 2.23217C8.60038 2.18417 8.26438 2.28016 8.16838 2.32816C8.16838 2.18416 8.12038 2.04016 8.07237 1.94416L8.31238 1.89617L7.83238 1.60816C7.64038 1.51216 7.40037 1.51217 7.16038 1.65617C7.01638 1.75217 6.92037 1.84816 6.82437 1.94416C6.82437 1.94416 6.58438 1.80016 6.44038 1.70416C6.29638 1.60816 6.15238 1.60816 6.00838 1.60816C5.96038 1.60816 5.91238 1.60816 5.86438 1.60816C5.81638 1.60816 5.81638 1.60816 5.76838 1.60816C5.62438 1.65616 5.48037 1.70417 5.33637 1.80017C4.76037 2.13617 4.23238 2.80816 3.94438 3.62416C3.75238 4.10416 3.60837 4.72816 3.65637 5.06416C3.08037 5.64016 2.98438 6.02417 2.98438 6.55217Z" fill="url(#paint9_linear_2103_7680)"/>
<path id="&#232;&#183;&#175;&#229;&#190;&#132;_1685_26_" d="M3.51172 6.88828C3.51172 7.56028 3.94372 7.89628 4.47172 7.60828C4.47172 7.60828 4.51972 7.60829 4.51972 7.56029L8.69572 5.11228C8.69572 5.11228 8.74372 5.11228 8.74372 5.06428C9.27172 4.77628 9.65572 3.96028 9.65572 3.28828C9.65572 2.61628 9.22372 2.28028 8.69572 2.56828C8.69572 2.56828 8.69572 2.56828 8.64772 2.56828C8.59972 1.84828 8.16772 1.56029 7.59172 1.89629C7.44772 1.99229 7.30372 2.13629 7.15972 2.28029C6.87172 1.84829 6.34372 1.75228 5.76772 2.08828C4.85572 2.61628 4.08772 4.05628 4.13572 5.30428C3.79972 5.73628 3.51172 6.36028 3.51172 6.88828Z" fill="white"/>
<path id="Vector_18" d="M8.7447 5.06428C9.2727 4.77628 9.6567 3.96028 9.6567 3.28828C9.6567 2.61628 9.2247 2.28028 8.6967 2.56828C8.6967 2.56828 8.6967 2.56828 8.6487 2.56828C8.6007 1.84828 8.1687 1.56029 7.5927 1.89629C7.4487 1.99229 7.3047 2.13629 7.1607 2.28029C6.8727 1.84829 6.3447 1.75228 5.7687 2.08828L5.7207 2.13629L7.9287 5.54428L8.6487 5.11228C8.6967 5.11228 8.6967 5.11228 8.7447 5.06428Z" fill="url(#paint10_linear_2103_7680)"/>
</g>
<g id="Group_12">
<path id="&#232;&#183;&#175;&#229;&#190;&#132;_1684_25_" d="M42.4382 8.42418C42.4382 8.66418 42.3422 8.80818 42.2462 8.85618L41.9582 9.04818C41.9582 9.04818 38.8382 6.74418 38.8382 6.31218C38.8382 6.31218 38.8382 6.16818 38.8862 6.07218C38.8382 6.07218 38.7422 6.02418 38.7422 6.02418C38.7902 5.97618 38.9822 5.88018 39.0302 5.83218C39.1262 5.78418 39.3662 5.83218 39.4142 5.88018C39.4142 5.78418 39.4142 5.73618 39.4622 5.64018L39.3182 5.59218L39.6062 5.40018C39.7022 5.35218 39.8462 5.35218 40.0382 5.44818C40.1342 5.49618 40.1822 5.54418 40.2302 5.64018C40.2302 5.64018 40.3742 5.54418 40.4702 5.49618C40.5662 5.44818 40.6622 5.44818 40.7582 5.44818C40.8062 5.44818 40.8062 5.44818 40.8542 5.44818H40.9022C40.9982 5.44818 41.0942 5.49618 41.1422 5.54418C41.4782 5.73618 41.8142 6.16818 41.9582 6.60018C42.0542 6.88818 42.1502 7.22418 42.1022 7.46418C42.3902 7.89618 42.4382 8.08818 42.4382 8.42418Z" fill="url(#paint11_linear_2103_7680)"/>
<path id="&#232;&#183;&#175;&#229;&#190;&#132;_1685_25_" d="M42.1031 8.6162C42.1031 9.0002 41.8631 9.19219 41.5271 9.04819C41.5271 9.04819 41.5271 9.04819 41.4791 9.04819L39.0311 7.60819C39.0311 7.60819 39.0311 7.60819 38.9831 7.60819C38.6951 7.41619 38.4551 6.9362 38.4551 6.5522C38.4551 6.1682 38.6951 5.9762 39.0311 6.1202C39.0311 5.6882 39.3191 5.49619 39.6551 5.68819C39.7511 5.73619 39.8471 5.8322 39.8951 5.8802C40.0871 5.6402 40.3751 5.54419 40.7111 5.78419C41.2391 6.12019 41.7191 6.98419 41.6711 7.70419C41.9591 7.94419 42.1031 8.3282 42.1031 8.6162Z" fill="white"/>
<path id="Vector_19" d="M39.0319 7.5601C38.7439 7.3681 38.5039 6.88809 38.5039 6.50409C38.5039 6.12009 38.7439 5.9281 39.0799 6.0721C39.0799 5.6401 39.3679 5.4481 39.7039 5.6401C39.7999 5.6881 39.8959 5.7841 39.9439 5.8321C40.1359 5.5921 40.4239 5.4961 40.7599 5.7361C40.7599 5.7361 40.7599 5.73609 40.8079 5.78409L39.5119 7.8001L39.0319 7.5601Z" fill="url(#paint12_linear_2103_7680)"/>
</g>
<g id="Group_13">
<g id="Group_14">
<path id="Vector_20" d="M6.43881 29.4001V29.7841C6.43881 29.8801 6.39081 29.9281 6.29481 30.0241C6.10281 30.1681 5.76681 30.1681 5.52681 30.0241C5.43081 29.9761 5.38281 29.8801 5.38281 29.7841V29.4001H6.43881Z" fill="url(#paint13_linear_2103_7680)"/>
<g id="Group_15">
<path id="Vector_21" d="M5.91245 29.6885C6.20405 29.6877 6.44008 29.5581 6.43963 29.399C6.43918 29.24 6.20242 29.1117 5.91081 29.1125C5.61921 29.1133 5.38318 29.243 5.38363 29.402C5.38408 29.5611 5.62084 29.6893 5.91245 29.6885Z" fill="#2185F8"/>
</g>
<g id="Group_16">
<path id="Vector_22" d="M5.91131 29.5925C6.09688 29.592 6.24706 29.5056 6.24676 29.3996C6.24646 29.2935 6.09579 29.208 5.91022 29.2085C5.72465 29.209 5.57446 29.2954 5.57476 29.4015C5.57506 29.5075 5.72574 29.593 5.91131 29.5925Z" fill="#0CFFFC"/>
</g>
</g>
<g id="Group_17">
<path id="Vector_23" d="M7.97397 30.3121V30.6961C7.97397 30.7921 7.92597 30.8401 7.82997 30.9361C7.63797 31.0801 7.30197 31.0801 7.06197 30.9361C6.96597 30.8881 6.91797 30.7921 6.91797 30.6961V30.3121H7.97397Z" fill="url(#paint14_linear_2103_7680)"/>
<g id="Group_18">
<path id="Vector_24" d="M7.4476 30.6006C7.73921 30.5998 7.97524 30.4702 7.97479 30.3111C7.97433 30.1521 7.73758 30.0238 7.44597 30.0246C7.15436 30.0255 6.91833 30.1551 6.91879 30.3141C6.91924 30.4732 7.156 30.6015 7.4476 30.6006Z" fill="#2185F8"/>
</g>
<g id="Group_19">
<path id="Vector_25" d="M7.44646 30.5046C7.63203 30.5041 7.78222 30.4177 7.78192 30.3117C7.78162 30.2056 7.63094 30.1201 7.44538 30.1206C7.25981 30.1212 7.10962 30.2075 7.10992 30.3136C7.11022 30.4196 7.2609 30.5051 7.44646 30.5046Z" fill="#FFE200"/>
</g>
</g>
</g>
<g id="Group_20">
<path id="Vector_26" d="M21.4637 3.76813C21.5117 3.76813 21.5117 3.76813 21.5597 3.76813C21.6077 3.76813 21.6557 3.76813 21.6557 3.76813H21.7037C21.7517 3.76813 21.7517 3.76813 21.7997 3.76813L23.2397 2.95214C23.2397 2.95214 23.1917 2.95214 23.1437 2.95214H23.0957C23.0477 2.95214 23.0477 2.95214 22.9997 2.95214C22.9997 2.95214 22.9517 2.95214 22.9037 2.95214C22.8557 2.95214 22.8077 2.95214 22.7597 2.95214C22.7117 2.95214 22.6637 2.95214 22.6637 2.95214C22.6157 2.95214 22.5677 2.95214 22.5197 2.95214C22.4717 2.95214 22.3757 2.95214 22.3277 2.95214C22.2797 2.95214 22.2317 2.95214 22.1357 2.95214C22.0877 2.95214 21.9917 2.95214 21.8957 2.95214C21.8477 2.95214 21.7517 2.95214 21.7037 2.95214C21.6077 2.95214 21.5597 2.95214 21.4637 2.95214C21.4157 2.95214 21.3197 2.95214 21.2717 2.95214C21.1757 2.95214 21.0797 2.95214 20.9837 2.95214C20.9357 2.95214 20.8397 2.95214 20.7917 2.95214C20.5997 2.95214 20.4557 2.90413 20.2637 2.90413C20.2157 2.90413 20.2157 2.90413 20.1677 2.90413C20.0237 2.90413 19.8797 2.85614 19.7357 2.85614C19.6877 2.85614 19.6397 2.85614 19.5917 2.85614C19.3997 2.80814 19.2077 2.80814 19.0157 2.76014C18.9677 2.76014 18.9197 2.76014 18.8717 2.71214C18.7757 2.71214 18.6797 2.66413 18.5357 2.66413C18.4877 2.66413 18.3917 2.61614 18.3437 2.61614C18.2957 2.61614 18.2477 2.56813 18.1997 2.56813C18.1037 2.52013 17.9597 2.52014 17.8637 2.47214C17.8157 2.47214 17.8157 2.47213 17.7677 2.42413C17.6237 2.37613 17.5277 2.32814 17.3837 2.28014H17.3357C17.1917 2.23214 17.0957 2.18413 16.9517 2.08813L15.5117 2.90413C15.5597 2.90413 15.6077 2.95214 15.6557 2.95214C15.7037 3.00014 15.7517 3.00014 15.7997 3.00014C15.8477 3.00014 15.8477 3.04813 15.8957 3.04813H15.9437H15.9917C16.0877 3.09613 16.1357 3.09613 16.2317 3.14413C16.2797 3.14413 16.2797 3.14414 16.3277 3.19214C16.3757 3.19214 16.3757 3.19214 16.4237 3.24014C16.4717 3.24014 16.4717 3.24013 16.5197 3.28813C16.5677 3.28813 16.6637 3.33614 16.7597 3.33614C16.8077 3.33614 16.8557 3.38413 16.9037 3.38413H16.9517C16.9997 3.38413 17.0477 3.38414 17.0957 3.43214C17.1917 3.48014 17.2877 3.48014 17.4317 3.48014H17.4797C17.5277 3.48014 17.5277 3.48014 17.5757 3.48014C17.7677 3.52814 17.9597 3.52814 18.1517 3.57614C18.1997 3.57614 18.1997 3.57614 18.2477 3.57614H18.2957C18.4397 3.57614 18.5837 3.62413 18.7277 3.62413C18.7757 3.62413 18.7757 3.62413 18.8237 3.62413C19.0157 3.62413 19.2077 3.67214 19.3517 3.67214C19.3517 3.67214 19.3517 3.67214 19.3997 3.67214C19.4477 3.67214 19.5437 3.67214 19.5917 3.67214C19.6877 3.67214 19.7837 3.67214 19.8797 3.67214C19.9277 3.67214 20.0237 3.67214 20.0717 3.67214C20.1677 3.67214 20.2637 3.67214 20.3117 3.67214C20.3597 3.67214 20.4557 3.67214 20.5037 3.67214C20.5997 3.67214 20.6477 3.67214 20.7437 3.67214C20.7917 3.67214 20.8397 3.67214 20.9357 3.67214C20.9837 3.67214 21.0797 3.67214 21.1277 3.67214H21.1757C21.2237 3.67214 21.2717 3.67214 21.3197 3.67214C21.3677 3.67214 21.4157 3.67214 21.4157 3.67214C21.3677 3.76814 21.4157 3.76813 21.4637 3.76813Z" fill="url(#paint15_linear_2103_7680)"/>
<g id="Group_21">
<path id="Vector_27" d="M21.7988 3.81611C22.0388 4.05611 26.1668 8.95211 28.1828 10.2001C28.3268 11.3041 28.1828 16.9681 26.5988 18.8401C25.4468 19.9921 22.9508 19.7041 21.7988 19.5601C21.7508 19.5601 21.7508 19.5601 21.7028 19.5121C21.6548 19.4641 21.6068 19.4161 21.6068 19.4161C20.7428 18.5521 17.8148 15.4321 16.9028 13.2241C15.4628 9.9601 15.2228 3.72011 15.4148 2.80811C17.4308 3.91211 21.5108 3.72011 21.7028 3.72011L21.7988 3.81611Z" fill="url(#paint16_linear_2103_7680)"/>
</g>
<path id="Vector_28" d="M29.4788 9.24006C29.3828 9.19206 29.3348 9.14406 29.2868 9.09606C29.2868 9.09606 29.2388 9.09605 29.2388 9.04805C29.2388 9.04805 29.2388 9.04805 29.1908 9.04805C29.1428 9.00005 29.0468 8.95205 28.9988 8.90405L28.9508 8.85606C28.8548 8.76006 28.7588 8.71206 28.6628 8.61606L28.6148 8.56805C28.4228 8.42405 28.2788 8.28005 28.0868 8.08805C27.9428 7.94405 27.7988 7.84805 27.7028 7.70405L27.6548 7.65606C27.5108 7.51206 27.4148 7.41606 27.2708 7.27206L27.2228 7.22405C26.9348 6.93605 26.6468 6.64806 26.3588 6.36006C26.0708 6.07206 25.7828 5.78406 25.5428 5.49606L25.4948 5.44805C25.3508 5.30405 25.2548 5.16006 25.1108 5.01606L25.0628 4.96805C24.9188 4.82405 24.8228 4.68005 24.7268 4.58405C24.6308 4.44005 24.4868 4.34406 24.3908 4.20006L24.3428 4.15206C24.2468 4.05606 24.1508 3.91206 24.0548 3.81606L24.0068 3.76805C23.9108 3.67205 23.8628 3.57606 23.7668 3.48006C23.7668 3.48006 23.7668 3.43206 23.7188 3.43206C23.6708 3.33606 23.5748 3.28806 23.5268 3.24006L23.4788 3.19206C23.4308 3.14406 23.3828 3.09605 23.3828 3.04805C23.3348 3.00005 23.3348 3.00006 23.3348 2.95206L23.2388 2.90405L21.7988 3.72006L21.8948 3.76805C21.8948 3.76805 21.9428 3.81605 21.9428 3.86405C21.9908 3.91205 21.9908 3.96005 22.0388 4.00805C22.0388 4.00805 22.0388 4.05606 22.0868 4.05606C22.1348 4.10406 22.1828 4.20005 22.2788 4.24805C22.2788 4.24805 22.2788 4.29606 22.3268 4.29606C22.3748 4.39206 22.4708 4.48805 22.5668 4.58405L22.6148 4.63206C22.7108 4.72806 22.8068 4.82405 22.9028 4.96805L22.9508 5.01606C23.0468 5.11206 23.1908 5.25606 23.2868 5.40006C23.3828 5.54406 23.5268 5.64005 23.6228 5.78405L23.6708 5.83206C23.8148 5.97606 23.9108 6.12005 24.0548 6.26405L24.1028 6.31206C24.3908 6.60006 24.6308 6.88806 24.9188 7.17606C25.2068 7.46406 25.4948 7.75206 25.7828 8.04006C25.7828 8.04006 25.7828 8.04005 25.8308 8.08805C25.9748 8.23205 26.0708 8.32806 26.2148 8.47206L26.2628 8.52006C26.4068 8.66406 26.5508 8.76005 26.6468 8.90405C26.8388 9.04805 26.9828 9.24005 27.1748 9.38405C27.1748 9.38405 27.2228 9.38406 27.2228 9.43206C27.3188 9.52806 27.4148 9.57606 27.5108 9.67206C27.5108 9.67206 27.5588 9.67206 27.5588 9.72006C27.6068 9.76806 27.7028 9.81605 27.7508 9.86405C27.7508 9.86405 27.7508 9.86405 27.7988 9.86405C27.7988 9.86405 27.8468 9.86406 27.8468 9.91206C27.8948 9.96006 27.9428 10.0081 27.9908 10.0081C27.9908 10.0081 28.0388 10.0081 28.0388 10.0561C28.0868 10.1041 28.1348 10.1041 28.1348 10.1041C28.1348 10.1041 28.1828 10.1041 28.1828 10.1521L29.6228 9.33606C29.5748 9.33606 29.5268 9.28806 29.4788 9.24006Z" fill="url(#paint17_linear_2103_7680)"/>
<path id="Vector_29" d="M29.7197 10.9202C29.7197 10.7762 29.7197 10.6802 29.7197 10.5842C29.7197 10.5842 29.7197 10.5842 29.7197 10.5362V10.4882C29.7197 10.4402 29.7197 10.3922 29.7197 10.2962C29.7197 10.2482 29.7197 10.2482 29.7197 10.2002C29.7197 10.1522 29.7197 10.1042 29.7197 10.0082V9.96023C29.7197 9.86423 29.7197 9.76823 29.7197 9.67223C29.7197 9.67223 29.7197 9.67223 29.7197 9.62423C29.7197 9.62423 29.7197 9.62423 29.7197 9.57623C29.7197 9.52823 29.7197 9.48023 29.7197 9.48023V9.43223C29.7197 9.43223 29.7197 9.43223 29.7197 9.38423V9.33623V9.28823V9.24023L28.2797 10.0562C28.2797 10.1042 28.2797 10.1042 28.2797 10.1522V10.2002V10.2482C28.2797 10.2962 28.2797 10.2962 28.2797 10.3442V10.3922C28.2797 10.4882 28.2797 10.5842 28.2797 10.6802V10.7282C28.2797 10.7762 28.2797 10.8242 28.2797 10.8722C28.2797 10.9202 28.2797 10.9202 28.2797 10.9682C28.2797 11.0162 28.2797 11.0642 28.2797 11.1602C28.2797 11.2082 28.2797 11.2082 28.2797 11.2562C28.2797 11.3522 28.2797 11.4962 28.2797 11.5922V11.6402C28.2797 11.7362 28.2797 11.8802 28.2797 11.9762C28.2797 12.0242 28.2797 12.0242 28.2797 12.0722C28.2797 12.2162 28.2797 12.3602 28.2797 12.5042C28.2797 12.5522 28.2797 12.5522 28.2797 12.6002C28.2797 12.7442 28.2797 12.8882 28.2317 13.0802C28.2317 13.0802 28.2317 13.0802 28.2317 13.1282C28.1837 13.4642 28.1837 13.8002 28.1357 14.1362V14.1842C28.0877 14.4722 28.0397 14.8082 27.9917 15.0962V15.1442C27.9437 15.4322 27.8957 15.6722 27.8477 15.9122V15.9602C27.7997 16.2002 27.7517 16.4402 27.6557 16.6322C27.6077 16.8242 27.5117 17.0162 27.4637 17.2082V17.2562C27.4157 17.4482 27.3197 17.5922 27.2717 17.7362V17.7842C27.1757 17.9282 27.1277 18.0722 27.0317 18.2162C27.0317 18.2162 27.0317 18.2642 26.9837 18.2642C26.8877 18.3602 26.8397 18.5042 26.7437 18.6002C26.5997 18.7442 26.4557 18.8882 26.2637 18.9842L27.7037 18.1682C27.8957 18.0722 28.0397 17.9282 28.1837 17.7842C28.2797 17.6882 28.3277 17.5922 28.4237 17.4482C28.4237 17.4482 28.4237 17.4482 28.4237 17.4002C28.5197 17.2562 28.5677 17.1122 28.6637 16.9682C28.7597 16.8242 28.8077 16.6322 28.8557 16.4882C28.8557 16.4882 28.8557 16.4882 28.8557 16.4402C28.9037 16.2482 28.9997 16.0562 29.0477 15.8642C29.0957 15.6242 29.1917 15.3842 29.2397 15.1922C29.2397 15.1922 29.2397 15.1922 29.2397 15.1442C29.2877 14.9042 29.3357 14.6162 29.3837 14.3762C29.3837 14.3762 29.3837 14.3762 29.3837 14.3282C29.4317 14.0402 29.4797 13.7042 29.5277 13.4162C29.5277 13.4162 29.5277 13.4162 29.5277 13.3682C29.5757 13.0322 29.6237 12.6962 29.6237 12.3602C29.6237 12.2162 29.6237 12.0242 29.6717 11.8802C29.6717 11.8322 29.6717 11.8322 29.6717 11.7842C29.6717 11.6402 29.6717 11.4962 29.6717 11.3522C29.6717 11.3522 29.6717 11.3522 29.6717 11.3042V11.2562C29.6717 11.1602 29.6717 11.0162 29.6717 10.9202C29.7197 10.9682 29.7197 10.9682 29.7197 10.9202Z" fill="url(#paint18_linear_2103_7680)"/>
<g id="Group_22" opacity="0.5">
<path id="Vector_30" d="M21.7995 4.58421C21.9915 4.82421 25.6875 9.19221 27.5115 10.3442C27.6555 11.3522 27.5115 16.3922 26.1195 18.0722C25.1115 19.1282 22.8555 18.8402 21.8475 18.6962C21.7995 18.6962 21.7995 18.6962 21.7515 18.6482C21.7035 18.6002 21.6555 18.6002 21.6555 18.6002C20.8875 17.8322 18.2475 15.0002 17.4315 13.0322C16.1355 10.1042 15.9435 4.48821 16.0875 3.72021C17.9115 4.68021 21.5595 4.53621 21.7515 4.53621L21.7995 4.58421Z" stroke="white" stroke-width="0.25" stroke-miterlimit="10"/>
</g>
</g>
</g>
<defs>
<linearGradient id="paint0_linear_2103_7680" x1="0.526276" y1="34.4762" x2="45.4721" y2="34.4762" gradientUnits="userSpaceOnUse">
<stop stop-color="#92A6F1"/>
<stop offset="1" stop-color="white"/>
</linearGradient>
<linearGradient id="paint1_linear_2103_7680" x1="8.00909" y1="28.8152" x2="37.9898" y2="28.8152" gradientUnits="userSpaceOnUse">
<stop offset="0.389" stop-color="#103DB5"/>
<stop offset="0.5932" stop-color="#6BABFD"/>
</linearGradient>
<linearGradient id="paint2_linear_2103_7680" x1="12.5128" y1="21.554" x2="33.4871" y2="21.554" gradientUnits="userSpaceOnUse">
<stop offset="0.389" stop-color="#103DB5"/>
<stop offset="0.5932" stop-color="#6BABFD"/>
</linearGradient>
<linearGradient id="paint3_linear_2103_7680" x1="37.8762" y1="22.9042" x2="8.12559" y2="20.2036" gradientUnits="userSpaceOnUse">
<stop stop-color="white"/>
<stop offset="1" stop-color="#4D9DF9"/>
</linearGradient>
<linearGradient id="paint4_linear_2103_7680" x1="22.9994" y1="27.5944" x2="22.9994" y2="0.387277" gradientUnits="userSpaceOnUse">
<stop stop-color="#0CFFFC" stop-opacity="0.6"/>
<stop offset="1" stop-color="white" stop-opacity="0"/>
</linearGradient>
<linearGradient id="paint5_linear_2103_7680" x1="13.7003" y1="15.8746" x2="13.7003" y2="20.6403" gradientUnits="userSpaceOnUse">
<stop offset="0.2578" stop-color="white"/>
<stop offset="1" stop-color="white" stop-opacity="0"/>
</linearGradient>
<linearGradient id="paint6_linear_2103_7680" x1="32.2989" y1="13.9066" x2="32.2989" y2="18.676" gradientUnits="userSpaceOnUse">
<stop offset="0.2578" stop-color="white"/>
<stop offset="1" stop-color="white" stop-opacity="0"/>
</linearGradient>
<linearGradient id="paint7_linear_2103_7680" x1="19.2762" y1="17.7311" x2="19.2762" y2="22.4968" gradientUnits="userSpaceOnUse">
<stop offset="0.2578" stop-color="white"/>
<stop offset="1" stop-color="white" stop-opacity="0"/>
</linearGradient>
<linearGradient id="paint8_linear_2103_7680" x1="19.2762" y1="10.0003" x2="19.2762" y2="14.7697" gradientUnits="userSpaceOnUse">
<stop offset="0.2578" stop-color="white"/>
<stop offset="1" stop-color="white" stop-opacity="0"/>
</linearGradient>
<linearGradient id="paint9_linear_2103_7680" x1="1.87649" y1="6.75592" x2="7.18471" y2="2.69004" gradientUnits="userSpaceOnUse">
<stop stop-color="#97B5E1"/>
<stop offset="1" stop-color="#ECF1FA"/>
</linearGradient>
<linearGradient id="paint10_linear_2103_7680" x1="9.95037" y1="4.7422" x2="4.95271" y2="1.91303" gradientUnits="userSpaceOnUse">
<stop stop-color="white"/>
<stop offset="1" stop-color="#C9D9F4"/>
</linearGradient>
<linearGradient id="paint11_linear_2103_7680" x1="43.0902" y1="8.54591" x2="39.9518" y2="6.14197" gradientUnits="userSpaceOnUse">
<stop stop-color="#97B5E1"/>
<stop offset="1" stop-color="#ECF1FA"/>
</linearGradient>
<linearGradient id="paint12_linear_2103_7680" x1="38.3185" y1="7.35514" x2="41.2733" y2="5.68239" gradientUnits="userSpaceOnUse">
<stop stop-color="white"/>
<stop offset="1" stop-color="#C9D9F4"/>
</linearGradient>
<linearGradient id="paint13_linear_2103_7680" x1="6.42715" y1="29.7314" x2="5.36169" y2="29.7314" gradientUnits="userSpaceOnUse">
<stop stop-color="#103DB5"/>
<stop offset="0.6426" stop-color="#6BABFD"/>
</linearGradient>
<linearGradient id="paint14_linear_2103_7680" x1="7.99408" y1="30.6443" x2="6.92858" y2="30.6443" gradientUnits="userSpaceOnUse">
<stop stop-color="#103DB5"/>
<stop offset="0.6426" stop-color="#6BABFD"/>
</linearGradient>
<linearGradient id="paint15_linear_2103_7680" x1="19.1298" y1="1.58817" x2="19.3989" y2="3.39479" gradientUnits="userSpaceOnUse">
<stop stop-color="#FF8000"/>
<stop offset="1" stop-color="#FFE46B"/>
</linearGradient>
<linearGradient id="paint16_linear_2103_7680" x1="16.1457" y1="6.98943" x2="26.6779" y2="15.6765" gradientUnits="userSpaceOnUse">
<stop stop-color="#FF8000"/>
<stop offset="1" stop-color="#FFD000"/>
</linearGradient>
<linearGradient id="paint17_linear_2103_7680" x1="24.7207" y1="2.94303" x2="26.0469" y2="7.84397" gradientUnits="userSpaceOnUse">
<stop stop-color="#FF8000"/>
<stop offset="1" stop-color="#FFEC96"/>
</linearGradient>
<linearGradient id="paint18_linear_2103_7680" x1="27.324" y1="14.0435" x2="29.169" y2="14.7738" gradientUnits="userSpaceOnUse">
<stop stop-color="#FF8000"/>
<stop offset="1" stop-color="#FFE25C"/>
</linearGradient>
</defs>
</svg>
