<svg width="46" height="47" viewBox="0 0 46 47" fill="none" xmlns="http://www.w3.org/2000/svg">
<g opacity="0.4">
<path d="M43.3524 30.7279C46.1844 32.3599 46.1844 34.9999 43.4004 36.6319L28.1845 45.4639C25.4005 47.0959 20.8405 47.0959 18.0085 45.4639L2.69644 36.6319C-0.135561 34.9999 -0.135549 32.3599 2.64845 30.7279L17.8645 21.8959C20.6485 20.2639 25.2084 20.2639 28.0404 21.8959L43.3524 30.7279Z" fill="#00357C" fill-opacity="0.4"/>
</g>
<path d="M45.4632 29.1919H0.535156V30.7759C0.535156 31.8319 1.25517 32.8879 2.64717 33.7039L17.9592 42.5359C20.7911 44.1679 25.3512 44.1679 28.1352 42.5359L43.3512 33.7039C44.7432 32.8879 45.4632 31.8319 45.4632 30.7759V29.1919Z" fill="url(#paint0_linear_1440_638)"/>
<path d="M43.3516 26.2159C46.1836 27.8479 46.1836 30.4879 43.3996 32.1199L28.1836 40.9519C25.3996 42.5839 20.8396 42.5839 18.0076 40.9519L2.64762 32.1199C-0.184382 30.4879 -0.184385 27.8479 2.59962 26.2159L17.8156 17.3839C20.5996 15.7519 25.1596 15.7519 27.9916 17.3839L43.3516 26.2159Z" fill="#F3F8FE"/>
<path d="M37.9766 22.7119H7.97656V28.5679C7.97656 29.2879 8.45656 30.0079 9.41656 30.5359L19.6406 36.4399C21.5126 37.5439 24.5846 37.5439 26.4566 36.4399L36.6326 30.5359C37.5446 30.0079 38.0246 29.2879 38.0246 28.5679V22.7119H37.9766Z" fill="url(#paint1_linear_1440_638)"/>
<path d="M36.5837 20.7918C38.4557 21.8958 38.4557 23.6238 36.6317 24.7278L26.4557 30.6318C24.5837 31.7358 21.5597 31.7358 19.6397 30.6318L9.41572 24.7278C7.54372 23.6238 7.54372 21.8958 9.41572 20.7918L19.5917 14.8878C21.4637 13.7838 24.4877 13.7838 26.3597 14.8878L36.5837 20.7918Z" fill="#BCD0F1"/>
<path d="M39.0801 20.4558C41.2881 21.7518 41.3361 23.8158 39.1281 25.1118L27.0801 32.1198C24.8721 33.4158 21.2721 33.4158 19.0161 32.1198L6.92014 25.1118C4.71214 23.8158 4.66414 21.7518 6.92014 20.4558L18.9681 13.4478C21.1761 12.1518 24.7761 12.1518 27.0321 13.4478L39.0801 20.4558Z" stroke="#0CFFFC" stroke-width="0.5" stroke-miterlimit="10"/>
<path d="M37.9766 16.856H7.97656V22.712C7.97656 23.432 8.45656 24.152 9.41656 24.68L19.6406 30.584C21.5126 31.688 24.5846 31.688 26.4566 30.584L36.6326 24.68C37.5446 24.152 38.0246 23.432 38.0246 22.712V16.856H37.9766Z" fill="url(#paint2_linear_1440_638)"/>
<path d="M36.5837 14.9359C38.4557 16.0399 38.4557 17.7679 36.6317 18.8719L26.4557 24.7759C24.5837 25.8799 21.5597 25.8799 19.6397 24.7759L9.41572 18.8719C7.54372 17.7679 7.54372 16.0399 9.41572 14.9359L19.5917 9.03186C21.4637 7.92786 24.4877 7.92786 26.3597 9.03186L36.5837 14.9359Z" fill="#2185F8"/>
<path d="M22.9528 8.21582V8.45582C24.2008 8.45582 25.3528 8.74382 26.2168 9.22382L36.4408 15.1278C37.2568 15.6078 37.7368 16.2318 37.7368 16.9038C37.7368 17.5758 37.3048 18.1998 36.4408 18.6318L26.3128 24.5358C25.4488 25.0638 24.2968 25.3038 23.0488 25.3038C21.8008 25.3038 20.6488 25.0158 19.7849 24.5358L9.56084 18.6318C8.74484 18.1518 8.26484 17.5278 8.26484 16.8558C8.26484 16.1838 8.69684 15.5598 9.56084 15.0798L19.7368 9.17582C20.6008 8.64782 21.7528 8.40782 23.0008 8.40782V8.21582M22.9528 8.21582C21.7048 8.21582 20.5048 8.50382 19.5448 9.03182L9.36884 14.9358C7.49684 16.0398 7.49684 17.7678 9.36884 18.8718L19.5928 24.7758C20.5528 25.3038 21.7528 25.5918 23.0008 25.5918C24.2488 25.5918 25.4488 25.3038 26.4088 24.7758L36.5849 18.8718C38.4569 17.7678 38.4568 16.0398 36.5368 14.9358L26.3128 9.03182C25.4008 8.45582 24.2008 8.21582 22.9528 8.21582Z" fill="url(#paint3_linear_1440_638)"/>
<path d="M22.9521 10.4239C23.9121 10.4239 24.7761 10.6159 25.4481 11.0479L33.1761 15.5119C33.8481 15.8959 34.1841 16.3759 34.1841 16.9039C34.1841 17.4319 33.8481 17.9119 33.1761 18.2959L25.4961 22.7599C24.8241 23.1439 23.9601 23.3839 23.0001 23.3839C22.0401 23.3839 21.1761 23.1919 20.5041 22.7599L12.7761 18.2959C12.1041 17.9119 11.7681 17.4319 11.7681 16.9039C11.7681 16.3759 12.1041 15.8959 12.7761 15.5119L20.4561 11.0479C21.1281 10.6639 21.9921 10.4239 22.9521 10.4239ZM22.9521 10.3279C22.0401 10.3279 21.0801 10.5199 20.4081 10.9519L12.7281 15.4159C11.2881 16.2319 11.3361 17.5759 12.7281 18.3919L20.4561 22.8559C21.1761 23.2879 22.0881 23.4799 23.0481 23.4799C23.9601 23.4799 24.9201 23.2879 25.6401 22.8559L33.3201 18.3919C34.7121 17.5759 34.7121 16.2319 33.3201 15.4159L25.5921 10.9519C24.8241 10.5199 23.9121 10.3279 22.9521 10.3279Z" fill="url(#paint4_linear_1440_638)"/>
<path d="M27.4641 25.9758C27.2241 26.1198 27.0801 26.4078 27.0801 26.6958V28.0398C27.0801 28.2798 27.2721 28.4238 27.5121 28.2798L35.2401 23.8158C35.4801 23.6718 35.6241 23.3838 35.6241 23.0958V21.7518C35.6241 21.5118 35.4321 21.3678 35.1921 21.5118L27.4641 25.9758Z" fill="#0CFFFC"/>
<path d="M27.1278 28.0399L34.8558 23.5759C35.0958 23.4319 35.2398 23.1439 35.2398 22.8559V21.5119C35.4318 21.4159 35.6238 21.5119 35.6238 21.7519V23.0959C35.6238 23.3359 35.4318 23.6719 35.2398 23.8159L27.4638 28.2799C27.2718 28.3759 27.0798 28.2799 27.1278 28.0399C27.0798 28.0399 27.0798 28.0399 27.1278 28.0399Z" fill="#1964BA"/>
<path d="M11.1424 30.1039L11.4784 29.9119C11.5264 29.8639 11.5744 29.7679 11.5744 29.6719C11.5744 29.4319 11.3824 29.1439 11.1904 28.9999C11.0944 28.9519 10.9984 28.9519 10.9024 28.9519L10.5664 29.1439L11.1424 30.1039Z" fill="url(#paint5_linear_1440_638)"/>
<path d="M11.115 30.142C11.253 30.0628 11.2472 29.7936 11.1021 29.5407C10.9571 29.2878 10.7276 29.1469 10.5896 29.226C10.4517 29.3051 10.4575 29.5743 10.6025 29.8273C10.7476 30.0802 10.977 30.2211 11.115 30.142Z" fill="#2185F8"/>
<path d="M11.0204 29.9755C11.1124 29.9228 11.1121 29.7495 11.0198 29.5886C10.9275 29.4276 10.778 29.3399 10.6861 29.3926C10.5941 29.4454 10.5944 29.6186 10.6867 29.7796C10.779 29.9406 10.9284 30.0283 11.0204 29.9755Z" fill="#0CFFFC"/>
<path d="M12.7283 31.0159L13.0644 30.8239C13.1124 30.7759 13.1603 30.6799 13.1603 30.5839C13.1603 30.3439 12.9683 30.0559 12.7763 29.9119C12.6803 29.8639 12.5843 29.8639 12.4883 29.8639L12.1523 30.0559L12.7283 31.0159Z" fill="url(#paint6_linear_1440_638)"/>
<path d="M12.6795 31.0063C12.8174 30.9272 12.8117 30.658 12.6666 30.4051C12.5215 30.1521 12.2921 30.0112 12.1541 30.0904C12.0161 30.1695 12.0219 30.4387 12.167 30.6916C12.3121 30.9446 12.5415 31.0855 12.6795 31.0063Z" fill="#2185F8"/>
<path d="M12.5848 30.8398C12.6768 30.787 12.6765 30.6138 12.5842 30.4528C12.4919 30.2919 12.3425 30.2041 12.2505 30.2569C12.1585 30.3097 12.1588 30.4829 12.2511 30.6439C12.3435 30.8048 12.4929 30.8925 12.5848 30.8398Z" fill="#FFE200"/>
<path d="M27.0792 26.6959C27.0792 26.4559 27.2713 26.1199 27.4633 25.9759L35.1912 21.5119C35.2872 21.4639 35.3833 21.4639 35.4312 21.4639L37.3512 22.0879C37.4472 22.1359 37.4952 22.2319 37.4952 22.3759V24.0559C37.4952 24.3439 37.3032 24.7279 37.0152 24.8719L28.4712 30.0079C28.2793 30.1039 28.0872 30.0079 28.0392 29.9119C27.6552 29.4319 27.1273 28.2319 27.1273 28.2319C27.1273 28.2319 27.0312 28.1839 27.0312 27.9919L27.0792 26.6959Z" fill="url(#paint7_linear_1440_638)"/>
<path d="M2.98438 8.55192C2.98438 8.93592 3.12837 9.22393 3.32037 9.31993L3.84837 9.60792C3.84837 9.60792 9.12837 5.67193 9.12837 4.99993C9.12837 4.99993 9.12837 4.75992 9.08037 4.61592C9.17637 4.56792 9.32037 4.51992 9.32037 4.51992C9.22437 4.47192 8.93638 4.27992 8.79238 4.23192C8.60038 4.18392 8.26437 4.27992 8.16837 4.32792C8.16837 4.18392 8.12038 4.03992 8.07238 3.94392L8.31238 3.89592L7.83238 3.60792C7.64038 3.51192 7.40037 3.51192 7.16037 3.65592C7.01637 3.75192 6.92038 3.84792 6.82438 3.94392C6.82438 3.94392 6.58437 3.79992 6.44037 3.70392C6.29637 3.60792 6.15237 3.60792 6.00837 3.60792C5.96037 3.60792 5.91238 3.60792 5.86438 3.60792C5.81638 3.60792 5.81637 3.60792 5.76837 3.60792C5.62437 3.65592 5.48037 3.70392 5.33637 3.79992C4.76037 4.13592 4.23238 4.80792 3.94438 5.62392C3.75238 6.10392 3.60837 6.72792 3.65637 7.06392C3.08037 7.63992 2.98438 8.02392 2.98438 8.55192Z" fill="url(#paint8_linear_1440_638)"/>
<path d="M3.51172 8.88804C3.51172 9.56004 3.94372 9.89604 4.47172 9.60804C4.47172 9.60804 4.51971 9.60804 4.51971 9.56004L8.69571 7.11204C8.69571 7.11204 8.74372 7.11204 8.74372 7.06404C9.27172 6.77604 9.65571 5.96004 9.65571 5.28804C9.65571 4.61604 9.22371 4.28004 8.69571 4.56804C8.69571 4.56804 8.69571 4.56804 8.64771 4.56804C8.59971 3.84804 8.16772 3.56004 7.59172 3.89604C7.44772 3.99204 7.30371 4.13604 7.15971 4.28004C6.87171 3.84804 6.34371 3.75204 5.76771 4.08804C4.85571 4.61604 4.08771 6.05604 4.13571 7.30404C3.79971 7.73604 3.51172 8.36004 3.51172 8.88804Z" fill="white"/>
<path d="M8.74471 7.06404C9.27271 6.77604 9.65671 5.96004 9.65671 5.28804C9.65671 4.61604 9.22471 4.28004 8.69671 4.56804C8.69671 4.56804 8.69671 4.56804 8.64871 4.56804C8.60071 3.84804 8.16871 3.56004 7.59271 3.89604C7.44871 3.99204 7.3047 4.13604 7.1607 4.28004C6.8727 3.84804 6.34471 3.75204 5.76871 4.08804L5.7207 4.13604L7.92871 7.54404L8.64871 7.11204C8.69671 7.11204 8.74471 7.11204 8.74471 7.06404Z" fill="url(#paint9_linear_1440_638)"/>
<path d="M42.4401 10.4239C42.4401 10.6639 42.3441 10.8079 42.2481 10.8559L41.9601 11.0479C41.9601 11.0479 38.8401 8.74394 38.8401 8.31194C38.8401 8.31194 38.8401 8.16794 38.8881 8.07194C38.8401 8.07194 38.7441 8.02393 38.7441 8.02393C38.7921 7.97593 38.9841 7.87994 39.0321 7.83194C39.1281 7.78394 39.3681 7.83194 39.4161 7.87994C39.4161 7.78394 39.4161 7.73594 39.4641 7.63994L39.3201 7.59194L39.6081 7.39994C39.7041 7.35194 39.8481 7.35193 40.0401 7.44793C40.1361 7.49593 40.1841 7.54394 40.2321 7.63994C40.2321 7.63994 40.3761 7.54394 40.4721 7.49594C40.5681 7.44794 40.6641 7.44793 40.7601 7.44793C40.8081 7.44793 40.8081 7.44793 40.8561 7.44793H40.9041C41.0001 7.44793 41.0961 7.49593 41.1441 7.54393C41.4801 7.73593 41.8161 8.16794 41.9601 8.59994C42.0561 8.88794 42.1521 9.22393 42.1041 9.46393C42.3921 9.89593 42.4401 10.0879 42.4401 10.4239Z" fill="url(#paint10_linear_1440_638)"/>
<path d="M42.1519 10.616C42.1519 11 41.9119 11.1919 41.5759 11.0479C41.5759 11.0479 41.5759 11.0479 41.5279 11.0479L39.0799 9.60795C39.0799 9.60795 39.0799 9.60795 39.0319 9.60795C38.7439 9.41595 38.5039 8.93595 38.5039 8.55195C38.5039 8.16795 38.7439 7.97595 39.0799 8.11995C39.0799 7.68795 39.3679 7.49595 39.7039 7.68795C39.7999 7.73595 39.8959 7.83195 39.9439 7.87995C40.1359 7.63995 40.4239 7.54395 40.7599 7.78395C41.2879 8.11995 41.7679 8.98395 41.7199 9.70395C41.9599 9.94395 42.1519 10.328 42.1519 10.616Z" fill="white"/>
<path d="M39.0319 9.55986C38.7439 9.36786 38.5039 8.88785 38.5039 8.50385C38.5039 8.11985 38.7439 7.92785 39.0799 8.07185C39.0799 7.63985 39.3679 7.44786 39.7039 7.63986C39.7999 7.68786 39.8959 7.78385 39.9439 7.83185C40.1359 7.59185 40.4239 7.49585 40.7599 7.73585C40.7599 7.73585 40.7599 7.73585 40.8079 7.78385L39.5119 9.79985L39.0319 9.55986C39.0799 9.55986 39.0799 9.55986 39.0319 9.55986Z" fill="url(#paint11_linear_1440_638)"/>
<path d="M36.5837 13.0279C38.4557 14.1319 38.4557 15.8599 36.6317 16.9639L26.4557 22.8679C24.5837 23.9719 21.5597 23.9719 19.6397 22.8679L9.41572 16.9639C7.54372 15.8599 7.54372 14.1319 9.41572 13.0279L19.5917 7.1239C21.4637 6.0199 24.4877 6.0199 26.3597 7.1239L36.5837 13.0279Z" fill="#BCD0F1"/>
<path d="M38.0234 9.13989H8.02344V14.9959C8.02344 15.7159 8.50344 16.4359 9.46344 16.9639L19.6874 22.8679C21.5594 23.9719 24.6314 23.9719 26.5034 22.8679L36.6794 16.9639C37.5914 16.4359 38.0714 15.7159 38.0714 14.9959V9.13989H38.0234Z" fill="url(#paint12_linear_1440_638)"/>
<path d="M36.5837 7.17194C38.4557 8.27594 38.4557 10.0039 36.6317 11.1079L26.4557 17.0119C24.5837 18.1159 21.5597 18.1159 19.6397 17.0119L9.41572 11.1079C7.54372 10.0039 7.54372 8.27594 9.41572 7.17194L19.5917 1.26794C21.4637 0.163941 24.4877 0.163941 26.3597 1.26794L36.5837 7.17194Z" fill="#BCD0F1"/>
<path d="M22.9517 0.451904V0.691904C24.1997 0.691904 25.3517 0.979907 26.2157 1.45991L36.4397 7.36391C37.2557 7.84391 37.7357 8.46791 37.7357 9.13991C37.7357 9.81191 37.3037 10.4359 36.4397 10.8679L26.3117 16.8199C25.4477 17.3479 24.2957 17.5879 23.0477 17.5879C21.7997 17.5879 20.6477 17.2999 19.7837 16.8199L9.55971 10.9159C8.74371 10.4359 8.26372 9.81191 8.26372 9.13991C8.26372 8.46791 8.69571 7.84391 9.55971 7.36391L19.7357 1.45991C20.5997 0.931907 21.7517 0.691904 22.9997 0.691904V0.451904M22.9517 0.451904C21.7037 0.451904 20.5037 0.73991 19.5437 1.26791L9.41572 7.1719C7.54372 8.2759 7.54372 10.0039 9.41572 11.1079L19.6397 17.0119C20.5997 17.5399 21.7997 17.8279 23.0477 17.8279C24.2957 17.8279 25.4957 17.5399 26.4557 17.0119L36.6317 11.1079C38.5037 10.0039 38.5037 8.2759 36.5837 7.1719L26.3597 1.26791C25.4477 0.73991 24.1997 0.451904 22.9517 0.451904Z" fill="url(#paint13_linear_1440_638)"/>
<g opacity="0.5">
<path d="M22.999 2.65996C23.959 2.65996 24.823 2.85196 25.495 3.28396L33.223 7.74797C33.895 8.13197 34.231 8.61196 34.231 9.13996C34.231 9.66796 33.895 10.148 33.223 10.532L25.543 14.996C24.871 15.38 24.007 15.62 23.047 15.62C22.087 15.62 21.223 15.428 20.551 14.996L12.823 10.532C12.151 10.148 11.815 9.66796 11.815 9.13996C11.815 8.61196 12.151 8.13197 12.823 7.74797L20.503 3.28396C21.175 2.89996 22.039 2.65996 22.999 2.65996ZM22.999 2.56396C22.087 2.56396 21.127 2.75597 20.455 3.18797L12.775 7.65196C11.335 8.46796 11.383 9.81197 12.775 10.628L20.503 15.092C21.223 15.524 22.135 15.716 23.095 15.716C24.007 15.716 24.967 15.524 25.687 15.092L33.367 10.628C34.759 9.81197 34.759 8.46796 33.367 7.65196L25.639 3.18797C24.823 2.75597 23.911 2.56396 22.999 2.56396Z" fill="url(#paint14_linear_1440_638)"/>
</g>
<path d="M27.4641 18.26C27.2241 18.404 27.0801 18.692 27.0801 18.98V20.324C27.0801 20.564 27.2721 20.708 27.5121 20.564L35.2401 16.1C35.4801 15.956 35.6241 15.668 35.6241 15.38V14.036C35.6241 13.796 35.4321 13.652 35.1921 13.796L27.4641 18.26Z" fill="#0CFFFC"/>
<path d="M27.1278 20.276L34.8558 15.812C35.0958 15.668 35.2398 15.38 35.2398 15.092V13.748C35.4318 13.652 35.6238 13.748 35.6238 13.988V15.332C35.6238 15.572 35.4318 15.908 35.2398 16.052L27.5118 20.516C27.2718 20.66 27.0798 20.564 27.1278 20.276C27.0798 20.276 27.0798 20.276 27.1278 20.276Z" fill="#1964BA"/>
<path d="M11.1424 16.1959L11.4784 16.0039C11.5264 15.9559 11.5744 15.8599 11.5744 15.7639C11.5744 15.5239 11.3824 15.2359 11.1904 15.0919C11.0944 15.0439 10.9984 15.0439 10.9024 15.0439L10.5664 15.2359L11.1424 16.1959Z" fill="url(#paint15_linear_1440_638)"/>
<path d="M11.0994 16.1914C11.2374 16.1123 11.2316 15.8431 11.0865 15.5901C10.9414 15.3372 10.712 15.1963 10.574 15.2754C10.4361 15.3546 10.4418 15.6237 10.5869 15.8767C10.732 16.1296 10.9614 16.2705 11.0994 16.1914Z" fill="#2185F8"/>
<path d="M11.0048 16.0247C11.0967 15.972 11.0965 15.7987 11.0041 15.6378C10.9118 15.4768 10.7624 15.3891 10.6704 15.4418C10.5785 15.4946 10.5787 15.6678 10.6711 15.8288C10.7634 15.9898 10.9128 16.0775 11.0048 16.0247Z" fill="#0CFFFC"/>
<path d="M12.7264 17.1081L13.0624 16.9161C13.1104 16.8681 13.1584 16.7721 13.1584 16.6761C13.1584 16.4361 12.9664 16.1481 12.7744 16.0041C12.6784 15.9561 12.5824 15.9561 12.4864 15.9561L12.1504 16.1481L12.7264 17.1081Z" fill="url(#paint16_linear_1440_638)"/>
<path d="M12.6873 17.0974C12.8252 17.0183 12.8195 16.7491 12.6744 16.4961C12.5293 16.2432 12.2999 16.1023 12.1619 16.1814C12.0239 16.2606 12.0297 16.5298 12.1748 16.7827C12.3199 17.0356 12.5493 17.1765 12.6873 17.0974Z" fill="#2185F8"/>
<path d="M12.5927 16.931C12.6846 16.8782 12.6844 16.705 12.592 16.544C12.4997 16.383 12.3503 16.2953 12.2583 16.3481C12.1664 16.4008 12.1666 16.5741 12.259 16.7351C12.3513 16.896 12.5007 16.9837 12.5927 16.931Z" fill="#FFE200"/>
<path d="M27.0792 18.9319C27.0792 18.6919 27.2712 18.3559 27.4632 18.2119L35.1912 13.748C35.2872 13.7 35.3833 13.7 35.4312 13.7L37.3512 14.324C37.4472 14.372 37.4952 14.4679 37.4952 14.6119V16.2919C37.4952 16.5799 37.3032 16.964 37.0152 17.108L28.4712 22.244C28.2793 22.34 28.0872 22.244 28.0392 22.148C27.6552 21.668 27.1272 20.468 27.1272 20.468C27.1272 20.468 27.0312 20.42 27.0312 20.228L27.0792 18.9319Z" fill="url(#paint17_linear_1440_638)"/>
<defs>
<linearGradient id="paint0_linear_1440_638" x1="0.528964" y1="36.4733" x2="45.4748" y2="36.4733" gradientUnits="userSpaceOnUse">
<stop stop-color="#92A6F1"/>
<stop offset="1" stop-color="white"/>
</linearGradient>
<linearGradient id="paint1_linear_1440_638" x1="8.0129" y1="30.0114" x2="37.9937" y2="30.0114" gradientUnits="userSpaceOnUse">
<stop offset="0.3375" stop-color="#97B5E1"/>
<stop offset="0.5932" stop-color="#E8F1FF"/>
</linearGradient>
<linearGradient id="paint2_linear_1440_638" x1="8.0129" y1="24.1423" x2="37.9937" y2="24.1423" gradientUnits="userSpaceOnUse">
<stop offset="0.389" stop-color="#103DB5"/>
<stop offset="0.5932" stop-color="#6BABFD"/>
</linearGradient>
<linearGradient id="paint3_linear_1440_638" x1="37.8789" y1="18.2311" x2="8.12833" y2="15.5305" gradientUnits="userSpaceOnUse">
<stop stop-color="white"/>
<stop offset="1" stop-color="#4D9DF9"/>
</linearGradient>
<linearGradient id="paint4_linear_1440_638" x1="34.269" y1="17.9036" x2="11.7367" y2="15.8582" gradientUnits="userSpaceOnUse">
<stop stop-color="white"/>
<stop offset="1" stop-color="#4D9DF9"/>
</linearGradient>
<linearGradient id="paint5_linear_1440_638" x1="11.4345" y1="29.945" x2="10.9018" y2="29.0223" gradientUnits="userSpaceOnUse">
<stop stop-color="#103DB5"/>
<stop offset="0.6426" stop-color="#6BABFD"/>
</linearGradient>
<linearGradient id="paint6_linear_1440_638" x1="13.0109" y1="30.8463" x2="12.4781" y2="29.9236" gradientUnits="userSpaceOnUse">
<stop stop-color="#103DB5"/>
<stop offset="0.6426" stop-color="#6BABFD"/>
</linearGradient>
<linearGradient id="paint7_linear_1440_638" x1="30.6284" y1="23.4574" x2="33.2712" y2="26.7101" gradientUnits="userSpaceOnUse">
<stop stop-color="#0CFFFC" stop-opacity="0.6"/>
<stop offset="1" stop-color="white" stop-opacity="0"/>
</linearGradient>
<linearGradient id="paint8_linear_1440_638" x1="1.8905" y1="8.75568" x2="7.19873" y2="4.6898" gradientUnits="userSpaceOnUse">
<stop stop-color="#97B5E1"/>
<stop offset="1" stop-color="#ECF1FA"/>
</linearGradient>
<linearGradient id="paint9_linear_1440_638" x1="9.96439" y1="6.74196" x2="4.96672" y2="3.91278" gradientUnits="userSpaceOnUse">
<stop stop-color="white"/>
<stop offset="1" stop-color="#C9D9F4"/>
</linearGradient>
<linearGradient id="paint10_linear_1440_638" x1="43.1062" y1="10.5457" x2="39.9678" y2="8.14173" gradientUnits="userSpaceOnUse">
<stop stop-color="#97B5E1"/>
<stop offset="1" stop-color="#ECF1FA"/>
</linearGradient>
<linearGradient id="paint11_linear_1440_638" x1="38.3325" y1="9.35489" x2="41.2874" y2="7.68215" gradientUnits="userSpaceOnUse">
<stop stop-color="white"/>
<stop offset="1" stop-color="#C9D9F4"/>
</linearGradient>
<linearGradient id="paint12_linear_1440_638" x1="8.0231" y1="16.404" x2="38.0039" y2="16.404" gradientUnits="userSpaceOnUse">
<stop offset="0.3375" stop-color="#97B5E1"/>
<stop offset="0.5932" stop-color="#E8F1FF"/>
</linearGradient>
<linearGradient id="paint13_linear_1440_638" x1="37.8891" y1="10.493" x2="8.13854" y2="7.79236" gradientUnits="userSpaceOnUse">
<stop stop-color="white"/>
<stop offset="1" stop-color="#C9D9F4"/>
</linearGradient>
<linearGradient id="paint14_linear_1440_638" x1="34.2792" y1="10.1654" x2="11.7469" y2="8.12001" gradientUnits="userSpaceOnUse">
<stop stop-color="white"/>
<stop offset="1" stop-color="#C9D9F4"/>
</linearGradient>
<linearGradient id="paint15_linear_1440_638" x1="11.4479" y1="16.0222" x2="10.9151" y2="15.0995" gradientUnits="userSpaceOnUse">
<stop stop-color="#103DB5"/>
<stop offset="0.6426" stop-color="#6BABFD"/>
</linearGradient>
<linearGradient id="paint16_linear_1440_638" x1="13.0223" y1="16.9236" x2="12.4895" y2="16.0009" gradientUnits="userSpaceOnUse">
<stop stop-color="#103DB5"/>
<stop offset="0.6426" stop-color="#6BABFD"/>
</linearGradient>
<linearGradient id="paint17_linear_1440_638" x1="30.6397" y1="15.7193" x2="33.2826" y2="18.972" gradientUnits="userSpaceOnUse">
<stop stop-color="#0CFFFC" stop-opacity="0.6"/>
<stop offset="1" stop-color="white" stop-opacity="0"/>
</linearGradient>
</defs>
</svg>
