<svg width="46" height="46" viewBox="0 0 46 46" fill="none" xmlns="http://www.w3.org/2000/svg">
<g id="Group">
<g id="Group_2">
<g id="Group_3" opacity="0.4">
<path id="Vector" d="M43.3525 29.7279C46.1845 31.3599 46.1844 33.9999 43.4004 35.6319L28.1845 44.4639C25.4004 46.0959 20.8404 46.0959 18.0084 44.4639L2.69645 35.6319C-0.135554 33.9999 -0.135557 31.3599 2.64844 29.7279L17.8645 20.8959C20.6485 19.2639 25.2084 19.2639 28.0404 20.8959L43.3525 29.7279Z" fill="#00357C" fill-opacity="0.4"/>
</g>
<g id="Group_4">
<path id="Vector_2" d="M45.4632 28.1919H0.535156V29.7759C0.535156 30.8319 1.25515 31.8879 2.64715 32.7039L17.9592 41.5359C20.7911 43.1679 25.3512 43.1679 28.1352 41.5359L43.3512 32.7039C44.7432 31.8879 45.4632 30.8319 45.4632 29.7759V28.1919Z" fill="url(#paint0_linear_2103_6974)"/>
<g id="Group_5">
<path id="Vector_3" d="M43.3516 25.2159C46.1836 26.8479 46.1836 29.4879 43.3996 31.1199L28.1836 39.9519C25.3996 41.5839 20.8396 41.5839 18.0076 39.9519L2.64762 31.1199C-0.184382 29.4879 -0.184385 26.8479 2.59962 25.2159L17.8156 16.3839C20.5996 14.7519 25.1596 14.7519 27.9916 16.3839L43.3516 25.2159Z" fill="#F3F8FE"/>
</g>
</g>
</g>
<g id="Group_6">
<path id="Vector_4" d="M41.9591 23.6798H4.03906V27.9518C4.03906 28.8638 4.66307 29.7758 5.81507 30.4478L18.7271 37.9358C21.1271 39.3278 24.9671 39.3278 27.3191 37.9358L40.1831 30.4478C41.3831 29.7758 41.9591 28.8638 41.9591 27.9518V23.6798Z" fill="url(#paint1_linear_2103_6974)"/>
<path id="Vector_5" d="M40.1827 21.1839C42.5827 22.5759 42.5827 24.7839 40.2307 26.1759L27.3667 33.6639C25.0147 35.0559 21.1747 35.0559 18.7747 33.6639L5.86269 26.1759C3.46269 24.7839 3.46268 22.5759 5.81468 21.1839L18.6787 13.6959C21.0307 12.3039 24.8707 12.3039 27.2707 13.6959L40.1827 21.1839Z" fill="#BCD0F1"/>
<g id="Group_7">
<path id="Vector_6" d="M22.9507 12.9277C24.5347 12.9277 26.0227 13.2637 27.1267 13.9357L40.0387 21.4237C41.0947 22.0477 41.7187 22.8637 41.7187 23.7277C41.7187 24.5917 41.1427 25.3597 40.0867 25.9837L27.2227 33.4717C26.1187 34.0957 24.6307 34.4797 23.0467 34.4797C21.4627 34.4797 19.9747 34.1437 18.8707 33.4717L5.95868 25.9837C4.90268 25.3597 4.27868 24.5437 4.27868 23.6797C4.27868 22.8157 4.85469 22.0477 5.91069 21.4237L18.7747 13.9357C19.8787 13.3117 21.3667 12.9277 22.9507 12.9277ZM22.9507 12.6877C21.4147 12.6877 19.8307 13.0237 18.6787 13.6957L5.81468 21.1837C3.46268 22.5757 3.46269 24.7837 5.86269 26.1757L18.7747 33.6637C19.9747 34.3357 21.5107 34.6717 23.0947 34.6717C24.6787 34.6717 26.2147 34.3357 27.3667 33.6637L40.2307 26.1757C42.5827 24.7837 42.5827 22.5757 40.1827 21.1837L27.2707 13.6957C26.0707 13.0237 24.4867 12.6877 22.9507 12.6877Z" fill="url(#paint2_linear_2103_6974)"/>
</g>
<g id="Group_8">
<path id="Vector_7" d="M15.4159 33.1358C15.6559 33.2798 15.7999 33.5678 15.7999 33.8558V34.5758C15.7999 34.8158 15.6079 34.9598 15.3679 34.8158L7.63985 30.3518C7.39985 30.2078 7.25586 29.9198 7.25586 29.6318V28.9118C7.25586 28.6718 7.44786 28.5278 7.68786 28.6718L15.4159 33.1358Z" fill="#0CFFFC"/>
<path id="Vector_8" d="M15.8007 34.5758L8.07269 30.1118C7.83269 29.9678 7.68868 29.6798 7.68868 29.3918V28.6718C7.49668 28.5758 7.30469 28.6718 7.30469 28.9118V29.6318C7.30469 29.8718 7.49668 30.2078 7.68868 30.3518L15.4167 34.8158C15.6567 34.9598 15.8487 34.8638 15.8007 34.5758Z" fill="#1964BA"/>
</g>
<g id="Group_9">
<path id="Vector_9" d="M36.7752 21.6639C38.6952 22.7679 38.6952 24.5439 36.8232 25.6479L26.5032 31.6479C24.5832 32.7519 21.5112 32.7519 19.5912 31.6479L9.2232 25.6479C7.3032 24.5439 7.3032 22.7679 9.2232 21.6639L19.5432 15.6639C21.4152 14.5599 24.5352 14.5599 26.4072 15.6639L36.7752 21.6639Z" stroke="#2185F8" stroke-width="0.25" stroke-miterlimit="10"/>
<path id="Vector_10" d="M35.7664 21.8079C37.5424 22.8159 37.5424 24.4959 35.7664 25.5039L26.2144 31.0719C24.4384 32.0799 21.6064 32.0799 19.8304 31.0719L10.2304 25.5039C8.45444 24.4959 8.45444 22.8159 10.2304 21.8079L19.7824 16.2399C21.5584 15.2319 24.3904 15.2319 26.1664 16.2399L35.7664 21.8079Z" stroke="#2185F8" stroke-width="0.25" stroke-miterlimit="10"/>
<path id="Vector_11" d="M34.7585 21.952C36.3905 22.912 36.3905 24.4 34.7585 25.36L25.9745 30.448C24.3425 31.408 21.7025 31.408 20.1185 30.448L11.2865 25.36C9.6545 24.4 9.6545 22.912 11.2865 21.952L20.0705 16.864C21.7025 15.904 24.2945 15.904 25.9265 16.864L34.7585 21.952Z" stroke="#2185F8" stroke-width="0.25" stroke-miterlimit="10"/>
<path id="Vector_12" d="M33.7517 22.096C35.2397 22.96 35.2397 24.352 33.7517 25.216L25.7357 29.872C24.2477 30.736 21.8477 30.736 20.3597 29.872L12.2957 25.216C10.8077 24.352 10.8077 22.96 12.2957 22.096L20.3117 17.44C21.7997 16.576 24.1997 16.576 25.6877 17.44L33.7517 22.096Z" stroke="#2185F8" stroke-width="0.25" stroke-miterlimit="10"/>
<path id="Vector_13" d="M32.744 22.2399C34.088 23.0079 34.088 24.2559 32.744 25.0719L25.448 29.2959C24.104 30.0639 21.944 30.0639 20.6 29.2959L13.256 25.0719C11.912 24.3039 11.912 23.0559 13.256 22.2399L20.5521 18.0159C21.8961 17.2479 24.056 17.2479 25.4 18.0159L32.744 22.2399Z" stroke="#2185F8" stroke-width="0.25" stroke-miterlimit="10"/>
</g>
<g id="Group_10">
<g id="Group_11">
<path id="Vector_14" d="M37.7347 30.3998L37.3987 30.2078C37.3507 30.1598 37.3027 30.0638 37.3027 29.9678C37.3027 29.7278 37.4947 29.4398 37.6867 29.2958C37.7827 29.2478 37.8787 29.2478 37.9747 29.2478L38.3107 29.4398L37.7347 30.3998Z" fill="url(#paint3_linear_2103_6974)"/>
<g id="Group_12">
<path id="Vector_15" d="M38.2428 30.0656C38.3878 29.8127 38.3936 29.5435 38.2556 29.4644C38.1177 29.3852 37.8882 29.5261 37.7432 29.7791C37.5981 30.032 37.5923 30.3012 37.7303 30.3803C37.8682 30.4595 38.0977 30.3186 38.2428 30.0656Z" fill="#2185F8"/>
</g>
<g id="Group_13">
<path id="Vector_16" d="M38.1604 30.0179C38.2527 29.8569 38.253 29.6837 38.161 29.6309C38.069 29.5782 37.9196 29.6659 37.8273 29.8268C37.735 29.9878 37.7347 30.1611 37.8267 30.2138C37.9187 30.2666 38.0681 30.1788 38.1604 30.0179Z" fill="#0CFFFC"/>
</g>
</g>
<g id="Group_14">
<path id="Vector_17" d="M36.1508 31.3118L35.8148 31.1198C35.7668 31.0718 35.7188 30.9758 35.7188 30.8798C35.7188 30.6398 35.9108 30.3518 36.1028 30.2078C36.1988 30.1598 36.2948 30.1598 36.3908 30.1598L36.7268 30.3518L36.1508 31.3118Z" fill="url(#paint4_linear_2103_6974)"/>
<g id="Group_15">
<path id="Vector_18" d="M36.6725 30.9804C36.8175 30.7275 36.8233 30.4583 36.6853 30.3792C36.5474 30.3 36.3179 30.4409 36.1728 30.6939C36.0278 30.9468 36.022 31.216 36.16 31.2951C36.2979 31.3743 36.5274 31.2334 36.6725 30.9804Z" fill="#2185F8"/>
</g>
<g id="Group_16">
<path id="Vector_19" d="M36.5901 30.9327C36.6824 30.7717 36.6827 30.5985 36.5907 30.5457C36.4987 30.493 36.3493 30.5807 36.257 30.7416C36.1647 30.9026 36.1644 31.0758 36.2564 31.1286C36.3484 31.1814 36.4978 31.0936 36.5901 30.9327Z" fill="#FFE200"/>
</g>
</g>
</g>
<path id="Vector_20" d="M15.8468 33.8559C15.8468 33.6159 15.6548 33.2799 15.4628 33.1359L7.73476 28.6719C7.63876 28.6239 7.54276 28.6239 7.49476 28.6239L5.86276 29.0559C5.76676 29.1039 5.71875 29.1999 5.71875 29.3439V30.3999C5.71875 30.6879 5.91075 31.0719 6.19875 31.2159L14.6948 36.3999C14.8868 36.4959 15.0788 36.3999 15.1268 36.3039C15.5108 35.8239 15.7508 34.8159 15.7508 34.8159C15.7508 34.8159 15.8468 34.7679 15.8468 34.5759V33.8559Z" fill="url(#paint5_linear_2103_6974)"/>
</g>
<path id="&#232;&#183;&#175;&#229;&#190;&#132;_5301_2_" opacity="0.2" d="M33.1279 21.1839C33.1279 21.1839 33.1279 21.1359 33.1759 21.1359C33.2239 21.0879 33.2239 21.0399 33.2239 20.9919C33.2239 20.9439 33.2239 20.9439 33.2719 20.8959C33.2719 20.8479 33.2719 20.7999 33.2719 20.7519C33.2719 20.7039 33.2719 20.7039 33.2719 20.6559C33.2719 20.6079 33.2719 20.5599 33.2719 20.5119C33.2239 20.2239 33.0319 19.9839 32.7919 19.8399L28.6639 17.4399C28.1359 17.1519 27.4639 17.1519 26.9359 17.4399L13.7359 24.9759C13.4959 25.1199 13.3039 25.3599 13.2559 25.6479C13.2559 25.6959 13.2559 25.7439 13.2559 25.7919C13.2559 25.8399 13.2559 25.8399 13.2559 25.8879C13.2559 25.9359 13.2559 25.9839 13.2559 26.0319C13.2559 26.0799 13.2559 26.0799 13.3039 26.1279C13.3039 26.1759 13.3519 26.2239 13.3519 26.2719C13.3519 26.2719 13.3519 26.3199 13.3999 26.3199C13.4479 26.3679 13.4959 26.4639 13.5439 26.5119C13.5439 26.5119 13.5439 26.5119 13.5919 26.5599C13.6399 26.6079 13.7359 26.6559 13.7839 26.7039L17.9119 29.1039C17.9599 29.1519 18.0559 29.1519 18.1039 29.1999C18.4399 29.3439 18.8239 29.3919 19.2079 29.2479C19.3519 29.1999 19.4959 29.1519 19.6399 29.0559L32.7439 21.5199C32.7919 21.4719 32.8879 21.4239 32.9359 21.3759C32.9359 21.3759 32.9839 21.3759 32.9839 21.3279C33.0319 21.2799 33.0799 21.2319 33.1279 21.1839Z" fill="#00357C" fill-opacity="0.4"/>
<g id="Group_17">
<path id="&#232;&#183;&#175;&#229;&#190;&#132;_5302_1_" d="M26.6468 12.8318L13.2068 20.5598C12.7268 20.8478 12.5348 21.4718 12.8228 21.9518C12.9188 22.0958 13.0628 22.2398 13.2068 22.3358L17.4308 24.7838C17.9588 25.1198 18.6308 25.1198 19.2068 24.7838L32.6468 17.0558C33.1268 16.7678 33.3188 16.1438 33.0308 15.6638C32.9348 15.5198 32.7908 15.3758 32.6468 15.2798L28.4228 12.8318C27.8468 12.4958 27.1748 12.4958 26.6468 12.8318Z" fill="#E9EDFC"/>
<path id="&#232;&#183;&#175;&#229;&#190;&#132;_5303_1_" d="M25.5899 13.648L15.2219 19.6C14.8379 19.84 14.7419 20.32 14.9339 20.656C14.9819 20.752 15.0779 20.896 15.2219 20.944L15.7019 21.232C16.1339 21.472 16.6619 21.472 17.0459 21.232L27.4139 15.28C27.7979 15.04 27.8939 14.56 27.7019 14.224C27.6539 14.128 27.5099 13.984 27.4139 13.936L26.9339 13.648C26.5499 13.408 26.0219 13.408 25.5899 13.648Z" fill="#D3DBF9"/>
<path id="&#232;&#183;&#175;&#229;&#190;&#132;_5304_1_" d="M32.6476 16.6239L19.2076 24.3519C18.6796 24.6879 18.0076 24.6879 17.4316 24.3519L13.2076 21.9039C12.9676 21.7599 12.7756 21.5199 12.7276 21.2319C12.6316 21.6639 12.8236 22.0959 13.2076 22.3359L17.4316 24.7839C17.9596 25.1199 18.6316 25.1199 19.2076 24.7839L32.6476 17.0559C33.0316 16.8159 33.2236 16.3839 33.1276 15.9519C33.0316 16.2399 32.8876 16.4799 32.6476 16.6239Z" fill="url(#paint6_linear_2103_6974)"/>
<path id="&#232;&#183;&#175;&#229;&#190;&#132;_5305_1_" d="M14.4549 7.59991L27.2709 0.20791C27.6549 -0.0320905 28.1349 0.111909 28.3749 0.49591C28.4229 0.63991 28.4709 0.73591 28.4709 0.87991V13.0239C28.4709 13.4079 28.2789 13.7919 27.8949 13.9839L15.0789 21.3759C14.6949 21.6159 14.2149 21.4719 13.9749 21.0879C13.9269 20.9439 13.8789 20.8479 13.8789 20.7039V8.55991C13.8789 8.12791 14.0709 7.79191 14.4549 7.59991Z" fill="#00357C" fill-opacity="0.4"/>
<path id="&#232;&#183;&#175;&#229;&#190;&#132;_5318_1_" d="M14.4541 7.5998L27.2701 0.2078C27.6061 0.0157999 28.0381 0.1118 28.2781 0.3998C28.0861 0.3518 27.8461 0.3518 27.6541 0.4478L14.7901 7.8398C14.4541 8.0318 14.2141 8.4158 14.2141 8.7998V20.9438C14.2141 21.1358 14.2621 21.3278 14.4061 21.4718C14.0701 21.3758 13.8301 21.0398 13.8301 20.7038V8.5598C13.8781 8.1278 14.0701 7.7918 14.4541 7.5998Z" fill="url(#paint7_linear_2103_6974)"/>
<g id="Group_18">
<g id="Group_19">
<g id="Group_20" opacity="0.9">
<path id="Vector_21" d="M17.8157 13.552C17.9117 13.504 18.0077 13.552 18.0077 13.648V16.144C18.0077 16.288 17.9117 16.432 17.8157 16.528L16.0397 17.584C15.9437 17.632 15.8477 17.584 15.8477 17.44V14.944C15.8477 14.8 15.9437 14.656 16.0397 14.56L17.8157 13.552Z" fill="white"/>
</g>
<g id="Group_21">
<path id="Vector_22" d="M18.0075 16.5759V16.7679L16.8555 17.4399V17.2479L18.0075 16.5759Z" fill="#7AB6FB"/>
</g>
<g id="Group_22">
<path id="Vector_23" d="M18.0068 16.9121V17.1041L15.7988 18.4001V18.2081L18.0068 16.9121Z" fill="#0CFFFC"/>
</g>
</g>
<g id="Group_23">
<g id="Mask group">
<mask id="mask0_2103_6974" style="mask-type:alpha" maskUnits="userSpaceOnUse" x="19" y="11" width="3" height="5">
<path id="Vector_24" d="M21.1262 11.4588C21.2222 11.4108 21.3182 11.4588 21.3182 11.5548V14.0508C21.3182 14.1948 21.2222 14.3388 21.1262 14.4348L19.3502 15.4908C19.2542 15.5388 19.1582 15.4908 19.1582 15.3468V12.8508C19.1582 12.7068 19.2542 12.5628 19.3502 12.4668L21.1262 11.4588Z" fill="white"/>
</mask>
<g mask="url(#mask0_2103_6974)">
<g id="Vector_25">
<path fill-rule="evenodd" clip-rule="evenodd" d="M17.8379 13.2693L21.6162 11.1749L22.0419 11.9429L18.2636 14.0372L17.8379 13.2693Z" fill="#151515"/>
<path fill-rule="evenodd" clip-rule="evenodd" d="M18.2636 14.0372L22.0419 11.9429L22.4676 12.7108L18.6892 14.8052L18.2636 14.0372Z" fill="#F93939"/>
<path fill-rule="evenodd" clip-rule="evenodd" d="M18.6892 14.8052L22.4676 12.7108L22.8933 13.4787L19.1149 15.5731L18.6892 14.8052Z" fill="#FFDA2C"/>
</g>
</g>
</g>
<g id="Group_24" opacity="0.9">
<path id="Vector_26" d="M21.1748 15.0879V15.2799L18.9668 16.5759V16.3839L21.1748 15.0879Z" fill="white"/>
</g>
<g id="Group_25" opacity="0.9">
<path id="Vector_27" d="M21.1754 14.752V14.944L20.0234 15.616V15.424L21.1754 14.752Z" fill="white"/>
</g>
</g>
<g id="Group_26">
<g id="Group_27">
<path id="Vector_28" d="M24.3426 12.9277V13.1197L23.1426 13.7917V13.5997L24.3426 12.9277Z" fill="#7AB6FB"/>
</g>
<g id="Group_28" opacity="0.9">
<path id="Vector_29" d="M24.1028 9.90384C24.1988 9.85584 24.2948 9.90384 24.2948 9.99984V12.4958C24.2948 12.6398 24.1988 12.7838 24.1028 12.8798L22.3268 13.9358C22.2308 13.9838 22.1348 13.9358 22.1348 13.7918V11.2958C22.1348 11.1518 22.2308 11.0078 22.3268 10.9118L24.1028 9.90384Z" fill="white"/>
</g>
<g id="Group_29">
<path id="Vector_30" d="M24.3428 13.2639V13.4559L22.1348 14.7519V14.5599L24.3428 13.2639Z" fill="#0CFFFC"/>
</g>
</g>
<g id="Group_30">
<g id="Mask group_2">
<mask id="mask1_2103_6974" style="mask-type:alpha" maskUnits="userSpaceOnUse" x="25" y="8" width="3" height="5">
<path id="Vector_31" d="M27.3664 8.09866C27.4624 8.05066 27.5584 8.09866 27.5584 8.19466V10.6907C27.5584 10.8347 27.4624 10.9787 27.3664 11.0747L25.5904 12.1307C25.4944 12.1787 25.3984 12.1307 25.3984 11.9867V9.49067C25.3984 9.34667 25.4944 9.20266 25.5904 9.10666L27.3664 8.09866Z" fill="white"/>
</mask>
<g mask="url(#mask1_2103_6974)">
<g id="Vector_32">
<path fill-rule="evenodd" clip-rule="evenodd" d="M24.0781 9.91113L27.8565 7.81676L28.2913 8.6011L24.5129 10.6955L24.0781 9.91113Z" fill="#B01923"/>
<path fill-rule="evenodd" clip-rule="evenodd" d="M24.5129 10.6955L28.2913 8.6011L28.726 9.38544L24.9477 11.4798L24.5129 10.6955Z" fill="white"/>
<path fill-rule="evenodd" clip-rule="evenodd" d="M24.9477 11.4798L28.726 9.38544L29.1608 10.1698L25.3824 12.2642L24.9477 11.4798Z" fill="#1E448D"/>
</g>
</g>
</g>
<g id="Group_31" opacity="0.9">
<g id="Group_32">
<path id="Vector_33" d="M27.5105 11.104V11.296L26.3105 11.968V11.776L27.5105 11.104Z" fill="white"/>
</g>
<g id="Group_33">
<path id="Vector_34" d="M27.5107 11.4399V11.6319L25.3027 12.9279V12.7359L27.5107 11.4399Z" fill="white"/>
</g>
</g>
</g>
</g>
<g id="Group_34">
<g id="Group_35" opacity="0.8">
<g id="Group_36">
<path id="Vector_35" d="M27.3652 3.51988C27.4132 3.47188 27.4612 3.51988 27.4612 3.56788V3.80788C27.4612 3.85588 27.4132 3.95188 27.3652 3.99988L20.2132 8.12788C20.1652 8.17588 20.1172 8.12788 20.1172 8.07988V7.83988C20.1172 7.79188 20.1652 7.69588 20.2132 7.64788L27.3652 3.51988Z" fill="white"/>
</g>
<g id="Group_37">
<path id="Vector_36" d="M22.8532 8.31982L22.9492 8.36782V8.65582L22.8532 8.79982L20.1652 10.3358L20.1172 10.2878V9.99982L20.1652 9.85582L22.8532 8.31982Z" fill="white"/>
</g>
<g id="Group_38">
<path id="Vector_37" d="M22.8532 7.45581H22.9492V7.79181L22.8532 7.88781L20.1652 9.47181L20.1172 9.42381V9.08781L20.1652 8.99181L22.8532 7.45581Z" fill="white"/>
</g>
</g>
<g id="Group_39">
<g id="Group_40">
<path id="Vector_38" d="M17.1908 9.08794C17.6228 8.84794 17.9588 9.03994 17.9588 9.51994C17.9588 9.90394 17.7668 10.3359 17.4788 10.6239C17.9588 10.4319 18.3908 10.6239 18.5828 11.0079C18.3428 11.5359 17.9588 12.0159 17.5268 12.3999C17.5268 12.3999 17.4788 12.3999 17.4788 12.4479C17.4788 12.4479 17.4788 12.4479 17.4308 12.4959L17.3828 12.5439C17.3348 12.5439 17.3348 12.5919 17.2868 12.5919C17.2388 12.5919 17.2388 12.6399 17.1908 12.6399C17.1428 12.6399 17.1428 12.6879 17.0948 12.6879C17.0468 12.6879 17.0468 12.7359 16.9988 12.7359C16.9988 12.7359 16.9508 12.7359 16.9508 12.7839H16.9028C16.9028 12.7839 16.9028 12.7839 16.8548 12.7839C16.4228 12.9279 16.0388 12.8799 15.7988 12.6399C15.9908 12.0159 16.3748 11.3439 16.9028 10.9599C16.6148 11.0079 16.4228 10.8159 16.4228 10.4319C16.4228 9.90394 16.7588 9.32794 17.1908 9.08794Z" fill="white"/>
</g>
<g id="Group_41">
<path id="Vector_39" d="M17.1901 8.55992C18.1501 7.98392 18.9661 8.46392 18.9661 9.56792C18.9661 10.5759 18.3421 11.7279 17.5261 12.3999C17.9581 12.0639 18.3421 11.5839 18.5821 11.0079C18.3901 10.5759 17.9581 10.4319 17.4781 10.6239C17.7661 10.3359 17.9581 9.90392 17.9581 9.51992C17.9581 9.03992 17.6221 8.84792 17.1901 9.08792C16.7581 9.32792 16.4221 9.90392 16.4221 10.3839C16.4221 10.7679 16.6141 10.9599 16.9021 10.9119C16.3741 11.2959 15.9901 11.9679 15.7981 12.5919C16.0381 12.8319 16.4221 12.8799 16.8541 12.7359C16.0381 13.0239 15.4141 12.5919 15.4141 11.5839C15.4141 10.4799 16.1821 9.13592 17.1901 8.55992Z" fill="#7AB6FB"/>
</g>
</g>
</g>
</g>
<path id="Vector_40" d="M36.9198 12.7359L28.7118 7.98389V8.27189L36.7758 12.9279C37.6878 13.4559 38.1678 14.1279 38.1678 14.8479C38.1678 15.5679 37.6878 16.2399 36.8238 16.7679L26.4558 22.8159C24.5838 23.9199 21.5118 23.9199 19.6398 22.8159L9.17579 16.7679C8.26379 16.2399 7.78379 15.5679 7.78379 14.8479C7.78379 14.1279 8.26379 13.4559 9.17579 12.9279L13.7358 10.2879V9.99989L9.07979 12.6879C8.11979 13.2639 7.5918 13.9839 7.5918 14.7999C7.5918 15.6159 8.11979 16.3839 9.07979 16.9119L19.5438 22.9599C20.5038 23.5359 21.7998 23.8239 23.0958 23.8239C24.3918 23.8239 25.6398 23.5359 26.6478 22.9599L37.0158 16.9119C37.9758 16.3359 38.5038 15.6159 38.5038 14.7999C38.4078 14.0799 37.8798 13.3119 36.9198 12.7359Z" fill="#0CFFFC"/>
<g id="Group_42">
<path id="&#232;&#183;&#175;&#229;&#190;&#132;_1684_24_" d="M2.98438 7.55192C2.98438 7.93592 3.12837 8.22392 3.32037 8.31992L3.84837 8.60792C3.84837 8.60792 9.12837 4.67192 9.12837 3.99992C9.12837 3.99992 9.12837 3.75992 9.08037 3.61592C9.17637 3.56792 9.32037 3.51992 9.32037 3.51992C9.22437 3.47192 8.93638 3.27992 8.79238 3.23192C8.60038 3.18392 8.26437 3.27992 8.16837 3.32792C8.16837 3.18392 8.12038 3.03992 8.07238 2.94392L8.31238 2.89592L7.83238 2.60792C7.64038 2.51192 7.40037 2.51192 7.16037 2.65592C7.01637 2.75192 6.92038 2.84792 6.82438 2.94392C6.82438 2.94392 6.58437 2.79992 6.44037 2.70392C6.29637 2.60792 6.15237 2.60792 6.00837 2.60792C5.96037 2.60792 5.91238 2.60792 5.86438 2.60792C5.81638 2.60792 5.81637 2.60792 5.76837 2.60792C5.62437 2.65592 5.48037 2.70392 5.33637 2.79992C4.76037 3.13592 4.23238 3.80792 3.94438 4.62392C3.75238 5.10392 3.60837 5.72792 3.65637 6.06392C3.08037 6.63992 2.98438 7.02392 2.98438 7.55192Z" fill="url(#paint8_linear_2103_6974)"/>
<path id="&#232;&#183;&#175;&#229;&#190;&#132;_1685_24_" d="M3.51172 7.88804C3.51172 8.56004 3.94372 8.89604 4.47172 8.60804C4.47172 8.60804 4.51971 8.60804 4.51971 8.56004L8.69571 6.11204C8.69571 6.11204 8.74372 6.11204 8.74372 6.06404C9.27172 5.77604 9.65571 4.96004 9.65571 4.28804C9.65571 3.61604 9.22371 3.28004 8.69571 3.56804C8.69571 3.56804 8.69571 3.56804 8.64771 3.56804C8.59971 2.84804 8.16772 2.56004 7.59172 2.89604C7.44772 2.99204 7.30371 3.13604 7.15971 3.28004C6.87171 2.84804 6.34371 2.75204 5.76771 3.08804C4.85571 3.61604 4.08771 5.05604 4.13571 6.30404C3.79971 6.73604 3.51172 7.36004 3.51172 7.88804Z" fill="white"/>
<path id="Vector_41" d="M8.74471 6.06404C9.27271 5.77604 9.65671 4.96004 9.65671 4.28804C9.65671 3.61604 9.22471 3.28004 8.69671 3.56804C8.69671 3.56804 8.69671 3.56804 8.64871 3.56804C8.60071 2.84804 8.16871 2.56004 7.59271 2.89604C7.44871 2.99204 7.3047 3.13604 7.1607 3.28004C6.8727 2.84804 6.34471 2.75204 5.76871 3.08804L5.7207 3.13604L7.92871 6.54404L8.64871 6.11204C8.69671 6.11204 8.74471 6.11204 8.74471 6.06404Z" fill="url(#paint9_linear_2103_6974)"/>
</g>
<g id="Group_43">
<path id="&#232;&#183;&#175;&#229;&#190;&#132;_1684_23_" d="M42.4401 9.42394C42.4401 9.66394 42.3441 9.80794 42.2481 9.85594L41.9601 10.0479C41.9601 10.0479 38.8401 7.74394 38.8401 7.31194C38.8401 7.31194 38.8401 7.16794 38.8881 7.07194C38.8401 7.07194 38.7441 7.02394 38.7441 7.02394C38.7921 6.97594 38.9841 6.87994 39.0321 6.83194C39.1281 6.78394 39.3681 6.83194 39.4161 6.87994C39.4161 6.78394 39.4161 6.73594 39.4641 6.63994L39.3201 6.59194L39.6081 6.39994C39.7041 6.35194 39.8481 6.35194 40.0401 6.44794C40.1361 6.49594 40.1841 6.54394 40.2321 6.63994C40.2321 6.63994 40.3761 6.54394 40.4721 6.49594C40.5681 6.44794 40.6641 6.44794 40.7601 6.44794C40.8081 6.44794 40.8081 6.44794 40.8561 6.44794H40.9041C41.0001 6.44794 41.0961 6.49594 41.1441 6.54394C41.4801 6.73594 41.8161 7.16794 41.9601 7.59994C42.0561 7.88794 42.1521 8.22394 42.1041 8.46394C42.3921 8.89594 42.4401 9.08794 42.4401 9.42394Z" fill="url(#paint10_linear_2103_6974)"/>
<path id="&#232;&#183;&#175;&#229;&#190;&#132;_1685_23_" d="M42.1519 9.61595C42.1519 9.99995 41.9119 10.192 41.5759 10.048C41.5759 10.048 41.5759 10.048 41.5279 10.048L39.0799 8.60795C39.0799 8.60795 39.0799 8.60795 39.0319 8.60795C38.7439 8.41595 38.5039 7.93595 38.5039 7.55195C38.5039 7.16795 38.7439 6.97595 39.0799 7.11995C39.0799 6.68795 39.3679 6.49595 39.7039 6.68795C39.7999 6.73595 39.8959 6.83195 39.9439 6.87995C40.1359 6.63995 40.4239 6.54395 40.7599 6.78395C41.2879 7.11995 41.7679 7.98395 41.7199 8.70395C41.9599 8.94395 42.1519 9.27995 42.1519 9.61595Z" fill="white"/>
<path id="Vector_42" d="M39.0319 8.55985C38.7439 8.36785 38.5039 7.88785 38.5039 7.50385C38.5039 7.11985 38.7439 6.92785 39.0799 7.07185C39.0799 6.63985 39.3679 6.44785 39.7039 6.63985C39.7999 6.68785 39.8959 6.78385 39.9439 6.83185C40.1359 6.59185 40.4239 6.49585 40.7599 6.73585C40.7599 6.73585 40.7599 6.73585 40.8079 6.78385L39.5119 8.79985L39.0319 8.55985C39.0799 8.55985 39.0799 8.55985 39.0319 8.55985Z" fill="url(#paint11_linear_2103_6974)"/>
</g>
</g>
<defs>
<linearGradient id="paint0_linear_2103_6974" x1="0.540292" y1="35.4733" x2="45.4861" y2="35.4733" gradientUnits="userSpaceOnUse">
<stop stop-color="#92A6F1"/>
<stop offset="1" stop-color="white"/>
</linearGradient>
<linearGradient id="paint1_linear_2103_6974" x1="4.04679" y1="31.2884" x2="41.9795" y2="31.2884" gradientUnits="userSpaceOnUse">
<stop offset="0.3375" stop-color="#97B5E1"/>
<stop offset="0.5932" stop-color="#E8F1FF"/>
</linearGradient>
<linearGradient id="paint2_linear_2103_6974" x1="41.8336" y1="25.3735" x2="4.19205" y2="21.9565" gradientUnits="userSpaceOnUse">
<stop stop-color="white"/>
<stop offset="1" stop-color="#C9D9F4"/>
</linearGradient>
<linearGradient id="paint3_linear_2103_6974" x1="37.4373" y1="30.2212" x2="37.97" y2="29.2985" gradientUnits="userSpaceOnUse">
<stop stop-color="#103DB5"/>
<stop offset="0.6426" stop-color="#6BABFD"/>
</linearGradient>
<linearGradient id="paint4_linear_2103_6974" x1="35.8629" y1="31.1225" x2="36.3957" y2="30.1997" gradientUnits="userSpaceOnUse">
<stop stop-color="#103DB5"/>
<stop offset="0.6426" stop-color="#6BABFD"/>
</linearGradient>
<linearGradient id="paint5_linear_2103_6974" x1="11.6284" y1="31.0698" x2="10.1433" y2="33.1533" gradientUnits="userSpaceOnUse">
<stop stop-color="#0CFFFC" stop-opacity="0.6"/>
<stop offset="1" stop-color="white" stop-opacity="0"/>
</linearGradient>
<linearGradient id="paint6_linear_2103_6974" x1="-160.235" y1="20.4733" x2="-139.755" y2="20.4733" gradientUnits="userSpaceOnUse">
<stop stop-color="#92A6F1"/>
<stop offset="1" stop-color="white"/>
</linearGradient>
<linearGradient id="paint7_linear_2103_6974" x1="67.0988" y1="131.666" x2="51.4254" y2="115.055" gradientUnits="userSpaceOnUse">
<stop stop-color="#05105D"/>
<stop offset="0.234" stop-color="#0C3F8F"/>
<stop offset="0.479" stop-color="#1369BC"/>
<stop offset="0.697" stop-color="#1788DD"/>
<stop offset="0.878" stop-color="#1A9BF1"/>
<stop offset="1" stop-color="#1CA2F9"/>
</linearGradient>
<linearGradient id="paint8_linear_2103_6974" x1="1.8905" y1="7.75295" x2="7.19873" y2="3.68711" gradientUnits="userSpaceOnUse">
<stop stop-color="#97B5E1"/>
<stop offset="1" stop-color="#ECF1FA"/>
</linearGradient>
<linearGradient id="paint9_linear_2103_6974" x1="9.96439" y1="5.73927" x2="4.96672" y2="2.9101" gradientUnits="userSpaceOnUse">
<stop stop-color="white"/>
<stop offset="1" stop-color="#C9D9F4"/>
</linearGradient>
<linearGradient id="paint10_linear_2103_6974" x1="43.1062" y1="9.54293" x2="39.9677" y2="7.139" gradientUnits="userSpaceOnUse">
<stop stop-color="#97B5E1"/>
<stop offset="1" stop-color="#ECF1FA"/>
</linearGradient>
<linearGradient id="paint11_linear_2103_6974" x1="38.3325" y1="8.35221" x2="41.2874" y2="6.67946" gradientUnits="userSpaceOnUse">
<stop stop-color="white"/>
<stop offset="1" stop-color="#C9D9F4"/>
</linearGradient>
</defs>
</svg>
