<svg width="81" height="78" viewBox="0 0 81 78" fill="none" xmlns="http://www.w3.org/2000/svg">
<path d="M36.0002 14C36.6437 14.0009 37.2868 14.0293 37.9279 14.0852C39.9712 14.2612 41.4727 15.7737 41.9402 17.5475L42.7322 20.5917C42.7817 20.7732 42.9494 21.0262 43.3152 21.2077C43.9504 21.5212 44.5637 21.876 45.1522 22.2692C45.4904 22.4947 45.7929 22.5167 45.9744 22.4645L49.0077 21.6312C50.7787 21.1472 52.8357 21.689 54.0127 23.3637C54.7552 24.4225 55.4042 25.5417 55.9487 26.7132C56.8149 28.5695 56.2539 30.6237 54.9477 31.9135L52.7092 34.13C52.5744 34.262 52.4397 34.5342 52.4672 34.9385C52.5112 35.6452 52.5112 36.3547 52.4672 37.0615C52.4397 37.4657 52.5717 37.738 52.7092 37.87L54.9477 40.0865C56.2539 41.3762 56.8149 43.4305 55.9487 45.2867C55.4031 46.4571 54.7552 47.5771 54.0127 48.6335C52.8357 50.311 50.7787 50.8527 49.0077 50.366L45.9772 49.5355C45.7929 49.4832 45.4904 49.5052 45.1522 49.7307C44.5636 50.1242 43.95 50.4788 43.3152 50.7922C42.9494 50.9737 42.7817 51.2267 42.7349 51.4082L41.9374 54.4497C41.4754 56.2262 39.9712 57.7387 37.9279 57.9147C36.6452 58.0275 35.3551 58.0275 34.0724 57.9147C32.0292 57.7387 30.5277 56.2262 30.0629 54.4497L29.2682 51.4082C29.2187 51.2267 29.0509 50.9737 28.6852 50.7922C28.0497 50.48 27.436 50.1254 26.8482 49.7307C26.5099 49.5052 26.2074 49.4832 26.0259 49.5355L22.9927 50.3687C21.2217 50.8527 19.1647 50.311 17.9877 48.6362C17.2466 47.5779 16.5989 46.4572 16.0517 45.2867C15.1854 43.4305 15.7464 41.3762 17.0499 40.0865L19.2912 37.87C19.4287 37.738 19.5607 37.4657 19.5332 37.0615C19.4892 36.3545 19.4892 35.6455 19.5332 34.9385C19.5607 34.5342 19.4287 34.262 19.2912 34.13L17.0499 31.9135C15.7464 30.6237 15.1854 28.5695 16.0517 26.7132C16.5965 25.5425 17.2444 24.4225 17.9877 23.3665C19.1647 21.689 21.2217 21.1472 22.9927 21.634L26.0232 22.4645C26.2074 22.5167 26.5099 22.4947 26.8482 22.2692C27.4367 21.876 28.0499 21.5212 28.6852 21.2077C29.0509 21.0262 29.2187 20.7732 29.2654 20.5917L30.0629 17.5502C30.5249 15.7737 32.0292 14.2612 34.0724 14.0825C34.7077 14.0275 35.3512 14 36.0002 14ZM34.4299 18.1937C34.3309 18.202 34.1329 18.2927 34.0532 18.5952L33.2584 21.634C32.8542 23.1767 31.7487 24.2932 30.5139 24.9037C30.0382 25.1402 29.5789 25.407 29.1389 25.7012C27.9922 26.4657 26.4714 26.8645 24.9342 26.4437L21.9009 25.6105C21.6012 25.528 21.4197 25.6545 21.3647 25.7342C20.7597 26.5922 20.2317 27.5052 19.7889 28.4567C19.7504 28.542 19.7312 28.7592 19.9512 28.9792L22.1924 31.1957C23.3227 32.3122 23.7379 33.8275 23.6499 35.1997C23.6169 35.7327 23.6169 36.2673 23.6499 36.8002C23.7379 38.1725 23.3227 39.6877 22.1924 40.8042L19.9512 43.0207C19.7284 43.2407 19.7504 43.458 19.7889 43.5432C20.2344 44.4947 20.7597 45.405 21.3647 46.263C21.4197 46.3455 21.5984 46.472 21.9009 46.3895L24.9314 45.5562C26.4714 45.1355 27.9922 45.5342 29.1389 46.2987C29.5817 46.593 30.0409 46.8597 30.5167 47.0962C31.7459 47.7067 32.8542 48.826 33.2584 50.366L34.0532 53.4047C34.1329 53.7045 34.3309 53.798 34.4299 53.8062C35.4748 53.897 36.5255 53.897 37.5704 53.8062C37.6694 53.798 37.8674 53.7072 37.9472 53.4047L38.7419 50.366C39.1462 48.8232 40.2517 47.7067 41.4864 47.0962C41.9622 46.8597 42.4214 46.593 42.8614 46.2987C44.0082 45.5342 45.5289 45.1355 47.0662 45.5562L50.0994 46.3895C50.3992 46.4692 50.5807 46.3455 50.6357 46.2657C51.2407 45.405 51.7659 44.4947 52.2114 43.5432C52.2499 43.458 52.2692 43.2407 52.0492 43.0207L49.8079 40.8042C48.6777 39.6877 48.2624 38.1725 48.3504 36.8002C48.3834 36.2673 48.3834 35.7327 48.3504 35.1997C48.2624 33.8275 48.6777 32.3122 49.8079 31.1957L52.0492 28.9792C52.2719 28.7592 52.2499 28.542 52.2114 28.4567C51.7675 27.5054 51.2402 26.5953 50.6357 25.737C50.5807 25.6545 50.4019 25.528 50.0994 25.6105L47.0689 26.4437C45.5289 26.8645 44.0082 26.4657 42.8614 25.7012C42.42 25.4057 41.9598 25.1393 41.4837 24.9037C40.2544 24.2932 39.1462 23.174 38.7419 21.634L37.9472 18.5952C37.8674 18.2927 37.6694 18.202 37.5704 18.1937C36.5255 18.103 35.4748 18.103 34.4299 18.1937ZM44.2502 36C44.2502 38.188 43.381 40.2865 41.8338 41.8336C40.2866 43.3808 38.1882 44.25 36.0002 44.25C33.8121 44.25 31.7137 43.3808 30.1665 41.8336C28.6193 40.2865 27.7502 38.188 27.7502 36C27.7502 33.812 28.6193 31.7135 30.1665 30.1664C31.7137 28.6192 33.8121 27.75 36.0002 27.75C38.1882 27.75 40.2866 28.6192 41.8338 30.1664C43.381 31.7135 44.2502 33.812 44.2502 36ZM40.1252 36C40.1248 34.9056 39.6897 33.8562 38.9156 33.0826C38.1415 32.309 37.0918 31.8746 35.9974 31.875C34.903 31.8754 33.8536 32.3105 33.08 33.0846C32.3064 33.8587 31.872 34.9084 31.8724 36.0027C31.8728 37.0971 32.3079 38.1465 33.082 38.9201C33.4653 39.3032 33.9202 39.607 34.421 39.8142C34.9217 40.0214 35.4583 40.1279 36.0002 40.1277C36.542 40.1276 37.0786 40.0207 37.5791 39.8131C38.0797 39.6056 38.5345 39.3015 38.9175 38.9182C39.3006 38.5349 39.6044 38.0799 39.8116 37.5792C40.0188 37.0785 40.1253 36.5419 40.1252 36Z" fill="#4E9AA5"/>
<rect x="2" y="2" width="68" height="68" rx="34" stroke="#4E9AA5" stroke-width="4"/>
<circle opacity="0.25" cx="45" cy="42" r="36" fill="#4E9AA5"/>
</svg>
