<svg width="81" height="77" viewBox="0 0 81 77" fill="none" xmlns="http://www.w3.org/2000/svg">
<path d="M44.3527 21.575C41.8156 20.1025 38.9335 19.329 36.0002 19.3333C26.7952 19.3333 19.3335 26.795 19.3335 36C19.3335 45.205 26.7952 52.6667 36.0002 52.6667C45.2052 52.6667 52.6668 45.205 52.6668 36C52.6668 32.9775 51.8618 30.1417 50.4552 27.6983" stroke="#4E9AA5" stroke-width="4" stroke-linecap="round" stroke-linejoin="round"/>
<path d="M42.6251 29.375C42.6251 29.375 39.8017 36.9125 38.5001 38.2142C37.8749 38.8393 37.0271 39.1905 36.143 39.1905C35.2589 39.1905 34.411 38.8393 33.7859 38.2142C33.1608 37.589 32.8096 36.7412 32.8096 35.8571C32.8096 34.973 33.1608 34.1251 33.7859 33.5C35.0876 32.1983 42.6251 29.375 42.6251 29.375Z" stroke="#4E9AA5" stroke-width="4" stroke-linejoin="round"/>
<rect x="2" y="2" width="68" height="68" rx="34" stroke="#4E9AA5" stroke-width="4"/>
<circle opacity="0.25" cx="45" cy="41" r="36" fill="#4E9AA5"/>
</svg>
