<svg width="32" height="32" viewBox="0 0 32 32" fill="none" xmlns="http://www.w3.org/2000/svg">
<g id="Interface / Suitcase">
<path id="Vector" d="M21.3333 10.6666C21.3333 7.72113 18.9455 5.33331 16 5.33331C13.0545 5.33331 10.6667 7.72113 10.6667 10.6666M28 14.9332V22.3999C28 23.8934 28.0003 24.6403 27.7096 25.2107C27.454 25.7125 27.0455 26.1203 26.5437 26.376C25.9733 26.6666 25.2271 26.6666 23.7336 26.6666H8.26693C6.77345 26.6666 6.02616 26.6666 5.45573 26.376C4.95396 26.1203 4.54631 25.7125 4.29065 25.2107C4 24.6403 4 23.8934 4 22.3999V14.9332C4 13.4398 4 12.6931 4.29065 12.1227C4.54631 11.6209 4.95396 11.213 5.45573 10.9573C6.02616 10.6666 6.77345 10.6666 8.26693 10.6666H23.7336C25.2271 10.6666 25.9733 10.6666 26.5437 10.9573C27.0455 11.213 27.454 11.6209 27.7096 12.1227C28.0003 12.6931 28 13.4398 28 14.9332Z" stroke="black" stroke-width="2" stroke-linecap="round" stroke-linejoin="round"/>
</g>
</svg>
