<svg width="81" height="77" viewBox="0 0 81 77" fill="none" xmlns="http://www.w3.org/2000/svg">
<path d="M36 16C24.972 16 16 24.972 16 36V44.286C16 46.334 17.794 48 20 48H22C22.5304 48 23.0391 47.7893 23.4142 47.4142C23.7893 47.0391 24 46.5304 24 46V35.714C24 35.1836 23.7893 34.6749 23.4142 34.2998C23.0391 33.9247 22.5304 33.714 22 33.714H20.184C21.296 25.974 27.956 20 36 20C44.044 20 50.704 25.974 51.816 33.714H50C49.4696 33.714 48.9609 33.9247 48.5858 34.2998C48.2107 34.6749 48 35.1836 48 35.714V48C48 50.206 46.206 52 44 52H40V50H32V56H44C48.412 56 52 52.412 52 48C54.206 48 56 46.334 56 44.286V36C56 24.972 47.028 16 36 16Z" fill="#4E9AA5"/>
<rect x="2" y="2" width="68" height="68" rx="34" stroke="#4E9AA5" stroke-width="4"/>
<circle opacity="0.25" cx="45" cy="41" r="36" fill="#4E9AA5"/>
</svg>
