<svg width="48" height="36" viewBox="0 0 48 36" fill="none" xmlns="http://www.w3.org/2000/svg">
<g id="Flag Pack">
<g clip-path="url(#clip0_2288_2753)">
<path id="Vector" d="M47.1733 36.4267H0.8286C0.37157 36.4267 0.000976562 35.9924 0.000976562 35.4568V0.543113C0.000976562 0.00753048 0.37157 -0.426758 0.8286 -0.426758H47.1734C47.6304 -0.426758 48.001 0.00753048 48.001 0.543113V35.4568C48.0009 35.9925 47.6303 36.4267 47.1733 36.4267Z" fill="#E5030F"/>
<g id="Group">
<g id="Union">
<path d="M12.5326 18.3016C12.5326 21.8387 15.3485 24.7055 18.8199 24.7055C20.1137 24.7055 21.3067 24.3008 22.3004 23.6148C22.4509 23.511 22.6248 23.7112 22.4988 23.8447C21.0732 25.3564 19.0768 26.3018 16.8554 26.3018C12.3459 26.3018 8.72395 22.4318 9.01657 17.7752C9.27215 13.7098 12.5831 10.4454 16.5825 10.3065C18.9104 10.2256 21.0099 11.1834 22.4934 12.7535C22.6206 12.8882 22.4471 13.0914 22.2951 12.9867C21.3025 12.3023 20.1115 11.8979 18.8199 11.8979C15.3486 11.8979 12.5326 14.7711 12.5326 18.3016Z" fill="#F5F5F5"/>
<path d="M26.8635 17.201L25.6317 15.5606C25.5629 15.4689 25.4188 15.5192 25.4199 15.6347L25.4379 17.6994L23.5247 18.385C23.4177 18.4234 23.4203 18.5783 23.5284 18.613L25.4629 19.2337L25.5123 21.2978C25.5151 21.4132 25.6607 21.4586 25.7265 21.3646L26.9041 19.6835L28.8478 20.2736C28.9564 20.3066 29.0438 20.1798 28.9763 20.087L27.7696 18.4273L28.9215 16.7278C28.9859 16.6328 28.8944 16.509 28.7869 16.5456L26.8635 17.201Z" fill="#F5F5F5"/>
</g>
</g>
</g>
</g>
<defs>
<clipPath id="clip0_2288_2753">
<rect width="48" height="36" rx="4" fill="white"/>
</clipPath>
</defs>
</svg>
