<svg width="160" height="160" viewBox="0 0 160 160" fill="none" xmlns="http://www.w3.org/2000/svg">
<path d="M89.8355 70.7862V82.7655C83.0128 83.1062 76.177 83.0911 69.3558 82.7204V73.1561H69.3537V70.8229C50.5313 71.7288 36.5977 74.9834 36.5977 78.8604C36.5977 83.44 56.0296 87.1498 80.001 87.1498C103.971 87.1498 123.404 83.44 123.404 78.8604C123.404 74.9263 109.067 71.6364 89.8355 70.7862Z" fill="#50AF95"/>
<path d="M80.0004 0.000244141C35.8181 0.000244141 0 35.8162 0 79.9999C0 124.181 35.8181 160.001 80.0004 160.001C124.183 160.001 160 124.181 160 79.9999C160 35.8162 124.182 0.000244141 80.0004 0.000244141ZM89.8342 93.5822V128.87H69.3531V93.5343C47.4284 92.2657 31.0275 87.1661 31.0275 81.0646C31.0275 74.9645 47.4284 69.8655 69.3531 68.5949V58.7067H41.4709V38.2263H117.719V58.7067H89.8342L89.8356 68.5476C112.169 69.7357 128.975 74.8897 128.975 81.0646C128.974 87.2408 112.169 92.3955 89.8342 93.5822Z" fill="#50AF95"/>
</svg>
