<svg width="161" height="160" viewBox="0 0 161 160" fill="none" xmlns="http://www.w3.org/2000/svg">
<rect x="0.333008" y="0.000610352" width="160" height="160" rx="80" fill="#172B85"/>
<path fill-rule="evenodd" clip-rule="evenodd" d="M47.4346 100.673H36.0454L27.505 68.0911C27.0996 66.5923 26.2389 65.2672 24.9728 64.6427C21.8132 63.0734 18.3314 61.8244 14.5332 61.1944V59.94H32.8802C35.4124 59.94 37.3115 61.8244 37.628 64.0128L42.0593 87.5156L53.4429 59.94H64.5155L47.4346 100.673ZM70.8459 100.673H60.0898L68.9468 59.94H79.7029L70.8459 100.673ZM93.6187 71.2244C93.9352 69.0306 95.8344 67.7761 98.05 67.7761C101.532 67.4612 105.324 68.0911 108.49 69.6551L110.389 60.885C107.224 59.6305 103.742 59.0006 100.582 59.0006C90.1426 59.0006 82.5461 64.6428 82.5461 72.4734C82.5461 78.4306 87.9269 81.5585 91.7252 83.4428C95.8344 85.3218 97.417 86.5762 97.1004 88.4551C97.1004 91.2735 93.9352 92.5279 90.7756 92.5279C86.9774 92.5279 83.1791 91.5884 79.703 90.0191L77.8038 98.7946C81.6021 100.359 85.7113 100.988 89.5095 100.988C101.215 101.298 108.49 95.6612 108.49 87.2007C108.49 76.5462 93.6187 75.9217 93.6187 71.2244ZM146.133 100.673L137.593 59.94H128.419C126.52 59.94 124.621 61.1944 123.988 63.0734L108.173 100.673H119.246L121.456 94.7217H135.061L136.327 100.673H146.133ZM130.002 70.9094L133.161 86.2611H124.304L130.002 70.9094Z" fill="white"/>
</svg>
