<svg width="81" height="77" viewBox="0 0 81 77" fill="none" xmlns="http://www.w3.org/2000/svg">
<path d="M37.0311 56.4378L36.9561 56.4256C36.9666 56.4337 36.9789 56.4391 36.992 56.4412C37.0051 56.4433 37.0185 56.4421 37.0311 56.4378ZM54.0842 29.6046C54.0628 29.4915 54.0042 29.3888 53.9178 29.3128C53.8314 29.2367 53.722 29.1917 53.6071 29.185C53.4922 29.1782 53.3783 29.21 53.2835 29.2753C53.1887 29.3406 53.1184 29.4358 53.0839 29.5456C53.0508 29.6498 52.9855 29.7409 52.8974 29.8058C52.8093 29.8706 52.703 29.9059 52.5936 29.9065H51.1433C51.0494 29.9066 50.9573 29.881 50.877 29.8325L48.7789 28.5743C48.6986 28.5258 48.6065 28.5002 48.5126 28.5003H45.1564C45.0542 28.5002 44.9543 28.5305 44.8695 28.5875L40.7304 31.3465C40.6589 31.3942 40.6004 31.4589 40.5601 31.5348C40.5198 31.6108 40.4991 31.6956 40.4998 31.7815V35.6946C40.4997 35.7884 40.5251 35.8805 40.5734 35.9609C40.6216 36.0413 40.6908 36.1071 40.7736 36.1512L46.2008 39.0481C46.2823 39.0919 46.3507 39.1568 46.3988 39.2359C46.4469 39.315 46.473 39.4055 46.4745 39.4981L46.4998 41.7003C46.5013 41.7914 46.5267 41.8806 46.5736 41.9588C46.6206 42.037 46.6872 42.1014 46.767 42.1456L48.9476 43.3521C49.0284 43.397 49.0958 43.4626 49.1428 43.5422C49.1897 43.6218 49.2146 43.7125 49.2148 43.805V48.3612C49.2148 48.4608 49.2436 48.5582 49.2976 48.6419C49.3516 48.7255 49.4286 48.7918 49.5194 48.8328C49.6101 48.8737 49.7108 48.8877 49.8092 48.8729C49.9077 48.8581 49.9998 48.8152 50.0745 48.7493C50.9539 47.975 52.2148 46.8443 52.3826 46.5856C52.6601 46.1562 52.9204 45.7165 53.1636 45.2665C53.6671 44.3341 54.0935 43.3621 54.4386 42.3603C55.6273 38.9187 54.6879 32.7321 54.0842 29.6046ZM38.8498 40.3878L33.1001 36.0753C33.0352 36.0266 32.9563 36.0003 32.8751 36.0003H30.147C30.1003 36.0003 30.0541 35.9912 30.011 35.9733C29.9679 35.9554 29.9287 35.9292 29.8958 35.8962L28.6095 34.61C28.5747 34.5751 28.5333 34.5475 28.4878 34.5287C28.4422 34.5099 28.3935 34.5002 28.3442 34.5003H23.3576C23.2874 34.5003 23.2187 34.4794 23.1602 34.4404C23.1018 34.4013 23.0563 34.3459 23.0294 34.2809C23.0025 34.216 22.9954 34.1446 23.0091 34.0756C23.0228 34.0067 23.0567 33.9434 23.1064 33.8937L23.8958 33.1043C23.9287 33.0713 23.9679 33.0451 24.011 33.0272C24.0541 33.0094 24.1003 33.0002 24.147 33.0003H27.1817C27.3451 33.0003 27.5041 32.9469 27.6344 32.8482C27.7647 32.7495 27.8592 32.611 27.9036 32.4537L28.5495 30.1568C28.5633 30.1075 28.587 30.0615 28.6193 30.0216C28.6515 29.9818 28.6916 29.949 28.737 29.9253L31.3123 28.5996C31.3703 28.5697 31.4189 28.5244 31.4528 28.4686C31.4867 28.4129 31.5046 28.3489 31.5045 28.2837V27.1118C31.5046 27.0391 31.5269 26.9682 31.5683 26.9084L32.937 24.9378C32.9781 24.8786 33.0363 24.8334 33.1039 24.8084L35.0192 24.0893C35.087 24.0639 35.1453 24.0185 35.1866 23.959C35.2278 23.8995 35.2498 23.8289 35.2498 23.7565V22.6878C35.2498 22.6292 35.2354 22.5715 35.2077 22.5198C35.1801 22.4681 35.1401 22.4241 35.0914 22.3915L33.1714 21.1146C33.1186 21.0799 33.0577 21.0598 32.9946 21.0561C32.9316 21.0525 32.8687 21.0656 32.8123 21.094L30.1986 22.4009C30.1388 22.4304 30.0719 22.4425 30.0055 22.4357C29.9392 22.4289 29.8761 22.4035 29.8236 22.3625L28.5842 21.3828C28.5419 21.3488 28.5079 21.3055 28.4849 21.2564C28.4619 21.2072 28.4504 21.1535 28.4513 21.0992C28.4522 21.045 28.4655 20.9916 28.4901 20.9433C28.5148 20.8949 28.5502 20.8529 28.5936 20.8203L29.6004 20.0787C29.646 20.0453 29.683 20.0014 29.7081 19.9508C29.7333 19.9002 29.746 19.8443 29.7452 19.7878C29.7444 19.7313 29.73 19.6757 29.7034 19.6259C29.6767 19.576 29.6385 19.5333 29.592 19.5012L28.0236 18.4071C27.9693 18.3689 27.9053 18.3467 27.839 18.3431C27.7727 18.3394 27.7067 18.3545 27.6486 18.3865C27.0814 18.6968 25.4173 19.6156 24.8267 20.029C22.094 21.9454 19.8948 24.5266 18.4367 27.529C18.2661 27.8815 18.0551 28.2406 18.0345 28.6278C18.0139 29.015 17.7101 29.8793 17.5836 30.229C17.5665 30.2763 17.5597 30.3266 17.5636 30.3767C17.5674 30.4269 17.5819 30.4756 17.6061 30.5196L20.952 36.6678C20.9821 36.7236 21.0268 36.7703 21.0814 36.8028L24.6017 38.9159C24.6474 38.9431 24.6863 38.9802 24.7157 39.0245C24.7451 39.0688 24.7641 39.1192 24.7714 39.1718L25.4764 44.285C25.4833 44.334 25.5002 44.381 25.5262 44.4231C25.5522 44.4652 25.5866 44.5015 25.6273 44.5296L28.3742 46.4178C28.4538 46.4725 28.5092 46.5557 28.5289 46.6503L29.9858 53.569C29.9939 53.6096 30.0095 53.6484 30.0317 53.6834C30.1686 53.9046 30.7142 54.7146 31.3723 54.8346C31.3114 54.8515 31.257 54.89 31.1961 54.9078C31.3542 54.9356 31.5106 54.9719 31.6648 55.0165C31.8523 55.0671 32.0398 55.1103 32.2273 55.1506C32.5208 55.2087 32.5498 55.2537 32.6904 54.9931C32.8779 54.6443 33.0926 54.5243 33.2529 54.4812C33.3191 54.466 33.3796 54.4324 33.4276 54.3843C33.4755 54.3362 33.5089 54.2755 33.5239 54.2093L34.4679 49.8331C34.4878 49.7413 34.5413 49.6604 34.6179 49.6062L38.8367 46.6156C38.8857 46.5809 38.9257 46.535 38.9533 46.4816C38.9808 46.4283 38.9952 46.3691 38.9951 46.309V40.6878C38.9957 40.6299 38.9829 40.5728 38.9576 40.5207C38.9324 40.4687 38.8955 40.4232 38.8498 40.3878Z" fill="#4E9AA5"/>
<path d="M36.5623 16.5002C36.5623 16.5002 36.2202 16.5199 36.1508 16.5218C35.6427 16.5368 35.1358 16.5718 34.6302 16.6268C32.7869 16.8268 30.9818 17.2893 29.2695 18.0002C29.4973 18.1577 29.1055 18.3021 29.1055 18.3021L29.7186 19.5002H32.9998L35.2498 20.6252L37.2186 19.5002L36.5623 16.5002ZM45.2089 23.2559L46.7192 21.9434C46.7665 21.9023 46.8027 21.8501 46.8247 21.7915C46.8466 21.7329 46.8535 21.6697 46.8447 21.6077C46.836 21.5457 46.8118 21.4869 46.7745 21.4366C46.7372 21.3864 46.6879 21.3463 46.6311 21.3199L44.8677 20.5015C44.7781 20.4597 44.6756 20.455 44.5826 20.4883C44.4895 20.5217 44.4134 20.5904 44.3708 20.6796L43.6442 22.1993C43.6047 22.2824 43.5971 22.3771 43.6228 22.4654C43.6486 22.5538 43.7059 22.6296 43.7839 22.6784L44.7645 23.2915C44.8327 23.3339 44.9126 23.3533 44.9926 23.3469C45.0726 23.3405 45.1484 23.3086 45.2089 23.2559ZM52.2786 25.1881L51.732 24.3443C51.7236 24.3312 51.7161 24.3181 51.7086 24.304C51.6102 24.1024 50.7955 22.4571 50.1148 21.8187C49.6039 21.3359 49.4586 21.4746 49.4183 21.5815C49.3952 21.6406 49.3567 21.6924 49.3067 21.7315L46.603 23.9168C46.5364 23.9707 46.4533 24.0001 46.3677 24.0002H44.968C44.9187 24.0002 44.8699 24.0099 44.8244 24.0287C44.7789 24.0475 44.7375 24.0751 44.7027 24.1099L43.5777 25.2349C43.5428 25.2698 43.5151 25.3111 43.4963 25.3566C43.4774 25.4022 43.4677 25.451 43.4677 25.5002C43.4677 25.5495 43.4774 25.5983 43.4963 25.6438C43.5151 25.6894 43.5428 25.7307 43.5777 25.7656L44.7027 26.8906C44.7375 26.9254 44.7789 26.953 44.8244 26.9718C44.8699 26.9906 44.9187 27.0003 44.968 27.0002H52.0152C52.0658 27.0003 52.1159 26.9901 52.1624 26.9703C52.209 26.9504 52.2511 26.9214 52.2861 26.8848C52.3212 26.8483 52.3484 26.8051 52.3663 26.7577C52.3842 26.7104 52.3923 26.6599 52.3902 26.6093L52.3386 25.3765C52.3358 25.3094 52.3151 25.2444 52.2786 25.1881Z" fill="#4E9AA5"/>
<path d="M36 18.7502C39.9909 18.7499 43.8584 20.1334 46.9436 22.6649C50.0289 25.1965 52.1408 28.7195 52.9197 32.6336C53.6986 36.5478 53.0962 40.6109 51.2152 44.1307C49.3341 47.6505 46.2909 50.4092 42.6039 51.9367C38.9169 53.4642 34.8143 53.666 30.9951 52.5078C27.176 51.3496 23.8766 48.9029 21.6592 45.5848C19.4418 42.2666 18.4435 38.2822 18.8344 34.3105C19.2253 30.3388 20.9813 26.6255 23.8031 23.8034C25.401 22.1964 27.3017 20.9223 29.3953 20.0549C31.489 19.1876 33.7338 18.7441 36 18.7502ZM36 15.0002C24.4031 15.0002 15 24.4034 15 36.0002C15 47.5971 24.4031 57.0002 36 57.0002C47.5969 57.0002 57 47.5971 57 36.0002C57 24.4034 47.5969 15.0002 36 15.0002Z" fill="#4E9AA5"/>
<rect x="2" y="2.00024" width="68" height="68" rx="34" stroke="#4E9AA5" stroke-width="4"/>
<circle opacity="0.25" cx="45" cy="41.0002" r="36" fill="#4E9AA5"/>
</svg>
