<svg width="81" height="77" viewBox="0 0 81 77" fill="none" xmlns="http://www.w3.org/2000/svg">
<g clip-path="url(#clip0_70_7527)">
<path d="M51.8352 30.3125H44.3693C44.233 29.3466 43.9545 28.4886 43.5341 27.7386C43.1136 26.9773 42.5739 26.3295 41.9148 25.7955C41.2557 25.2614 40.4943 24.8523 39.6307 24.5682C38.7784 24.2841 37.8523 24.142 36.8523 24.142C35.0455 24.142 33.4716 24.5909 32.1307 25.4886C30.7898 26.375 29.75 27.6705 29.0114 29.375C28.2727 31.0682 27.9034 33.125 27.9034 35.5455C27.9034 38.0341 28.2727 40.125 29.0114 41.8182C29.7614 43.5114 30.8068 44.7898 32.1477 45.6534C33.4886 46.517 35.0398 46.9489 36.8011 46.9489C37.7898 46.9489 38.7045 46.8182 39.5455 46.5568C40.3977 46.2955 41.1534 45.9148 41.8125 45.4148C42.4716 44.9034 43.017 44.2841 43.4489 43.5568C43.892 42.8295 44.1989 42 44.3693 41.0682L51.8352 41.1023C51.642 42.7045 51.1591 44.25 50.3864 45.7386C49.625 47.2159 48.5966 48.5398 47.3011 49.7102C46.017 50.8693 44.483 51.7898 42.6989 52.4716C40.9261 53.142 38.9205 53.4773 36.6818 53.4773C33.5682 53.4773 30.7841 52.7727 28.3295 51.3636C25.8864 49.9545 23.9545 47.9148 22.5341 45.2443C21.125 42.5739 20.4205 39.3409 20.4205 35.5455C20.4205 31.7386 21.1364 28.5 22.5682 25.8295C24 23.1591 25.9432 21.125 28.3977 19.7273C30.8523 18.3182 33.6136 17.6136 36.6818 17.6136C38.7045 17.6136 40.5795 17.8977 42.3068 18.4659C44.0455 19.0341 45.5852 19.8636 46.9261 20.9545C48.267 22.0341 49.358 23.358 50.1989 24.9261C51.0511 26.4943 51.5966 28.2898 51.8352 30.3125Z" fill="#4E9AA5"/>
</g>
<rect x="2" y="2" width="68" height="68" rx="34" stroke="#4E9AA5" stroke-width="4"/>
<circle opacity="0.25" cx="45" cy="41" r="36" fill="#4E9AA5"/>
<defs>
<clipPath id="clip0_70_7527">
<rect width="48" height="48" fill="white" transform="translate(12 12)"/>
</clipPath>
</defs>
</svg>
