<?xml version="1.0" encoding="utf-8"?>
<!-- Generator: Adobe Illustrator 26.0.2, SVG Export Plug-In . SVG Version: 6.00 Build 0)  -->
<svg version="1.1" id="Layer_1" xmlns="http://www.w3.org/2000/svg" xmlns:xlink="http://www.w3.org/1999/xlink" x="0px" y="0px"
     viewBox="0 0 440 100" style="enable-background:new 0 0 440 100;" xml:space="preserve">
<style type="text/css">
	.st0{clip-path:url(#SVGID_00000150815219188522997200000012502936064314742692_);}
	.st1{fill:#FFFFFF;}
</style>
    <g>
	<defs>
		<rect id="SVGID_1_" width="439.7" height="100"/>
	</defs>
        <clipPath id="SVGID_00000086652372969678073230000016653200647629578917_">
		<use xlink:href="#SVGID_1_"  style="overflow:visible;"/>
	</clipPath>
        <g style="clip-path:url(#SVGID_00000086652372969678073230000016653200647629578917_);">
		<path class="st1" d="M79.5,7.8h14l-41,90.9H41.1L0,7.8h14.1l31.8,72.7l0.6,1.7h0.6l0.5-1.7L79.5,7.8z"/>
            <path class="st1" d="M128.3,33l-25,55.4h26.8v10.3h-45l24.5-55.4h-23V33H128.3z"/>
            <path class="st1" d="M154,98.8V9h6.2v83.8H203v5.9H154z"/>
            <path class="st1" d="M215.6,13.5c0-3.9,1.3-5.9,3.9-5.9c1.3,0,2.2,0.5,3,1.5c0.7,1,1.1,2.5,1.1,4.4c0,1.8-0.4,3.3-1.1,4.4
			c-0.7,1.1-1.7,1.6-3,1.6C216.9,19.5,215.6,17.5,215.6,13.5z M222.5,98.8h-6.1V32.1h6.1V98.8z"/>
            <path class="st1" d="M290.9,98.8V55.5c0-6.7-1.4-11.6-4.2-14.6c-2.8-3-7.2-4.6-13.1-4.6c-8,0-13.8,2-17.5,6.1
			c-3.7,4-5.6,10.6-5.6,19.6v36.8h-6.1V32.1h5.1l1.1,9.1h0.4c4.4-7,12.1-10.4,23.1-10.4c15.1,0,22.7,8.1,22.7,24.4v43.6L290.9,98.8
			L290.9,98.8z"/>
            <path class="st1" d="M323.3,32.1v43.2c0,6.7,1.4,11.6,4.2,14.6c2.8,3,7.2,4.6,13.1,4.6c7.9,0,13.8-2,17.5-6
			c3.8-4,5.6-10.6,5.6-19.6V32.1h6v66.7h-5.1l-1.1-9.2h-0.4c-4.4,7-12.1,10.4-23.1,10.4c-15.2,0-22.8-8.1-22.8-24.4V32.1H323.3z"/>
            <path class="st1" d="M408,64.5l-23.3-32.4h7l19.9,28.1l19.7-28.1h6.7l-22.9,32.4l24.6,34.3h-7.1L411.7,69l-21.1,29.8h-6.7
			L408,64.5z"/>
	</g>
</g>
</svg>
